<?xml version="1.0" encoding="UTF-8"?>
<svg id="Camada_2" data-name="Camada 2" xmlns="http://www.w3.org/2000/svg" viewBox="0 0 477.15 328.84">
  <defs>
    <style>
      .cls-1 {
        fill: #262626;
      }
    </style>
  </defs>
  <g id="Camada_1-2" data-name="Camada 1">
    <g>
      <path class="cls-1" d="M0,0h135.77c25.66,0,43.39,6.3,57.39,20.53,12.83,13.06,19.36,30.56,19.36,52.26,0,27.99-10.03,48.52-30.79,63.45-17.73,13.06-39.43,19.36-65.32,19.36H0V0ZM92.15,108.94c12.13,0,18.66-1.4,24.96-5.37,7.93-4.9,12.6-14.23,12.6-24.96,0-16.33-9.33-24.96-26.83-24.96h-22.86v55.29h12.13Z"/>
      <path class="cls-1" d="M400.63,155.6v-80.02l-27.3,80.02h-43.62l-27.29-77.45v77.45h-75.58V0h100.31l24.26,75.58L375.9,0h101.25v155.6h-76.52Z"/>
      <path class="cls-1" d="M57.13,328.84v-93.78H0v-61.82h212.52v61.82h-57.42v93.78H57.13Z"/>
      <path class="cls-1" d="M389.04,328.84l-67.68-69.75v69.75h-94.52v-155.6h100.36l55.43,65.09v-65.09h94.53v155.6h-88.11Z"/>
    </g>
  </g>
</svg>