<svg id="Capa_1" enable-background="new 0 0 501 501" height="512" viewBox="0 0 501 501" width="512" xmlns="http://www.w3.org/2000/svg"><path d="m259.001 495.107c-3.141.177-6.298.295-9.469.353-136.058 2.468-249.504-108.827-249.532-244.907-.011-54.542 17.8-104.923 47.929-145.639l.073-.026 182.959.026c48.623 0 88.039-39.417 88.039-88.04 99.141 31.374 171 124.108 171 233.626 0 .69-148 159-231 244.607z" fill="#08e092"/><path d="m339 454.501h-250c-11.046 0-20-8.954-20-20v-130c0-11.046 8.954-20 20-20h250c11.046 0 20 8.954 20 20v130c0 11.045-8.954 20-20 20z" fill="#f52c2c"/><path d="m339 454.501h-220c-11.046 0-20-8.954-20-20v-130c0-11.046 8.954-20 20-20h220c11.046 0 20 8.954 20 20v130c0 11.045-8.954 20-20 20z" fill="#fc6930"/><path d="m359 364.501h-290v-40h290z" fill="#ab2538"/><path d="m359 364.501h-260v-40h260z" fill="#f52c2c"/><path d="m139 434.501h-40c-5.523 0-10-4.477-10-10v-20c0-5.523 4.477-10 10-10h40c5.523 0 10 4.477 10 10v20c0 5.522-4.477 10-10 10z" fill="#ecb700"/><path d="m139 394.501v40h-10v-15h-20v15h-10v-40h10v15h20v-15z" fill="#fded32"/><path d="m319 324.5h-80.865c-2.647 0-5.186-1.052-7.058-2.924l-28.038-28.038c-1.953-1.953-5.118-1.953-7.071 0l-28.038 28.038c-1.872 1.872-4.411 2.924-7.058 2.924h-12.736c-2.647 0-5.186-1.052-7.058-2.924l-28.038-28.038c-1.953-1.953-5.118-1.953-7.071 0l-28.038 28.038c-1.872 1.872-4.411 2.924-7.058 2.924h-12.963c-5.513 0-9.982-4.469-9.982-9.982v-209.604c44.629-60.311 116.284-99.414 197.072-99.414 25.792 0 50.652 3.986 74 11.374z" fill="#fdf7bd"/><path d="m77.929 321.577c-1.872 1.872-4.411 2.924-7.058 2.924h-12.961c-5.513 0-9.982-4.469-9.982-9.982v-209.605c8.959-12.107 19.007-23.359 30-33.613v250.276z" fill="#f7e6b0"/><path d="m258.719 93.626c-2.74 11.031-12.709 19.207-24.588 19.207-6.49 0-12.407-2.443-16.889-6.456-4.482 4.013-10.399 6.456-16.889 6.456s-12.407-2.443-16.889-6.456c-4.482 4.013-10.399 6.456-16.889 6.456s-12.407-2.443-16.889-6.456c-4.482 4.013-10.399 6.456-16.889 6.456-11.879 0-21.848-8.176-24.588-19.207-.775-3.121 1.661-6.126 4.876-6.126h140.756c3.217 0 5.653 3.006 4.878 6.126zm-3.873 24.944c-.795-.66-1.966-.595-2.691.141-4.592 4.659-10.965 7.556-18.023 7.556-5.92 0-11.363-2.033-15.675-5.436-.71-.561-1.717-.561-2.427 0-4.312 3.403-9.756 5.436-15.675 5.436s-11.363-2.033-15.675-5.436c-.71-.561-1.717-.561-2.427 0-4.312 3.403-9.756 5.436-15.675 5.436s-11.363-2.033-15.675-5.436c-.71-.561-1.717-.561-2.427 0-4.312 3.403-9.756 5.436-15.675 5.436-7.058 0-13.431-2.897-18.023-7.556-.725-.735-1.896-.8-2.691-.141-2.21 1.834-3.619 4.6-3.619 7.697v8.233c0 11.046 8.954 20 20 20h110c11.046 0 20-8.954 20-20v-8.233c-.004-3.096-1.412-5.863-3.622-7.697zm-136.382-44.07h130c5.523 0 10-4.477 10-10 0-20.156-11.931-37.516-29.113-45.426-3.331-1.533-7.137.859-7.137 4.527v13.084c0 4.106-3.164 7.688-7.269 7.811-4.247.127-7.731-3.278-7.731-7.497v-17.499c0-2.762-2.239-5-5-5h-6.25c-2.761 0-5 2.238-5 5v17.186c0 4.106-3.164 7.688-7.269 7.811-4.247.127-7.731-3.278-7.731-7.497v-17.5c0-1.448-.615-2.751-1.599-3.664-4.952 1.488-9.837 3.129-14.651 4.917v15.933c0 4.106-3.164 7.688-7.269 7.811-4.247.127-7.731-3.278-7.731-7.497v-10.101c-11.12 4.995-21.8 10.795-31.965 17.327-2.754 6.195-4.285 13.056-4.285 20.274 0 5.523 4.477 10 10 10z" fill="#f4aa39"/><path d="m258.719 93.626c-2.74 11.031-12.709 19.207-24.588 19.207-6.49 0-12.407-2.443-16.889-6.456-3.181 2.847-7.083 4.904-11.401 5.859-13.399-5.275-25.135-13.855-34.203-24.736h82.205c3.215 0 5.651 3.006 4.876 6.126zm-.255-29.126c0-20.156-11.931-37.516-29.113-45.426-3.332-1.533-7.137.859-7.137 4.527v13.084c0 4.106-3.165 7.688-7.269 7.811-4.247.127-7.731-3.278-7.731-7.497v-17.499c0-2.762-2.239-5-5-5h-6.25c-2.761 0-5 2.238-5 5v17.186c0 4.106-3.165 7.688-7.269 7.811-4.247.127-7.731-3.278-7.731-7.497v-17.5c0-1.448-.615-2.751-1.599-3.664-4.952 1.488-9.837 3.129-14.651 4.917v15.933c0 4.015-3.025 7.527-6.996 7.797 1.44 10.776 4.899 20.913 9.984 30.018h85.762c5.523-.001 10-4.478 10-10.001z" fill="#f8bb5e"/><path d="m179 204.5c0 5.523-4.477 10-10 10h-90c-5.523 0-10-4.477-10-10s4.477-10 10-10h90c5.523 0 10 4.477 10 10zm100 0c0-5.523-4.477-10-10-10h-60c-5.523 0-10 4.477-10 10s4.477 10 10 10h60c5.523 0 10-4.477 10-10zm-140 30h-60c-5.523 0-10 4.477-10 10s4.477 10 10 10h60c5.523 0 10-4.477 10-10s-4.477-10-10-10zm130 0h-40c-5.523 0-10 4.477-10 10s4.477 10 10 10h40c5.523 0 10-4.477 10-10s-4.477-10-10-10z" fill="#f5dc90"/><path d="m501 184.5v40c0 5.523-4.477 10-10 10h-52c-5.523 0-10-4.477-10-10v-40c0-5.523 4.477-10 10-10h52c5.523 0 10 4.477 10 10zm-172-50h-50c-11.046 0-20 8.954-20 20v20c-5.523 0-10 4.477-10 10v40c0 5.523 4.477 10 10 10v20c-5.523 0-10 4.477-10 10v40c0 5.523 4.477 10 10 10v180.607c10.247-.577 20.325-1.784 30.197-3.583 11.499-2.095 19.803-12.202 19.803-23.89v-313.134c0-11.046 8.954-20 20-20z" fill="#5b3374"/><path d="m490 154.5v100c0 .538-.021 1.071-.063 1.598-.909 40.562-11.676 78.691-30 112.086-45.305 82.57-170.937 50.155-170.937-44.028v-169.656c0-11.046 8.954-20 20-20h161c11.046 0 20 8.954 20 20z" fill="#6354b0"/><path d="m399.5 156.5c0 2.761-2.239 5-5 5h-40c-2.761 0-5-2.239-5-5s2.239-5 5-5h40c2.761 0 5 2.239 5 5z" fill="#5b3374"/><path d="m289 491.56v-307.06c0-5.523 4.477-10 10-10h151c5.523 0 10 4.477 10 10v183.569c-34.873 63.637-97.176 110.104-171 123.491z" fill="#fded32"/><path d="m343.131 311.393c9.064 5.929 15.289 7.753 23.23 8.239v7.368c0 4.143 3.358 7.5 7.5 7.5s7.5-3.357 7.5-7.5v-7.979c15.997-3.274 25.342-16.528 27.423-28.911 2.695-16.035-5.69-29.976-21.363-35.516-1.992-.704-4.028-1.439-6.061-2.206v-33.019c4.945 1.288 7.882 3.775 8.149 4.008 3.047 2.757 7.752 2.549 10.543-.478 2.808-3.045 2.617-7.79-.428-10.598-.407-.375-7.175-6.475-18.265-8.235v-6.578c0-4.143-3.358-7.5-7.5-7.5s-7.5 3.357-7.5 7.5v7.135c-.974.221-1.965.482-2.972.785-10.336 3.114-18.06 11.957-20.155 23.077-1.913 10.15 1.347 19.945 8.508 25.562 3.721 2.918 8.323 5.591 14.619 8.406v42.151c-5.474-.443-9.018-1.841-15.018-5.766-3.468-2.268-8.116-1.297-10.382 2.171s-1.294 8.116 2.172 10.384zm17.869-69.148c-2.696-2.114-3.883-6.425-3.025-10.981.761-4.038 3.358-8.869 8.386-11.001v25.464c-2.01-1.117-3.826-2.277-5.361-3.482zm21.422 26.492c12.914 4.564 12.121 15.61 11.57 18.887-1.056 6.281-5.345 12.95-12.631 15.772v-35.036c.351.125.704.25 1.061.377zm36.578 105.764c0 5.523-4.477 10-10 10h-90c-5.523 0-10-4.477-10-10s4.477-10 10-10h90c5.523 0 10 4.477 10 10zm-70 40c0 5.523-4.477 10-10 10h-20c-5.523 0-10-4.477-10-10s4.477-10 10-10h20c5.523 0 10 4.477 10 10z" fill="#ecb700"/><path d="m496.5 389.501c0 35.899-29.102 65-65 65s-65-29.102-65-65 29.102-65 65-65 65 29.101 65 65z" fill="#ab2538"/><path d="m496.5 389.501c0 11.526-3 22.351-8.262 31.738-9.386 5.262-20.212 8.262-31.738 8.262-35.898 0-65-29.102-65-65 0-11.526 3-22.351 8.262-31.738 9.386-5.262 20.212-8.262 31.738-8.262 35.898-.001 65 29.101 65 65z" fill="#f52c2c"/><path d="m498.071 359.697-61.875 61.875c-1.953 1.953-4.512 2.929-7.071 2.929s-5.119-.976-7.071-2.929l-28.125-28.125c-3.905-3.905-3.905-10.237 0-14.143 3.905-3.905 10.237-3.905 14.143 0l21.053 21.054 54.804-54.804c3.905-3.905 10.237-3.905 14.143 0s3.904 10.238-.001 14.143z" fill="#fff5f5"/></svg>