<svg id="Capa_1" enable-background="new 0 0 512 512" height="512" viewBox="0 0 512 512" width="512" xmlns="http://www.w3.org/2000/svg"><path d="m501 256c0 135.31-109.69 245-245 245s-245-109.69-245-245 109.69-245 245-245 245 109.69 245 245z" fill="#63bcfa"/><path d="m105 100h-37.924c8.945-10.821 18.802-20.86 29.453-30h8.471c8.284 0 15 6.716 15 15s-6.716 15-15 15zm90 170h-160c-8.284 0-15 6.716-15 15s6.716 15 15 15h160c8.284 0 15-6.716 15-15s-6.716-15-15-15zm170-180h71.193c-10.114-10.973-21.218-21.021-33.169-30h-38.024c-8.284 0-15 6.716-15 15s6.716 15 15 15zm-70.424-40h-59.576c-8.284 0-15-6.716-15-15s-6.716-15-15-15h-15.026c-23.889 6.669-46.306 16.869-66.652 30h1.678c8.284 0 15 6.716 15 15s6.716 15 15 15h140c8.525 0 15.389-7.111 14.983-15.726-.38-8.067-7.33-14.274-15.407-14.274zm70.424 220c-8.284 0-15 6.716-15 15s6.716 15 15 15h132.06c1.779-9.809 2.974-19.821 3.547-30z" fill="#91cefb"/><path d="m462 345.87c0 33.36-13.559 65.378-37.813 88.283-6.51 6.148-13.358 11.944-20.511 17.356-16.584 12.546-36.514 15.283-56.009 23.325-20.781 8.573-41.3 22.118-64.494 24.677-6.015.664-12.096 1.11-18.235 1.33-2.966.106-13.779-11.673-16.771-11.673-12.443 0-16.836 10.906-28.781 9.116-31.894-4.779-61.778-15.706-88.406-31.537-7.709-4.583-13.146-10.577-20.279-15.952-6.372-4.801-14.502-8.906-20.368-14.293-.154-.141-.308-.283-.461-.424-25.562-23.596-39.872-56.962-39.872-91.748v-154.33h412z" fill="#8279c0"/><path d="m320 190-55.063 310.84c-2.966.106-5.945.16-8.937.16-12.442 0-24.667-.928-36.61-2.717l54.61-308.283zm-229.666 246.5c12.433 11.417 26.049 21.566 40.643 30.243l49.023-276.743h-46zm247.666-246.5-54.828 309.51c44.952-4.96 86.241-22.081 120.503-48.001l46.325-261.509z" fill="#b188c8"/><path d="m160 330h-50c-2.761 0-5-2.239-5-5v-10c0-2.761 2.239-5 5-5h50c2.761 0 5 2.239 5 5v10c0 2.761-2.239 5-5 5z" fill="#c1bbdf"/><path d="m28.807 171.653 206.192-116.145c13.038-7.344 28.965-7.344 42.003 0l206.192 116.145c4.794 2.701 2.877 10.009-2.625 10.009h-449.137c-5.503 0-7.42-7.309-2.625-10.009z" fill="#f52c2c"/><path d="m85.506 181.662h-54.074c-5.503 0-7.42-7.309-2.625-10.009l206.192-116.145c13.038-7.344 28.965-7.344 42.002 0l6.036 3.4-200.156 112.745c-4.795 2.701-2.878 10.009 2.625 10.009z" fill="#ab2538"/><path d="m50 190h40v246.193c-15.248-14.054-28.708-30.019-40-47.515z" fill="#6d4336"/><path d="m180 190h20v304.57c-6.779-1.585-13.45-3.452-20-5.587zm242 246.193c15.248-14.054 28.708-30.019 40-47.515v-198.678h-40z" fill="#a64b30"/><path d="m476 210v26c0 8.284-6.716 15-15 15h-10c-8.284 0-15-6.716-15-15 0 8.284-40 8.284-40 0 0 8.284-6.716 15-15 15h-10c-8.284 0-15-6.716-15-15 0 8.284-40 8.284-40 0 0 8.284-6.716 15-15 15h-10c-8.284 0-15-6.716-15-15 0 8.284-40 8.284-40 0 0 8.284-6.716 15-15 15h-10c-8.284 0-15-6.716-15-15 0 8.284-40 8.284-40 0 0 8.284-6.716 15-15 15h-10c-8.284 0-15-6.716-15-15 0 8.284-40 8.284-40 0 0 8.284-6.716 15-15 15h-10c-8.284 0-15-6.716-15-15v-26c0-5.523 4.477-10 10-10h420c5.523 0 10 4.477 10 10z" fill="#f52c2c"/><path d="m436 200v36c0 8.284-6.716 15-15 15h-10c-8.284 0-15-6.716-15-15v-36zm-120 36c0 8.284 6.716 15 15 15h10c8.284 0 15-6.716 15-15v-36h-40zm-80 0c0 8.284 6.716 15 15 15h10c8.284 0 15-6.716 15-15v-36h-40zm-80 0c0 8.284 6.716 15 15 15h10c8.284 0 15-6.716 15-15v-36h-40zm-80 0c0 8.284 6.716 15 15 15h10c8.284 0 15-6.716 15-15v-36h-40z" fill="#fded32"/><path d="m502 210h-492c-5.523 0-10-4.477-10-10v-20c0-5.523 4.477-10 10-10h492c5.523 0 10 4.477 10 10v20c0 5.523-4.477 10-10 10z" fill="#d98800"/><path d="m502 210h-422c-5.523 0-10-4.477-10-10v-20c0-5.523 4.477-10 10-10h422c5.523 0 10 4.477 10 10v20c0 5.523-4.477 10-10 10z" fill="#f4aa39"/><path d="m380 372.667v20c0 2.761-2.239 5-5 5h-39c-2.761 0-5-2.239-5-5v-20c0-2.761 2.239-5 5-5h39c2.761 0 5 2.238 5 5z" fill="#fded32"/><path d="m370 352.667v10c0 2.761-2.239 5-5 5h-29c-2.761 0-5-2.239-5-5v-10c0-2.761 2.239-5 5-5h29c2.761 0 5 2.238 5 5z" fill="#f52c2c"/><path d="m315 317.667h-20v-25c0-2.761-2.239-5-5-5h-30c-2.761 0-5 2.239-5 5v25h-20c-2.761 0-5 2.239-5 5v70c0 2.761 2.239 5 5 5h80c2.761 0 5-2.239 5-5v-70c0-2.762-2.239-5-5-5zm-30 0h-20v-20h20z" fill="#f7e6b0"/><path d="m251 397.667h-16c-2.761 0-5-2.239-5-5v-70c0-2.761 2.239-5 5-5h16c-2.761 0-5 2.239-5 5v70c0 2.761 2.239 5 5 5z" fill="#f3d373"/><path d="m470 397.667v10c0 5.523-4.477 10-10 10h-280c-5.523 0-10-4.477-10-10v-10c0-5.523 4.477-10 10-10h280c5.523 0 10 4.477 10 10z" fill="#d98800"/><path d="m470 397.667v10c0 5.523-4.477 10-10 10h-245c-5.523 0-10-4.477-10-10v-10c0-5.523 4.477-10 10-10h245c5.523 0 10 4.477 10 10z" fill="#f4aa39"/><path d="m320 190h-128c-8.284 0-15-6.716-15-15v-30c0-8.284 6.716-15 15-15h128c8.284 0 15 6.716 15 15v30c0 8.284-6.716 15-15 15z" fill="#f3d373"/><path d="m320 190h-95c-8.284 0-15-6.716-15-15v-30c0-8.284 6.716-15 15-15h95c8.284 0 15 6.716 15 15v30c0 8.284-6.716 15-15 15z" fill="#f7e6b0"/></svg>