<svg id="Capa_1" enable-background="new 0 0 501 501" height="512" viewBox="0 0 501 501" width="512" xmlns="http://www.w3.org/2000/svg"><path d="m211.007 491.378c-112.383-20.86-197.826-118.43-199.966-236.345-2.473-136.274 105.552-247.817 241.839-249.514 56.585-.704 108.827 17.777 150.631 49.347 3.149 2.378 3.807 6.829 1.548 10.064-27.723 39.704-43.984 88.003-43.984 140.101 0 73.973 32.783 140.289 84.614 185.211 4.06 3.519 4.607 9.621 1.237 13.805-35.963 44.661-87.275 76.44-145.925 87.329-.919.171-31.173-2.915-45.871-2.731-13.372.166-42.494 3.035-44.123 2.733z" fill="#ecb700"/><path d="m100 404.5h-80c-11.046 0-20-8.954-20-20v-310c0-11.046 8.954-20 20-20h80c11.046 0 20 8.954 20 20v310c0 11.046-8.954 20-20 20z" fill="#5b3374"/><path d="m211 394.5h90v96.876c-14.587 2.708-29.628 4.124-45 4.124s-30.413-1.416-45-4.124z" fill="#5b3374"/><path d="m472.648 363.843c.276.073.416.377.283.629-7.49 14.227-16.338 27.627-26.372 40.027h-396.559c-11.046 0-20-8.954-20-20v-310c0-11.046 8.954-20 20-20h353.023c15.553 11.685 29.669 25.178 42.038 40.167 8.172 9.903 12.688 22.315 12.688 35.154v214.68c.001 9.283 6.325 17.088 14.899 19.343z" fill="#6354b0"/><path d="m501 250.5c0 41.159-10.15 79.948-28.083 114h-161.917c-16.569 0-30-13.432-30-30 0 .468-.011.934-.032 1.397-.452 9.858-15.301 9.343-15.301-.526v-211.743c0-9.868 14.849-10.383 15.301-.526.021.463.032.929.032 1.397 0-16.568 13.431-30 30-30h133.924c35.028 42.374 56.076 96.729 56.076 156.001z" fill="#63bcfa"/><path d="m251 364.5h-187c-8.284 0-15-6.716-15-15v-240c0-8.284 6.716-15 15-15h187c16.569 0 30 13.431 30 30v210c0 16.568-13.431 30-30 30z" fill="#e3f0fb"/><path d="m230 180.081c0 20.856-9.907 35.086-23.787 40.31l-5.342 107.353c-.188 3.785-3.312 6.757-7.101 6.757h-.014c-3.789 0-6.913-2.972-7.101-6.757l-5.342-107.353c-13.88-5.224-23.787-19.454-23.787-40.31 0-16.931 6.529-41.276 16.412-52.195.465-.513 1.32-.194 1.344.499l1.899 55.071c.089 2.582 2.334 4.595 4.969 4.335 2.274-.225 3.969-2.222 4.059-4.505l1.624-41.129c.218-5.523 2.063-10.858 5.304-15.336.309-.426.944-.426 1.253 0 3.24 4.478 5.086 9.813 5.304 15.336l1.631 41.322c.102 2.579 2.353 4.582 4.987 4.311 2.274-.234 3.961-2.239 4.04-4.524l1.893-54.88c.024-.692.879-1.012 1.344-.499 9.882 10.918 16.411 35.262 16.411 52.194zm-140.217-53.581h-.026c-1.421 0-2.572 1.151-2.572 2.572v105.601c.038.002.076.004.113.007l.546 92.752c.023 3.911 3.199 7.068 7.11 7.068 3.67 0 6.737-2.793 7.079-6.447l9.338-99.719c4.658-3.126 8.679-7.349 11.806-12.565l-3.644-3.644c-.974-.974-.284-2.64 1.094-2.64h5.678c.558-1.371 1.064-2.793 1.514-4.264l-4.694-4.694c-.974-.974-.284-2.64 1.094-2.64h5.303c.555-3.386.847-6.978.847-10.765-.001-29.894-18.172-60.622-40.586-60.622z" fill="#0280e3"/><path d="m130.368 187.122c0 3.787-.292 7.379-.847 10.765h-1.57c-2.755 0-4.135 3.332-2.187 5.28l2.055 2.054c-.45 1.471-.956 2.893-1.514 4.264h-1.945c-2.756 0-4.135 3.332-2.187 5.28l1.003 1.003c-3.127 5.216-7.148 9.438-11.806 12.565l-4.698 50.167c-.328 3.5-5.51 3.274-5.53-.242l-.256-43.579c-.038-.002-.076-.004-.113-.007v-105.565c.039-.025.051-.033.09-.058 17.029 7.959 29.505 33.303 29.505 58.073zm83.225-59.229c-.468-.517-1.326-.205-1.35.492l-1.899 55.071c-.084 2.43-2.079 4.357-4.511 4.357-2.423 0-4.414-1.914-4.51-4.335l-1.631-41.322c-.218-5.523-2.063-10.858-5.304-15.336-.309-.426-.944-.426-1.253 0-3.24 4.478-5.086 9.813-5.304 15.336l-1.631 41.322c-.095 2.421-2.086 4.335-4.51 4.335-2.432 0-4.427-1.927-4.511-4.357l-1.896-54.98c-6.212 10.08-10.027 23.198-10.027 36.141 0 26.69 16.224 42.528 36.237 42.528 10.558 0 20.061-4.408 26.684-12.491 1.181-4.404 1.821-9.274 1.821-14.572.002-16.929-6.524-41.268-16.405-52.189zm216.407-.893c0 4.142-3.358 7.5-7.5 7.5h-115c-4.142 0-7.5-3.358-7.5-7.5s3.358-7.5 7.5-7.5h115c4.142 0 7.5 3.358 7.5 7.5zm-77.5 182.5h-45c-4.142 0-7.5 3.357-7.5 7.5 0 4.142 3.358 7.5 7.5 7.5h45c4.142 0 7.5-3.358 7.5-7.5 0-4.143-3.358-7.5-7.5-7.5zm0-30h-45c-4.142 0-7.5 3.357-7.5 7.5 0 4.142 3.358 7.5 7.5 7.5h45c4.142 0 7.5-3.358 7.5-7.5 0-4.143-3.358-7.5-7.5-7.5zm-45-100h85c4.142 0 7.5-3.358 7.5-7.5s-3.358-7.5-7.5-7.5h-85c-4.142 0-7.5 3.358-7.5 7.5s3.358 7.5 7.5 7.5zm85 70h-85c-4.142 0-7.5 3.358-7.5 7.5s3.358 7.5 7.5 7.5h85c4.142 0 7.5-3.358 7.5-7.5s-3.358-7.5-7.5-7.5zm30-55h-115c-4.142 0-7.5 3.357-7.5 7.5 0 4.142 3.358 7.5 7.5 7.5h115c4.142 0 7.5-3.358 7.5-7.5 0-4.143-3.358-7.5-7.5-7.5zm25-15h43.054c-1.533-5.071-3.226-10.073-5.073-15h-37.981c-4.142 0-7.5 3.358-7.5 7.5s3.358 7.5 7.5 7.5zm-7.5 137.5c0 4.142 3.358 7.5 7.5 7.5h42.126c1.562-4.934 2.971-9.936 4.223-15h-46.349c-4.142 0-7.5 3.358-7.5 7.5zm0-30c0 4.142 3.358 7.5 7.5 7.5h49.56c.898-4.95 1.646-9.951 2.242-15h-51.802c-4.142 0-7.5 3.358-7.5 7.5zm20-85c0 4.142 3.358 7.5 7.5 7.5h30.084c-.852-5.055-1.858-10.056-3.014-15h-27.07c-4.142 0-7.5 3.357-7.5 7.5zm40.998 47.5h-53.498c-4.142 0-7.5 3.358-7.5 7.5s3.358 7.5 7.5 7.5h53.106c.261-4.633.394-9.301.394-14 0-.334-.001-.667-.002-1z" fill="#0191f8"/><path d="m425.42 362.851-12.544 33.534c-1.608 4.299-7.675 4.341-9.342.064l-33.18-85.121c-1.581-4.057 2.418-8.056 6.475-6.475l85.121 33.18c4.277 1.667 4.235 7.733-.064 9.342l-33.534 12.544c-1.356.508-2.425 1.577-2.932 2.932z" fill="#fff5f5"/><path d="m417.833 383.133-4.957 13.251c-1.608 4.299-7.674 4.341-9.342.064l-33.18-85.121c-1.581-4.057 2.418-8.056 6.474-6.475z" fill="#e3f0fb"/></svg>