<svg id="Capa_1" enable-background="new 0 0 501 501" height="512" viewBox="0 0 501 501" width="512" xmlns="http://www.w3.org/2000/svg"><path d="m490 256c0 135.31-109.69 245-245 245-51.326 0-98.966-15.783-138.331-42.761-.911-.624-90.533-114.604-90.978-115.782-10.142-26.885-15.691-56.023-15.691-86.457 0-135.31 109.69-245 245-245s245 109.69 245 245z" fill="#08b772"/><path d="m319 55c0 8.284-6.716 15-15 15h-85c-8.284 0-15 6.716-15 15s6.716 15 15 15h35c8.284 0 15 6.716 15 15s-6.716 15-15 15h-5c-8.284 0-15 6.716-15 15s6.716 15 15 15h-50c8.284 0 15-6.716 15-15s-6.716-15-15-15h-105c-8.284 0-15-6.716-15-15s6.716-15 15-15h75c8.284 0 15-6.716 15-15s-6.716-15-15-15h-15c-8.284 0-15-6.716-15-15s6.716-15 15-15h150c8.284 0 15 6.716 15 15zm41.725-15h-6.725c-8.284 0-15 6.716-15 15s6.716 15 15 15h50.471c-13.403-11.502-28.063-21.58-43.746-30z" fill="#04d481"/><path d="m347.949 123.556 133.084-120.466c4.721-4.274 11.965-4.094 16.468.41 4.503 4.503 4.683 11.746.409 16.468l-120.466 133.083c10.303 22.687 5.181 51.361-19.595 76.137-31.685 31.685-83.516 44.996-107.274 21.237s-10.448-75.589 21.237-107.274c24.776-24.777 53.451-29.898 76.137-19.595z" fill="#5b3374"/><path d="m271.417 143c9.071-9.071 19.06-15.357 28.692-19.367 12.384 1.656 23.819 7.377 33.081 16.639 23.759 23.759 24.217 61.82-7.468 93.505-13.145 13.145-29.757 23.127-46.394 28.612-11.324-.797-21.388-4.6-28.753-11.965-23.758-23.758-10.843-75.739 20.842-107.424z" fill="#6354b0"/><path d="m500.983 165.725c-.38 8.068-7.33 14.275-15.407 14.275h-2.623c-.201 99.447-76.411 180-170.393 180s-170.192-80.553-170.393-180h-5.744c-8.077 0-15.027-6.207-15.407-14.275-.405-8.614 6.459-15.725 14.984-15.725h223c16.352 4.579 33.647 4.579 49.999 0h.001 77c8.525 0 15.389 7.111 14.983 15.725z" fill="#f7e6b0"/><path d="m500.983 165.725c-.38 8.068-7.33 14.275-15.407 14.275h-2.623c-.175 86.69-58.108 159.02-135.223 176.152-67.175-14.984-120.409-72.199-132.755-144.419-1.047-6.126 3.64-11.734 9.855-11.734h204.17c5.743 0 10.355-4.841 9.978-10.665-.344-5.315-4.995-9.335-10.321-9.335h-224.657c-8.525 0-15.389-7.111-14.983-15.725.38-8.068 7.33-14.275 15.407-14.275l154.576.001 2.527.576c15.647 3.565 31.917 3.368 47.473-.576h77c8.525 0 15.389 7.111 14.983 15.725z" fill="#fff5f5"/><path d="m409 150v70c0 8.077-6.207 15.027-14.275 15.407-8.614.406-15.725-6.458-15.725-14.983v-24.886c0-3.043-2.452-5.448-5.493-5.545-.066-.002-.132-.005-.198-.008-8.082-.363-14.308-7.321-14.308-15.411v-24.574zm-15 100c-8.284 0-15 6.716-15 15s6.716 15 15 15 15-6.716 15-15-6.716-15-15-15z" fill="#fd9d01"/><path d="m409 170c5.523 0 10 4.477 10 10s-4.477 10-10 10-10-4.477-10-10 4.477-10 10-10zm-40-20c0 5.523 4.477 10 10 10s10-4.477 10-10-4.477-10-10-10-10 4.477-10 10z" fill="#e55920"/><path d="m289 60c5.523 0 10 4.477 10 10s-4.477 10-10 10-10-4.477-10-10 4.477-10 10-10zm-70 40c0 5.523 4.477 10 10 10s10-4.477 10-10-4.477-10-10-10-10 4.477-10 10zm30 30c0 5.523 4.477 10 10 10s10-4.477 10-10-4.477-10-10-10-10 4.477-10 10z" fill="#006e42"/><path d="m344.539 379.904h-189.815l-65.338 65.338c-26.939-22.177-49.06-49.995-64.557-81.646l107.093-107.093c11.252-11.252 26.513-17.573 42.426-17.573h155.603c10.381 0 18.796 8.415 18.796 18.796 0 10.381-8.415 18.796-18.796 18.796h-129.759c-7.064 0-12.629 6.021-12.073 13.063.497 6.299 5.754 11.158 12.073 11.158h186.726c9.315 0 18.502-2.169 26.833-6.334l16.173-8.087c5.524-2.762 12.011-2.829 17.591-.183 10.482 4.971 14.586 17.763 8.952 27.905-22.583 40.65-65.428 65.86-111.928 65.86z" fill="#e3ac6e"/><path d="m344.539 379.904h-185.673c-2.652 0-5.196 1.054-7.071 2.929l-62.409 62.409c-9.814-8.079-18.988-16.907-27.436-26.396l71.192-71.192c3.751-3.751 8.838-5.858 14.142-5.858h197.255c42.048 0 81.107-20.614 104.898-54.615 9.043 5.547 12.306 17.368 7.03 26.864-22.583 40.649-65.428 65.859-111.928 65.859z" fill="#d89c56"/><path d="m349 253.931c0 8.284-6.716 15-15 15h-10c-8.284 0-15-6.716-15-15 0-8.285 6.716-15 15-15h10c8.284 0 15 6.715 15 15z" fill="#f3d6ac"/><path d="m147.921 402.845c3.905 3.905 3.905 10.237 0 14.142l-41.252 41.252c-41.07-28.146-73.134-68.478-90.978-115.783l28.85-28.85c3.905-3.905 10.237-3.905 14.142 0z" fill="#f52c2c"/><path d="m147.921 402.845c3.905 3.905 3.905 10.237 0 14.143l-41.252 41.252c-16.466-11.284-31.484-24.527-44.718-39.394l50.986-50.985z" fill="#ab2538"/></svg>