<svg id="Capa_1" enable-background="new 0 0 501 501" height="512" viewBox="0 0 501 501" width="512" xmlns="http://www.w3.org/2000/svg"><path d="m58.988 408.816c-33.999-42.553-54.112-96.686-53.473-155.536 1.453-133.971 111.34-242.459 245.319-242.28 135.156.181 244.666 109.802 244.666 245 0 10.695-.685 21.23-2.014 31.564-9.762 75.891-74.909 132.436-151.425 132.436h-259.8c-9.053 0-17.622-4.112-23.273-11.184z" fill="#05a2f9"/><path d="m354.5 125c0-8.284 6.716-15 15-15h30c8.284 0 15 6.716 15 15s-6.716 15-15 15h-30c-8.284 0-15-6.716-15-15zm75 130.888h66c-.005-10.156-.627-20.168-1.832-30h-14.168c-8.284 0-15-6.716-15-15 0-8.285 6.716-15 15-15h8.571c-2.591-10.273-5.832-20.289-9.675-30h-98.896c-8.284 0-15 6.715-15 15 0 8.284 6.716 15 15 15h50c8.284 0 15 6.715 15 15 0 8.284-6.716 15-15 15h-70c-8.284 0-15 6.715-15 15 0 8.284 6.716 15 15 15h20c8.284 0 15 6.715 15 15 0 8.284-6.716 15-15 15h50c-8.284 0-15-6.716-15-15 0-8.285 6.716-15 15-15z" fill="#49b4fa"/><path d="m329.539 167.346-34.831 301.654s-147.895 14.611-188.339-14.86c-18.264-13.309-34.618-29.081-48.573-46.829l-27.708-239.965 1.412-9.325c0-50.982 42.128-92.311 94.096-92.311h107.539c51.968 0 94.096 41.329 94.096 92.311z" fill="#75ccd4"/><path d="m329.539 167.346-16.978 147.039c-6.292 54.493-52.435 95.615-107.291 95.615-54.856 0-100.999-41.122-107.291-95.616l-16.979-147.038 4.269-9.325c0-50.982 42.128-92.311 94.096-92.311h54.666c51.968 0 94.096 41.329 94.096 92.311z" fill="#91cefb"/><path d="m290.147 8.792v8.792c0 4.855-3.936 8.792-8.792 8.792h-87.915v43.624c0 4.855-3.936 8.792-8.792 8.792h-8.792c-4.855 0-8.792-3.937-8.792-8.792v-61.208c0-4.855 3.936-8.792 8.792-8.792h105.498c4.857 0 8.793 3.936 8.793 8.792z" fill="#5b3374"/><path d="m167.066 250v-184.29h26.375v184.29c0 5.285-3.936 9.569-8.792 9.569h-8.792c-4.855 0-8.791-4.284-8.791-9.569z" fill="#8279c0"/><path d="m334.696 180.974h-311.404c-6.789 0-12.292-5.503-12.292-12.292v-16.39c0-6.789 5.503-12.292 12.292-12.292h311.404c6.789 0 12.292 5.503 12.292 12.292v16.39c0 6.789-5.503 12.292-12.292 12.292z" fill="#bbe0fb"/><path d="m335.515 180.974h-254.859c-6.789 0-12.292-5.503-12.292-12.292v-16.39c0-6.789 5.503-12.292 12.292-12.292h254.859c6.789 0 12.292 5.503 12.292 12.292v16.39c.001 6.789-5.503 12.292-12.292 12.292z" fill="#e3f0fb"/><path d="m274.34 241.147-25.47 220.577-.408 3.535c-2.427 21.021-22.182 35.476-42.987 31.612-36.526-6.785-70.206-21.673-99.103-42.728l-24.593-212.996c-.686-5.938 3.956-11.147 9.934-11.147h172.693c5.977 0 10.619 5.209 9.934 11.147z" fill="#fc6930"/><path d="m274.34 241.147-15.42 133.545c-5.066 43.873-52.563 69.019-91.699 48.554-.577-.302-1.153-.606-1.728-.912-18.086-9.643-30.128-27.724-32.479-48.084l-16.656-144.25h47.936c3.578-5.422 9.724-9 16.706-9 5.148 0 9.842 1.945 13.387 5.141 5.005-9.592 15.044-16.141 26.613-16.141 13.062 0 24.174 8.348 28.293 20h15.113c5.977 0 10.619 5.209 9.934 11.147z" fill="#fd9d01"/><path d="m250.5 501c-15.637 0-30.932-1.465-45.755-4.265-16.674-3.15-29.502-17.083-30.209-34.037-.023-.563-.035-1.129-.035-1.697v-131.001h-3c-8.525 0-15.389-7.111-14.983-15.725.38-8.068 7.33-14.275 15.407-14.275h4.576v-5c0-8.284 6.716-15 15-15h302.839c-12.061 124.046-116.628 221-243.84 221z" fill="#ab2538"/><path d="m224.5 461c0 20.734 15.777 37.784 35.98 39.8 40.064-1.605 77.652-12.832 110.517-31.431-3.795-1.42-6.498-5.079-6.498-9.369v-79.658c0-5.326 4.019-9.977 9.335-10.321 5.824-.377 10.665 4.235 10.665 9.978v80c0 .402-.024.797-.07 1.187 6.943-4.541 13.641-9.425 20.07-14.627v-66.217c0-5.326 4.019-9.977 9.335-10.321 5.824-.377 10.665 4.235 10.665 9.978v48.479c7.124-7.186 13.805-14.811 20-22.83v-25.326c0-5.257 3.922-9.861 9.161-10.288 4.647-.379 8.697 2.423 10.208 6.463 4.826-8.528 9.156-17.373 12.95-26.498h-237.318c-8.284 0-15 6.716-15 15zm100-81c0-5.523 4.477-10 10-10s10 4.477 10 10v80c0 5.523-4.477 10-10 10s-10-4.477-10-10zm-40 0c0-5.523 4.477-10 10-10s10 4.477 10 10v80c0 5.523-4.477 10-10 10s-10-4.477-10-10zm-40 0c0-5.523 4.477-10 10-10s10 4.477 10 10v80c0 5.523-4.477 10-10 10s-10-4.477-10-10zm247.06-80c-1.856 10.235-4.348 20.25-7.434 30h-264.626c-8.284 0-15-6.716-15-15s6.716-15 15-15z" fill="#f52c2c"/></svg>