<svg id="Capa_1" enable-background="new 0 0 512 512" height="512" viewBox="0 0 512 512" width="512" xmlns="http://www.w3.org/2000/svg"><path d="m190.415 492.123c-103.464-28.676-179.415-123.53-179.415-236.123 0-135.31 109.69-245 245-245s245 109.69 245 245c0 98.926-58.632 184.159-143.042 222.842-.376.173-40.32-6.842-60.958-6.842-35.942 0-104.675 20.652-106.585 20.123z" fill="#49b4fa"/><path d="m170 270v-170c0-16.569 13.431-30 30-30h282c16.569 0 30 13.431 30 30v170c0 16.569-13.431 30-30 30h-282c-16.569 0-30-13.431-30-30z" fill="#f1ca50"/><path d="m512 100v170c0 16.568-13.431 30-30 30h-55.307l-66.544 66.544c-2.213 2.213-5.214 3.456-8.343 3.456-7.676 0-13.309-7.214-11.447-14.661l13.834-55.339h-114.193c-16.569 0-30-13.432-30-30v-170c0-16.568 13.431-30 30-30h242c16.569 0 30 13.432 30 30z" fill="#fded32"/><path d="m200 130c0-5.523 4.477-10 10-10h100c5.523 0 10 4.477 10 10s-4.477 10-10 10h-100c-5.523 0-10-4.477-10-10zm110 70h-100c-5.523 0-10 4.477-10 10s4.477 10 10 10h100c5.523 0 10-4.477 10-10s-4.477-10-10-10zm-100-20h81.538c5.523 0 10-4.477 10-10s-4.477-10-10-10h-81.538c-5.523 0-10 4.477-10 10s4.477 10 10 10zm0 70c-5.523 0-10 4.477-10 10s4.477 10 10 10 10-4.477 10-10-4.477-10-10-10zm60 0c-5.523 0-10 4.477-10 10s4.477 10 10 10 10-4.477 10-10-4.477-10-10-10zm-30 0c-5.523 0-10 4.477-10 10s4.477 10 10 10 10-4.477 10-10-4.477-10-10-10z" fill="#ecb700"/><path d="m460.201 117.243c-26.397-26.397-69.196-26.397-95.593 0-24.141 24.141-26.491 62.495-5.477 89.402l50.368 64.494c1.476 1.889 4.334 1.889 5.81 0l50.368-64.494c21.015-26.908 18.666-65.261-5.476-89.402zm-47.796 80.571c-19.81 0-35.87-16.059-35.87-35.87s16.059-35.87 35.87-35.87c19.81 0 35.87 16.059 35.87 35.87s-16.06 35.87-35.87 35.87zm20-35.814c0 11.046-8.954 20-20 20s-20-8.954-20-20 8.954-20 20-20 20 8.954 20 20z" fill="#ab2538"/><path d="m460.201 117.243c-26.397-26.397-69.196-26.397-95.593 0-2.227 2.227-4.268 4.575-6.123 7.023-.711 4.287-1.08 8.69-1.08 13.178 0 44.183 35.817 80 80 80 7.739 0 15.22-1.099 22.298-3.149l5.975-7.651c21.014-26.907 18.665-65.26-5.477-89.401zm-47.796 80.571c-19.81 0-35.87-16.059-35.87-35.87s16.059-35.87 35.87-35.87c19.81 0 35.87 16.06 35.87 35.87s-16.06 35.87-35.87 35.87z" fill="#f52c2c"/><path d="m350.519 482.103c-29.085 12.172-61.017 18.897-94.519 18.897-22.716 0-44.711-3.092-65.585-8.877-35.457-46.547-69.454-97.491-101.008-152.145-7.688-13.316-15.113-26.648-22.273-39.978-23.143-43.084-43.521-86.15-61.081-128.612-15.13-36.583-1.059-78.71 32.893-99.072 13.317-7.986 26.757-15.896 40.32-23.727 5.116-2.954 10.234-5.887 15.353-8.8 29.331 38.209 47.049 85.973 75.398 129.719-18.543 10.838-29.331 17.316-44.757 26.586-6.995 4.204-10.71 12.233-9.457 20.297 4.478 28.812 13.74 57.013 28.111 83.609 1.165 2.155 2.363 4.301 3.595 6.435 16.478 28.54 37.689 52.846 62.329 72.642 6.287 5.051 15.043 5.708 22.097 1.799 15.744-8.725 26.749-14.83 45.408-25.471 23.094 45.217 54.532 83.607 73.176 126.698z" fill="#f52c2c"/><path d="m230.114 499.648c-13.595-1.428-26.859-3.967-39.699-7.525-35.457-46.547-69.454-97.491-101.008-152.145-7.688-13.316-15.113-26.648-22.273-39.978-23.143-43.084-43.521-86.15-61.081-128.612-15.129-36.583-1.059-78.71 32.893-99.072.23-.138.459-.275.689-.413-11.644 24.357-13.161 53.228-2.201 79.73 21.569 52.154 46.597 105.048 75.022 157.966 8.795 16.373 17.914 32.747 27.357 49.103 28.625 49.582 58.888 96.676 90.301 140.946z" fill="#ab2538"/><path d="m170.016 169.509c-14.054 8.114-42.239-14.395-62.954-50.273-20.715-35.88-26.115-71.543-12.061-79.657s42.239 14.395 62.954 50.273c20.714 35.879 26.114 71.543 12.061 79.657zm107.311 185.868c-14.054 8.114-8.643 43.795 12.085 79.697 15.753 27.285 35.819 46.845 50.713 51.1 6.06-2.215 12.008-4.663 17.833-7.333 6.154-13.922-.513-43.461-17.654-73.15-20.727-35.901-48.923-58.427-62.977-50.314z" fill="#fc6930"/><path d="m122.508 87.224c-4.783 2.761-10.899 1.123-13.66-3.66s-1.123-10.899 3.66-13.661c4.783-2.761 10.899-1.123 13.66 3.661 2.762 4.782 1.123 10.898-3.66 13.66zm20 34.64c-4.783 2.762-6.422 8.877-3.66 13.661 2.761 4.783 8.877 6.421 13.66 3.66s6.422-8.877 3.66-13.66c-2.761-4.783-8.877-6.422-13.66-3.661zm-1.339-22.32c-2.761-4.783-8.877-6.422-13.66-3.66-4.783 2.761-6.422 8.877-3.66 13.66 2.761 4.783 8.877 6.422 13.66 3.66 4.782-2.761 6.421-8.877 3.66-13.66zm167.35 289.424c-2.761-4.783-8.877-6.421-13.66-3.66s-6.422 8.877-3.66 13.66c2.761 4.783 8.877 6.422 13.66 3.66 4.782-2.761 6.421-8.877 3.66-13.66zm30 51.962c-2.761-4.783-8.877-6.421-13.66-3.66-4.783 2.762-6.422 8.877-3.66 13.66 2.761 4.783 8.877 6.422 13.66 3.661 4.782-2.762 6.421-8.878 3.66-13.661zm-15-25.981c-2.761-4.783-8.877-6.422-13.66-3.66-4.783 2.761-6.422 8.877-3.66 13.66 2.761 4.783 8.877 6.421 13.66 3.66 4.782-2.761 6.421-8.877 3.66-13.66z" fill="#ab2538"/></svg>