<svg id="Capa_1" enable-background="new 0 0 501 501" height="512" viewBox="0 0 501 501" width="512" xmlns="http://www.w3.org/2000/svg"><path d="m490 256.003c-.002 124.282-92.542 226.949-212.476 242.857-5.525.733-10.274-3.897-9.725-9.443.795-8.03 1.201-16.174 1.202-24.414.002-135.317-110.333-245.354-245.649-245.002-1.386.004-2.769.019-4.149.045-8.818.169-15.432-8.001-13.548-16.617 24.081-110.143 122.254-192.574 239.655-192.429 135.146.167 244.692 109.857 244.69 245.003z" fill="#5b3374"/><path d="m371.657 382.657c-1.074 1.074-2.154 2.128-3.239 3.164-107.546 102.596-265.244-52.727-164.455-161.968 1.458-1.581 2.91-3.095 4.353-4.538 85.598-85.598 183.257-135.841 252.45-136.321.958.867 1.896 1.759 2.815 2.678 56.625 56.626 15.47 189.59-91.924 296.985z" fill="#f19b0b"/><path d="m401.947 146.949c-.538-3.764 2.395-7.135 6.197-7.135h86.595c3.802 0 6.735 3.37 6.197 7.135-3.462 24.235-24.303 42.865-49.495 42.865s-46.032-18.631-49.494-42.865z" fill="#ab2538"/><path d="m401.933 146.84c-.467-3.72 2.445-7.026 6.211-7.026h86.595c3.766 0 6.678 3.306 6.211 7.026-11.453 14.771-29.37 24.279-49.509 24.279-20.138.001-38.055-9.507-49.508-24.279z" fill="#f52c2c"/><path d="m474.391 147.673c-3.661-3.661-8.113-5.145-9.944-3.314s-.347 6.282 3.314 9.944 8.113 5.145 9.944 3.314c1.832-1.831.348-6.283-3.314-9.944z" fill="#ab2538"/><path d="m460.431 35.118c15.621 15.621 9.289 47.279-14.142 70.711-23.431 23.431-55.09 29.763-70.711 14.142s-9.289-47.279 14.142-70.711c23.432-23.431 55.09-29.763 70.711-14.142zm-127.05 224.497c-31.425-10.514-62.582-2.054-69.591 18.896s12.784 46.456 44.208 56.97 62.582 2.054 69.591-18.896c7.01-20.949-12.783-46.456-44.208-56.97z" fill="#06995f"/><path d="m439.107 53.668c1.824-1.194 3.968.951 2.775 2.775-5.159 7.881-12.081 16.377-20.341 24.638s-16.757 15.183-24.638 20.342c-1.824 1.194-3.968-.951-2.775-2.775 5.159-7.881 12.081-16.377 20.341-24.638s16.757-15.184 24.638-20.342zm-87.633 252.111c1.882 1.099.92 3.976-1.245 3.721-9.355-1.1-20.047-3.504-31.126-7.21-11.079-3.707-21.065-8.221-29.198-12.972-1.882-1.099-.92-3.976 1.245-3.721 9.355 1.1 20.047 3.504 31.126 7.21 11.079 3.707 21.065 8.221 29.198 12.972z" fill="#006e42"/><path d="m469 184.874c0 22.091-20.147 40-45 40-2.652 0-5.25-.205-7.777-.596 1.795 4.859 2.777 10.113 2.777 15.596 0 24.853-20.147 45-45 45s-45-20.147-45-45 20.147-45 45-45c2.228 0 4.418.163 6.559.475-1.016-3.339-1.559-6.851-1.559-10.475 0-9.354 3.613-17.958 9.665-24.771-7.248-7.988-11.665-18.593-11.665-30.229 0-24.853 20.147-45 45-45s45 20.147 45 45c0 10.592-3.66 20.328-9.783 28.015 7.318 7.114 11.783 16.586 11.783 26.985z" fill="#08b772"/><path d="m349.362 207.413 28.713 83.622c1.16 3.379-1.495 6.85-5.06 6.613l-78.732-5.23c-3.792-.252-5.928-4.475-3.884-7.678l50.018-78.393c2.253-3.529 7.586-2.894 8.945 1.066zm37.321-115.837 77.906 71.316c3.148 2.882 2.345 8.04-1.53 9.829l-85.582 39.504c-4.122 1.903-8.776-1.307-8.462-5.836l7.676-110.82c.346-4.989 6.303-7.37 9.992-3.993z" fill="#fde803"/><path d="m357.064 212.009c-.538-3.764 2.395-7.135 6.197-7.135h86.595c3.803 0 6.735 3.37 6.197 7.135-3.462 24.235-24.303 42.865-49.495 42.865-25.191 0-46.031-18.631-49.494-42.865z" fill="#ab2538"/><path d="m357.05 211.9c-.467-3.72 2.445-7.026 6.211-7.026h86.595c3.766 0 6.678 3.306 6.211 7.026-11.453 14.771-29.37 24.279-49.509 24.279-20.137 0-38.055-9.508-49.508-24.279z" fill="#f52c2c"/><path d="m411.246 220.526c0 5.178-2.099 9.375-4.688 9.375s-4.688-4.197-4.688-9.375c0-5.177 2.099-9.375 4.688-9.375s4.688 4.198 4.688 9.375zm18.263-7.793c-3.661-3.661-8.113-5.145-9.944-3.315s-.347 6.282 3.314 9.944 8.113 5.145 9.944 3.315.347-6.283-3.314-9.944z" fill="#ab2538"/><path d="m407.455 25.419c56.626 56.626 15.47 189.591-91.924 296.985-44.74 44.74-93.917 77.983-140.164 97.451-74.808-41.938-125.366-121.992-125.366-213.855 0-5.594.188-11.144.557-16.644 16.681-24.512 36.757-48.857 59.913-72.012 107.393-107.395 240.358-148.551 296.984-91.925z" fill="#d98800"/><path d="m407.455 25.419c56.626 56.626 15.47 189.591-91.924 296.985-35.069 35.069-72.865 63.075-109.839 82.919-62.358-31.139-109.575-88.088-127.655-156.852 20.303-30.137 45.206-60.463 74.152-89.409 85.599-85.598 183.257-135.841 252.451-136.32.958.867 1.896 1.759 2.815 2.677z" fill="#f4aa39"/><path d="m328.966 243.916c5.858 5.858 5.858 15.355 0 21.213s-15.355 5.858-21.213 0l-134.35-134.35c-5.858-5.858-5.858-15.355 0-21.213 5.858-5.858 15.355-5.858 21.213 0zm-63.64-162.635c-5.858-5.858-15.355-5.858-21.213 0-5.858 5.858-5.858 15.355 0 21.213l91.924 91.924c5.858 5.858 15.355 5.858 21.213 0 5.858-5.858 5.858-15.355 0-21.213zm127.279 28.284-63.639-63.64c-5.858-5.858-15.355-5.858-21.213 0s-5.858 15.355 0 21.213l63.639 63.64c5.858 5.858 15.355 5.858 21.213 0 5.858-5.858 5.858-15.355 0-21.213z" fill="#e55920"/><path d="m370.688 361.774 14.898 14.898c3.905 3.905 3.905 10.237 0 14.142l-108.042 108.043c-10.921 1.449-22.069 2.18-33.395 2.141-137.708-.468-247.307-113.179-244.08-250.85.377-16.076 2.302-31.769 5.633-46.936l96.141-96.141c3.905-3.905 10.237-3.905 14.142 0l17.165 17.165c.75.75 1.172 1.768 1.172 2.828v42.62h42.62c1.061 0 2.078.421 2.828 1.172l17.02 17.02c.75.75 1.172 1.768 1.172 2.828v42.62h42.62c1.061 0 2.078.421 2.828 1.172l17.02 17.02c.75.75 1.172 1.768 1.172 2.828v42.62h42.62c1.061 0 2.078.421 2.828 1.172l17.02 17.02c.75.75 1.172 1.768 1.172 2.828v42.62h42.62c1.059-.001 2.076.42 2.826 1.17z" fill="#fdf061"/><path d="m132.821 123.906-132.819 132.819c-.053-18.377 1.917-36.284 5.7-53.512l96.141-96.141c3.905-3.905 10.237-3.905 14.142 0zm127.608 127.609-8.51-8.51-183.171 183.171c7.842 8.121 16.241 15.701 25.134 22.679l167.719-167.719v-26.792c0-1.061-.422-2.079-1.172-2.829zm-246.432 86.306 166.369-166.37-1.768-1.768h-44.277l-130.37 130.372c2.356 12.973 5.733 25.591 10.046 37.766zm183.964-104.497v-31.82l-169.4 169.4c5.455 10.253 11.616 20.072 18.419 29.393l166.972-166.973zm106.259 63.639h-10.8l-171.135 171.135c10.277 5.959 21.028 11.193 32.181 15.631l169.088-169.089-16.506-16.506c-.749-.749-1.767-1.171-2.828-1.171zm65.297 63.64h-44.277l-134.392 134.392c13.637 3.077 27.705 5.016 42.099 5.714l138.338-138.338z" fill="#fde803"/></svg>