<svg id="Capa_1" enable-background="new 0 0 501 501" height="512" viewBox="0 0 501 501" width="512" xmlns="http://www.w3.org/2000/svg"><path d="m0 256c0-135.31 109.69-245 244.999-245 135.633 0 245.907 111.053 244.995 246.682-.594 88.284-47.882 165.479-118.403 208.121-2.246 1.358-5.063 1.398-7.356.119-35.288-19.697-75.951-30.922-119.235-30.922-43.385 0-84.135 11.277-119.481 31.059-2.173 1.216-4.831 1.12-6.962-.167-71.051-42.894-118.557-120.845-118.557-209.892z" fill="#05a2f9"/><path d="m445 195c0 8.284-6.716 15-15 15h-9.473l-48.7 255.661c-36.997 22.427-80.404 35.339-126.827 35.339s-89.83-12.912-126.826-35.339l-48.701-255.661h-9.473c-8.284 0-15-6.716-15-15s6.716-15 15-15h370c8.284 0 15 6.716 15 15z" fill="#75ccd4"/><path d="m444.983 195.725c-.38 8.068-7.33 14.275-15.407 14.275h-9.05l-24.395 128.066c-11.266 59.144-62.976 101.934-123.183 101.934-60.208 0-111.918-42.79-123.184-101.934l-16.419-86.195c-1.174-6.162 3.55-11.871 9.823-11.871h220.409c8.077 0 15.027-6.207 15.407-14.275.405-8.614-6.459-15.725-14.984-15.725h-239.576c-8.077 0-15.027-6.207-15.407-14.275-.406-8.614 6.458-15.725 14.983-15.725h306c8.525 0 15.389 7.111 14.983 15.725z" fill="#bbe0fb"/><path d="m497.723 21.176-127.76 141.142c2.651 5.838 4.339 12.05 5 18.486.809 7.882-5.501 14.696-13.424 14.696h-116.41c-7.529 0-12.358-8.055-8.762-14.67 5.705-10.494 13.004-20.447 21.568-29.012 26.276-26.276 56.687-31.708 80.747-20.781l141.142-127.76c5.007-4.532 12.689-4.341 17.465.434s4.966 12.458.434 17.465z" fill="#5b3374"/><path d="m244.439 195.5c2.707-3.353 5.588-6.568 8.628-9.608 33.604-33.604 73.97-33.117 99.167-7.92 5.25 5.25 9.427 11.159 12.447 17.528z" fill="#6354b0"/><path d="m236.822 180h138.053c2.362 20.297-5.527 42.899-25.693 63.065-33.604 33.604-88.573 47.72-113.77 22.523-18.945-18.944-15.666-54.718 1.41-85.588z" fill="#968dca"/><path d="m145.13 313.742c-2.348-12.325 7.1-23.742 19.647-23.742h162.236c12.546 0 21.994 11.418 19.647 23.742l-33.86 177.756c-21.532 6.188-44.279 9.502-67.8 9.502-22.834 0-44.938-3.124-65.908-8.967z" fill="#f7e6b0"/><path d="m346.66 313.742-21.92 115.075c-15.871 7.206-33.437 11.183-51.792 11.183-60.208 0-111.918-42.79-123.184-101.934l-4.633-24.323c-2.348-12.325 7.1-23.742 19.647-23.742h1.931c4.118-11.652 15.231-20 28.293-20 10.435 0 19.625 5.328 25 13.412 5.375-8.084 14.565-13.412 25-13.412s19.625 5.328 25 13.412c5.375-8.084 14.565-13.412 25-13.412 13.062 0 24.174 8.348 28.293 20h3.72c12.544-.001 21.992 11.417 19.645 23.741z" fill="#fff5f5"/><path d="m332.133 390-19.334 101.498c-21.531 6.188-44.278 9.502-67.799 9.502-22.834 0-44.938-3.124-65.908-8.967l-19.436-102.033z" fill="#ab2538"/><path d="m332.134 390-7.394 38.818c-15.871 7.205-33.437 11.182-51.792 11.182-40.483 0-77.124-19.345-100.211-50z" fill="#f52c2c"/><path d="m309 415c0 8.284-6.716 15-15 15s-15-6.716-15-15 6.716-15 15-15 15 6.716 15 15zm-80 10c0-8.284-6.716-15-15-15s-15 6.716-15 15 6.716 15 15 15 15-6.716 15-15zm-5 25c-8.284 0-15 6.716-15 15s6.716 15 15 15 15-6.716 15-15-6.716-15-15-15zm40-20c-8.284 0-15 6.716-15 15s6.716 15 15 15 15-6.716 15-15-6.716-15-15-15z" fill="#962437"/><path d="m209 25c0 8.284-6.716 15-15 15s-15-6.716-15-15 6.716-15 15-15 15 6.716 15 15zm45 55c-8.284 0-15 6.716-15 15s6.716 15 15 15 15-6.716 15-15-6.716-15-15-15z" fill="#962437"/><path d="m194.531 71.961c3.905 3.905 1.795 12.347-4.714 18.856s-14.951 8.619-18.856 4.714-1.795-12.347 4.714-18.856c6.508-6.509 14.951-8.62 18.856-4.714zm117.794 234.714c-6.509-6.509-14.951-8.619-18.856-4.714s-1.795 12.347 4.714 18.856 14.951 8.619 18.856 4.714 1.795-12.348-4.714-18.856zm-112.508 40c6.509 6.509 8.619 14.951 4.714 18.856s-12.348 1.795-18.856-4.714-8.619-14.951-4.714-18.856 12.347-1.795 18.856 4.714z" fill="#f4aa39"/><path d="m133.469 131.961c3.905-3.905 12.347-1.795 18.856 4.714s8.619 14.951 4.714 18.856-12.347 1.795-18.856-4.714-8.619-14.951-4.714-18.856zm141.785 21.785c9.205 0 16.667-4.477 16.667-10s-7.462-10-16.667-10-16.667 4.477-16.667 10c.001 5.523 7.462 10 16.667 10zm17.071-92.929c6.509-6.509 8.619-14.951 4.714-18.856s-12.347-1.795-18.856 4.714-8.619 14.951-4.714 18.856 12.348 1.795 18.856-4.714zm-66.65 245.858c-6.509 6.509-8.619 14.951-4.714 18.856s12.347 1.795 18.856-4.714 8.619-14.951 4.714-18.856c-3.905-3.906-12.348-1.795-18.856 4.714zm60.396 60.396c-6.509 6.509-14.951 8.619-18.856 4.714s-1.795-12.347 4.714-18.856 14.951-8.619 18.856-4.714 1.795 12.347-4.714 18.856z" fill="#f7e6b0"/></svg>