<svg id="Capa_1" enable-background="new 0 0 501 501" height="512" viewBox="0 0 501 501" width="512" xmlns="http://www.w3.org/2000/svg"><path d="m52.799 392.066c-3.177.748-6.478-.57-8.25-3.311-24.707-38.253-39.049-83.829-39.049-132.755 0-135.133 109.403-244.713 244.469-244.999 135.285-.287 244.707 108.199 245.526 243.482.3 49.576-14.125 95.764-39.158 134.447-1.704 2.634-4.87 3.907-7.923 3.187-60.268-14.201-127.295-22.117-197.914-22.117-70.535 0-137.487 7.897-197.701 22.066z" fill="#5b3374"/><path d="m456.5 278.683v109.995c-6.125 9.491-12.889 18.531-20.229 27.06h-.641c-16.265 0-29.451 13.186-29.451 29.45-28.343 23.35-62.023 40.454-98.935 49.207h-19.329c-2.429 0-4.399 1.969-4.399 4.399h.001c-10.798 1.455-21.82 2.206-33.017 2.206-26.529 0-52.074-4.217-76-12.017-54.01-17.607-99.773-53.471-130-100.305v-109.995c0-32.245 5.198-64.279 15.395-94.869l30.76-92.28c-13.362-8.975-22.155-24.227-22.155-41.534 0-27.614 22.386-50 50-50h264c27.614 0 50 22.386 50 50 0 17.307-8.793 32.559-22.155 41.535l30.76 92.28c10.197 30.59 15.395 62.624 15.395 94.868z" fill="#f4aa39"/><path d="m359.076 70h-187.649c-3.285 0-5.73-3.128-4.831-6.288 1.379-4.845 2.045-9.99 1.879-15.315-.836-26.732-23.054-48.305-49.799-48.397-27.695-.095-50.176 22.327-50.176 50 0 17.307 8.793 32.559 22.155 41.535l-30.76 92.28c-10.197 30.59-15.395 62.623-15.395 94.868v109.995c30.227 46.834 75.99 82.698 130 100.305v-210.3c0-32.245-5.198-64.279-15.395-94.869l-21.357-64.071c-3.238-9.713 3.992-19.743 14.23-19.743h207.522c8.525 0 15.389-7.111 14.983-15.725-.38-8.068-7.33-14.275-15.407-14.275z" fill="#d98800"/><path d="m134.5 50c0 11.046-8.954 20-20 20s-20-8.954-20-20 8.954-20 20-20 20 8.954 20 20z" fill="#c98001"/><path d="m347.042 310.349c0 5.645-.435 10.998-1.262 16.044h-7.904c-2.053 0-3.082 2.483-1.63 3.935l6.997 6.997c-.671 2.193-1.425 4.312-2.256 6.355h-8.463c-2.053 0-3.082 2.483-1.63 3.935l5.43 5.43c-4.661 7.774-10.653 14.067-17.596 18.727l-11.483 122.624c-7.773 1.843-15.688 3.316-23.728 4.399-.293-43.629-.796-117.573-.835-117.575v-157.335c0-2.125 1.708-3.883 3.833-3.885h.039c33.406 0 60.488 45.797 60.488 90.349zm103.006-88.274c-.697-.77-1.976-.305-2.012.733l-2.831 82.077c-.125 3.623-3.098 6.495-6.723 6.495-3.612 0-6.579-2.852-6.721-6.461l-2.431-61.585c-.325-8.231-3.075-16.183-7.905-22.857-.46-.635-1.407-.635-1.867 0-4.83 6.674-7.58 14.625-7.905 22.857l-2.431 61.585c-.143 3.609-3.11 6.461-6.721 6.461-3.625 0-6.598-2.872-6.723-6.495l-2.831-82.077c-.036-1.038-1.315-1.503-2.012-.733-14.725 16.278-24.452 52.551-24.452 77.781 0 31.084 14.765 52.292 35.452 60.077l4.243 85.255c10.853-8.941 20.923-18.797 30.092-29.451l2.777-55.805c20.687-7.786 35.452-28.993 35.452-60.077.001-25.229-9.726-61.502-24.451-77.78z" fill="#f7e6b0"/><path d="m347.042 310.349c0 5.645-.435 10.998-1.262 16.044h-2.34c-4.107 0-6.163 4.965-3.26 7.869l3.062 3.062c-.671 2.193-1.425 4.312-2.256 6.355h-2.899c-4.107 0-6.163 4.965-3.26 7.869l1.496 1.496c-4.661 7.774-10.653 14.067-17.596 18.727l-7.002 74.768c-.489 5.218-8.212 4.879-8.243-.361l-.382-64.95c-.056-.003-.113-.006-.169-.01v-157.333c.058-.037.076-.049.135-.086 25.381 11.862 43.976 49.633 43.976 86.55zm103.006-88.274c-.697-.77-1.976-.305-2.012.733l-2.831 82.077c-.125 3.623-3.098 6.495-6.723 6.495-3.612 0-6.579-2.852-6.721-6.461l-2.431-61.585c-.325-8.232-3.075-16.184-7.905-22.857-.46-.636-1.407-.636-1.867 0-4.83 6.674-7.58 14.625-7.905 22.857l-2.431 61.585c-.143 3.609-3.11 6.461-6.721 6.461-3.625 0-6.598-2.872-6.723-6.495l-2.826-81.941c-9.258 15.023-14.944 34.574-14.944 53.863 0 39.779 24.18 63.383 54.008 63.383 15.735 0 29.899-6.569 39.77-18.617 1.76-6.563 2.713-13.822 2.713-21.718.001-25.229-9.726-61.502-24.451-77.78z" fill="#fff5f5"/><path d="m284.5 99.911v57.841c0 1.242-1.007 2.249-2.249 2.249h-.251c-.596 0-1.168-.237-1.59-.659l-4.32-4.32c-.878-.878-2.302-.878-3.18 0l-4.32 4.32c-.422.422-.994.659-1.59.659-.596 0-1.168-.237-1.59-.659l-4.32-4.32c-.878-.878-2.302-.878-3.18 0l-4.32 4.32c-.422.422-.994.659-1.59.659-.596 0-1.168-.237-1.59-.659l-4.32-4.32c-.878-.878-2.302-.878-3.18 0l-4.32 4.32c-.422.422-.994.659-1.59.659h-.251c-1.242 0-2.249-1.007-2.249-2.249v-57.752c24.785-2.964 44-24.417 44-50 0-27.614-22.386-50-50-50h52.173c27.688 0 50.741 22.153 50.827 49.841.083 26.679-20.731 48.515-47 50.07z" fill="#f52c2c"/><path d="m327.339 70c-7.337 16.791-23.629 28.863-42.839 30h-50s30.333-5.917 39.839-30z" fill="#ab2538"/></svg>