<svg id="Capa_1" enable-background="new 0 0 501 501" height="512" viewBox="0 0 501 501" width="512" xmlns="http://www.w3.org/2000/svg"><path d="m490 251.031c-.287 135.066-109.867 244.469-245 244.469-81.581 0-153.849-39.874-198.378-101.196-1.438-1.98-1.706-4.566-.801-6.84 11.157-28.021 17.291-58.587 17.291-90.585 0-50.705-15.403-97.812-41.785-136.897-1.609-2.384-1.843-5.434-.684-8.067 38.097-86.575 124.835-146.914 225.606-146.412 135.434.676 244.038 110.093 243.751 245.528z" fill="#49b4fa"/><path d="m399 404.5c0 5.523-4.477 10-10 10s-10-4.477-10-10 4.477-10 10-10 10 4.477 10 10z" fill="#0cabb9"/><path d="m335.074 386.461c-1.755 4.826-6.342 8.039-11.477 8.039h-235.694v-12.212l293.097-122.124z" fill="#91cefb"/><path d="m501 308.943c0 24.853-20.147 45-45 45s-45-20.147-45-45c0-2.228.163-4.418.475-6.559-3.339 1.016-6.851 1.559-10.475 1.559-22.091 0-40-20.147-40-45s17.909-45 40-45 40 20.147 40 45c0 2.652-.205 5.25-.596 7.777 4.859-1.795 10.113-2.777 15.596-2.777 24.853 0 45 20.147 45 45zm-140.967-194.211c-17.574-17.573-46.066-17.573-63.64 0-3.877 3.877-6.898 8.286-9.065 12.991-1.51-2.063-3.202-4.045-5.078-5.92-17.574-17.573-44.483-19.156-60.104-3.535s-14.038 42.531 3.536 60.104c2.862 2.862 5.971 5.299 9.239 7.307-3.46 14.673.531 30.747 11.975 42.19 17.574 17.573 46.066 17.573 63.64 0 9.996-9.996 14.306-23.525 12.93-36.568 13.043 1.376 26.571-2.934 36.567-12.93 17.574-17.573 17.574-46.065 0-63.639z" fill="#08b772"/><path d="m129 171.301c0 24.853-20.147 45-45 45-1.258 0-2.503-.053-3.735-.154-.657.893-1.346 1.76-2.066 2.601.526 2.446.801 4.971.801 7.553 0 22.091-20.147 40-45 40-13.572 0-33.909-23.58-33.729-27.435 1.462-31.277 8.789-61.021 20.906-88.157 6.692-3.945 14.493-6.209 22.823-6.209 1.258 0 2.503.053 3.735.154 8.192-11.13 21.385-18.353 36.265-18.353 24.853 0 45 20.147 45 45z" fill="#006e42"/><path d="m239.421 175.601c.89 3.731 1.366 7.653 1.366 11.7 0 24.853-17.909 45-40 45s-40-20.147-40-45c0-2.652.205-5.25.596-7.777-4.859 1.795-10.113 2.777-15.596 2.777-24.853 0-45-20.147-45-45s20.147-45 45-45c14.137 0 26.75 6.519 35 16.714 8.25-10.195 20.863-16.714 35-16.714 24.853 0 45 20.147 45 45 0 16.183-8.543 30.371-21.366 38.3zm164.161-14.691c-15.621-15.621-42.53-14.038-60.104 3.535-1.875 1.875-3.568 3.857-5.078 5.92-2.166-4.705-5.188-9.114-9.065-12.991-17.574-17.573-46.066-17.573-63.64 0-17.574 17.574-17.574 46.066 0 63.64 9.996 9.996 23.525 14.306 36.567 12.93-1.376 13.042 2.934 26.571 12.93 36.567 17.574 17.573 46.066 17.573 63.64 0 11.443-11.444 15.435-27.517 11.975-42.19 3.268-2.008 6.377-4.446 9.239-7.307 17.574-17.574 19.157-44.483 3.536-60.104z" fill="#037e4b"/><path d="m210.291 82.465c2.434 1.825 2.681 5.391.53 7.542l-48.986 48.986c-2.151 2.151-5.717 1.903-7.542-.53-11.75-15.668-10.5-37.996 3.75-52.247 14.252-14.251 36.58-15.501 52.248-3.751zm232.953 210.319c14.251-14.251 15.501-36.579 3.75-52.247-1.825-2.434-5.391-2.681-7.542-.53l-48.986 48.986c-2.151 2.151-1.903 5.717.53 7.542 15.669 11.75 37.997 10.5 52.248-3.751zm-398.487-110c14.251 14.251 36.579 15.501 52.247 3.75 2.434-1.825 2.681-5.391.53-7.542l-48.986-48.986c-2.151-2.151-5.717-1.903-7.542.53-11.75 15.669-10.5 37.998 3.751 52.248z" fill="#ab2538"/><path d="m210.36 82.519c2.369 1.84 2.591 5.358.461 7.488l-48.985 48.985c-2.13 2.13-5.648 1.908-7.488-.461-1.877-14.835 2.88-30.349 14.272-41.741s26.905-16.148 41.74-14.271zm222.308 199.69c11.392-11.392 16.149-26.906 14.272-41.741-1.84-2.369-5.358-2.591-7.488-.461l-48.985 48.985c-2.13 2.13-1.908 5.648.461 7.488 14.834 1.878 30.348-2.879 41.74-14.271zm-377.336-110c11.392 11.392 26.906 16.149 41.741 14.272 2.369-1.84 2.591-5.358.461-7.488l-48.985-48.985c-2.13-2.13-5.648-1.908-7.488.461-1.878 14.834 2.879 30.348 14.271 41.74z" fill="#f52c2c"/><path d="m174.822 108.297c-2.929-2.929-4.116-6.49-2.652-7.955 1.464-1.464 5.026-.277 7.955 2.652s4.116 6.49 2.652 7.955c-1.464 1.464-5.026.277-7.955-2.652zm16.293-3.725c2.071 0 3.75-3.358 3.75-7.5s-1.679-7.5-3.75-7.5-3.75 3.358-3.75 7.5 1.679 7.5 3.75 7.5zm-14.715 14.715c0-2.071-3.358-3.75-7.5-3.75s-7.5 1.679-7.5 3.75 3.358 3.75 7.5 3.75 7.5-1.679 7.5-3.75zm242.111 148.764c-1.464 1.464-.277 5.026 2.652 7.955s6.49 4.116 7.955 2.652c1.464-1.464.277-5.026-2.652-7.955s-6.491-4.116-7.955-2.652zm-4.588 13.877c0 4.142-1.679 7.5-3.75 7.5s-3.75-3.358-3.75-7.5 1.679-7.5 3.75-7.5 3.75 3.358 3.75 7.5zm18.464-25.965c4.142 0 7.5 1.679 7.5 3.75s-3.358 3.75-7.5 3.75-7.5-1.679-7.5-3.75 3.358-3.75 7.5-3.75zm-362.897-97.912c-1.464-1.464-5.026-.277-7.955 2.652s-4.116 6.49-2.652 7.955 5.026.277 7.955-2.652 4.116-6.49 2.652-7.955zm-6.377-8.338c0-2.071-3.358-3.75-7.5-3.75s-7.5 1.679-7.5 3.75 3.358 3.75 7.5 3.75 7.5-1.679 7.5-3.75zm14.715 14.715c-2.071 0-3.75 3.358-3.75 7.5s1.679 7.5 3.75 7.5 3.75-3.358 3.75-7.5-1.679-7.5-3.75-7.5z" fill="#ab2538"/><path d="m409 224.5c0 22.091-17.909 40-40 40s-40-17.909-40-40 17.909-40 40-40 40 17.909 40 40zm-40-20c-11.046 0-20 8.954-20 20s8.954 20 20 20 20-8.954 20-20-8.954-20-20-20zm-20-90c0 22.091-17.909 40-40 40s-40-17.909-40-40 17.909-40 40-40 40 17.909 40 40zm-40-20c-11.046 0-20 8.954-20 20s8.954 20 20 20 20-8.954 20-20-8.954-20-20-20z" fill="#fff5f5"/><path d="m426.811 369.837h-384.093c-7.426 0-14.182-4.239-17.473-10.896-16.162-32.69-25.245-69.505-25.245-108.441 0-3.9.091-7.778.272-11.634 49.326-56.037 118.132-90.817 194.249-90.817 115.228 0 213.702 79.703 253.202 192.198 5.074 14.449-5.598 29.59-20.912 29.59z" fill="#f4aa39"/><path d="m194.521 148.049c6.727 0 13.397.272 20.001.806-18.112 1.464-35.731 4.901-52.684 10.118-83.993 25.847-129.11 117.542-96.369 199.096 1.754 4.368 3.591 8.335 5.509 11.769h-37.586c-1.488 0-2.867-.806-3.58-2.112-19.009-34.82-29.812-74.762-29.812-117.226 0-3.9.091-7.778.272-11.634 49.325-56.037 118.131-90.817 194.249-90.817zm-80.521 76.451c-8.284 0-15 6.716-15 15s6.716 15 15 15 15-6.716 15-15-6.716-15-15-15zm270 90c-8.284 0-15 6.716-15 15s6.716 15 15 15 15-6.716 15-15-6.716-15-15-15zm-195-90c-11.046 0-20 8.954-20 20s8.954 20 20 20 20-8.954 20-20-8.954-20-20-20zm100 30c-16.569 0-30 13.431-30 30s13.431 30 30 30 30-13.431 30-30-13.431-30-30-30zm-105-65c5.523 0 10-4.477 10-10s-4.477-10-10-10-10 4.477-10 10 4.477 10 10 10zm-110 90c-5.523 0-10 4.477-10 10s4.477 10 10 10 10-4.477 10-10-4.477-10-10-10zm265-5c-5.523 0-10 4.477-10 10s4.477 10 10 10 10-4.477 10-10-4.477-10-10-10zm-40-60c5.523 0 10-4.477 10-10s-4.477-10-10-10-10 4.477-10 10 4.477 10 10 10z" fill="#d98800"/><path d="m369 394.5c0 5.523-4.477 10-10 10s-10-4.477-10-10 4.477-10 10-10 10 4.477 10 10zm-50 20c-5.523 0-10 4.477-10 10s4.477 10 10 10 10-4.477 10-10-4.477-10-10-10z" fill="#f4aa39"/><path d="m295.588 387.356c.643 3.732-2.23 7.144-6.017 7.144h-242.807c-6.218-8.545-11.897-17.509-16.987-26.839l230.132-146.039c3.01-1.982 7.065-.226 7.677 3.326z" fill="#e3f0fb"/><path d="m68.535 376.385 202.203-133.158 26.081 151.273h-222.855c-9.795 0-13.61-12.728-5.429-18.115z" fill="#fff5f5"/></svg>