<svg id="Capa_1" enable-background="new 0 0 501 501" height="512" viewBox="0 0 501 501" width="512" xmlns="http://www.w3.org/2000/svg"><path d="m63.194 413.936c-36.983-43.815-58.871-100.785-57.645-162.891 2.628-133.074 112.102-240.179 245.202-240.045 135.195.136 244.749 109.774 244.749 245 0 59.983-21.556 114.931-57.344 157.521-1.677 1.996-4.272 2.965-6.857 2.622-56.992-7.556-117.744-11.636-180.799-11.636-63.253 0-124.188 4.105-181.336 11.707-2.25.3-4.506-.544-5.97-2.278z" fill="#63bcfa"/><path d="m416.5 130v210c0 11.046-8.954 20-20 20h-292c-11.046 0-20-8.954-20-20v-210c0-11.046 8.954-20 20-20h92.74v-30c0-11.046 8.954-20 20-20h67.26c11.046 0 20 8.954 20 20v30h92c11.046 0 20 8.954 20 20z" fill="#05a2f9"/><path d="m481.964 198.838c-6.869 8.575-17.858 11.311-27.357 8.211-7.296-2.382-15.3-.686-20.727 4.741l-24.527 24.527-28.284-28.284 24.527-24.527c5.427-5.427 7.123-13.431 4.741-20.727-3.101-9.499-.364-20.488 8.211-27.357 8.927-7.151 21.855-7.239 30.865-.193 7.497 5.862 10.643 14.834 9.439 23.305 8.472-1.203 17.443 1.943 23.305 9.439 7.046 9.01 6.959 21.938-.193 30.865zm-374.284-196.506c-8.611 4.052-13.669 12.102-14.376 20.629-7.994-3.053-17.439-1.977-24.819 4.032-8.87 7.222-11.654 19.847-6.662 30.138 4.795 9.885 14.902 14.993 24.853 14.077 7.643-.703 15.071 2.727 19.158 9.223l18.472 29.359 33.856-21.302-18.472-29.359c-4.087-6.496-3.964-14.677-.023-21.262 5.132-8.574 4.902-19.896-1.935-28.497-7.117-8.954-19.703-11.909-30.052-7.038z" fill="#f7e6b0"/><path d="m412.91 232.759-3.557 3.557-28.284-28.284 24.527-24.527c5.427-5.427 7.123-13.431 4.741-20.727-3.101-9.499-.364-20.488 8.21-27.357 8.927-7.151 21.855-7.239 30.865-.193 1.884 1.474 3.493 3.144 4.828 4.953-6.495-.78-13.249.972-18.578 5.24-8.574 6.869-11.312 17.858-8.211 27.357 2.382 7.296.686 15.3-4.741 20.727l-24.527 24.527zm-270.54-141.033-18.472-29.359c-4.087-6.496-11.515-9.925-19.158-9.223-9.95.916-20.058-4.192-24.853-14.077-2.616-5.394-3.096-11.43-1.684-16.992-3.422.871-6.739 2.492-9.718 4.918-8.87 7.222-11.654 19.847-6.662 30.138 4.795 9.885 14.902 14.993 24.853 14.077 7.643-.703 15.071 2.727 19.158 9.223l18.472 29.359 33.856-21.302-3.019-4.799z" fill="#f3d373"/><path d="m318.24 322.37v54.26c0 1.861-2.151 3.37-4.804 3.37h-125.872c-2.653 0-4.804-1.509-4.804-3.37v-54.26c0-1.861 2.151-3.37 4.804-3.37h125.872c2.653 0 4.804 1.509 4.804 3.37z" fill="#e55920"/><path d="m388.14 356.525c-35.147 35.147-92.132 35.147-127.279 0s-35.147-92.132 0-127.279c25.264-25.264 61.811-32.368 93.42-21.312 1.561-2.475 3.419-4.816 5.575-6.972 15.621-15.621 40.948-15.621 56.569 0s15.621 40.948 0 56.569c-2.156 2.156-4.497 4.014-6.972 5.574 11.055 31.609 3.95 68.156-21.313 93.42z" fill="#c64b1a"/><path d="m270.664 135.85c26.47 42.071 13.824 97.635-28.247 124.105s-97.635 13.824-124.105-28.247c-19.027-30.241-17.843-67.453-.048-95.821-2.067-2.071-3.937-4.402-5.561-6.983-11.765-18.698-6.144-43.393 12.554-55.158s43.393-6.144 55.158 12.554c1.624 2.581 2.916 5.276 3.888 8.035 33.275-3.763 67.334 11.275 86.361 41.515z" fill="#c64b1a"/><path d="m413.865 198.609c-14.792-12.491-36.804-12.446-51.557.091-3.228 2.743-5.903 5.864-8.027 9.233-24.735-8.651-52.493-6.182-75.503 7.407-4.195 11.229-10.646 21.68-19.182 30.607-38.297 12.499-81.613-2.024-104.042-37.671-17.219-27.367-17.885-60.444-4.668-87.508 2.389-4.892 2.018-10.616-.892-15.218-.016-.026-.032-.051-.049-.077-7.436-11.819-7.926-26.035-2.558-37.866-8.627-.187-17.423 2.411-24.99 8.113-15.462 11.651-20.304 33.124-11.354 50.291 1.958 3.756 4.408 7.057 7.221 9.876-18.071 28.808-19.012 66.737.948 97.223 26.262 40.112 80.02 52.479 121.142 28.104-.021.013-.043.026-.065.039-11.796 31.707-5.19 68.87 19.763 94.454 5.583 5.723 11.736 10.543 18.279 14.458-20.687-34.568-16.14-80.027 13.641-109.808 22.863-22.863 54.967-30.854 84.289-23.973 5.301 1.244 10.8-.389 14.641-4.247.021-.021.043-.043.065-.064 9.874-9.874 23.626-13.507 36.354-10.898-1.732-8.452-6.217-16.452-13.456-22.566z" fill="#8b3d27"/><path d="m159.644 158.444c-2.941-4.674-1.536-10.848 3.139-13.79 4.674-2.941 10.848-1.536 13.789 3.139s1.536 10.849-3.138 13.79c-4.675 2.94-10.849 1.536-13.79-3.139zm9.529 123.093c-4.675 2.941-6.08 9.115-3.139 13.79s9.115 6.08 13.79 3.139c4.674-2.941 6.08-9.115 3.138-13.79-2.941-4.675-9.114-6.08-13.789-3.139zm-29.998-30.001c-4.675 2.941-6.08 9.115-3.138 13.789 2.941 4.675 9.115 6.08 13.789 3.139 4.675-2.941 6.08-9.115 3.139-13.789-2.942-4.675-9.116-6.08-13.79-3.139zm46.813-145.111c4.675-2.941 6.08-9.115 3.139-13.79s-9.115-6.08-13.79-3.139-6.08 9.115-3.139 13.79c2.942 4.674 9.115 6.08 13.79 3.139zm226.193 161.004c3.905-3.905 3.905-10.237 0-14.142s-10.237-3.905-14.142 0-3.905 10.237 0 14.142 10.237 3.905 14.142 0zm-273.006 44.107c-4.675 2.941-6.08 9.115-3.138 13.789 2.941 4.675 9.115 6.08 13.789 3.139 4.675-2.941 6.08-9.115 3.139-13.789-2.942-4.675-9.116-6.08-13.79-3.139zm49.998-120.001c-4.675 2.941-6.08 9.115-3.139 13.79 2.941 4.674 9.115 6.08 13.79 3.139 4.674-2.941 6.08-9.115 3.138-13.79-2.941-4.675-9.114-6.08-13.789-3.139zm-90.964-18.066c-4.675 2.941-6.08 9.115-3.139 13.789 2.941 4.675 9.115 6.08 13.79 3.139s6.08-9.115 3.139-13.789c-2.942-4.675-9.115-6.081-13.79-3.139zm257.404 79.818c-3.905-3.905-10.237-3.905-14.142 0s-3.905 10.237 0 14.142 10.237 3.905 14.142 0 3.905-10.237 0-14.142zm0 28.284c-3.905 3.905-3.905 10.237 0 14.142s10.237 3.905 14.142 0 3.905-10.237 0-14.142-10.237-3.905-14.142 0zm-48.184 1.358c-3.905 3.905-3.905 10.237 0 14.143s10.237 3.905 14.142 0 3.905-10.237 0-14.143-10.237-3.906-14.142 0zm90.61 26.926c-3.905 3.905-3.905 10.237 0 14.143s10.237 3.905 14.142 0 3.905-10.237 0-14.143-10.237-3.905-14.142 0zm-204.539-172.713c-4.674 2.941-6.08 9.115-3.138 13.79 2.941 4.675 9.115 6.08 13.789 3.139 4.675-2.941 6.08-9.115 3.139-13.79s-9.115-6.08-13.79-3.139zm47.646-18.163c4.675-2.941 6.08-9.115 3.138-13.79-2.941-4.674-9.115-6.08-13.789-3.139-4.675 2.941-6.08 9.115-3.139 13.79s9.115 6.08 13.79 3.139zm-.952 36.043c-4.674 2.941-6.08 9.115-3.138 13.79 2.941 4.674 9.115 6.08 13.789 3.139 4.675-2.941 6.08-9.115 3.139-13.79-2.942-4.675-9.115-6.08-13.79-3.139zm72.992 55.839c3.905-3.905 3.905-10.237 0-14.142s-10.237-3.905-14.142 0-3.905 10.237 0 14.142 10.237 3.905 14.142 0z" fill="#8b3d27"/><path d="m81.561 433.439c-6.631-6.316-12.909-12.999-18.801-20.018v-81.106c0-7.354 5.961-13.315 13.315-13.315h56.333c-7.354 0-13.315 5.961-13.315 13.315v85.066c0 19.53-23.39 29.527-37.532 16.058z" fill="#ecb700"/><path d="m438.24 413.421c-44.942 53.542-112.366 87.579-187.74 87.579-55.512 0-106.713-18.462-147.796-49.582v-119.103c0-7.354 5.961-13.315 13.315-13.315h81.221c0 22.061 17.884 39.945 39.945 39.945h26.63c20.541 0 37.46-15.504 39.695-35.448.286-2.55 2.403-4.497 4.969-4.497h116.447c7.354 0 13.315 5.961 13.315 13.315v81.106z" fill="#fded32"/><path d="m395.002 319-179.517 179.517c-25.497-3.648-49.727-11.223-72.059-22.091l117.48-117.48h2.909c20.541 0 37.46-15.504 39.695-35.448.286-2.55 2.403-4.497 4.969-4.497h86.523zm-197.762 0h-46.734l-87.746 87.747v6.674c13.302 15.847 28.573 29.986 45.438 42.039l104.725-104.725c-9.534-7.301-15.683-18.8-15.683-31.735zm240.996 12.96-168.278 168.278c67.463-5.3 127.245-37.927 168.283-86.817v-81.106c-.001-.119-.002-.237-.005-.355z" fill="#fd8f01"/><path d="m212.923 350.734-104.726 104.725c-1.85-1.322-3.681-2.669-5.493-4.042v-84.616l47.802-47.801h46.734c0 12.935 6.149 24.434 15.683 31.734zm95.555-31.734c-2.566 0-4.683 1.947-4.969 4.497-2.234 19.944-19.154 35.448-39.695 35.448h-2.909l-117.48 117.48c22.332 10.868 46.562 18.443 72.059 22.091l179.518-179.516zm129.758 12.96-168.278 168.278c67.463-5.3 127.245-37.927 168.283-86.817v-81.106c-.001-.119-.002-.237-.005-.355z" fill="#fd9d01"/></svg>