<svg id="Capa_1" enable-background="new 0 0 501 501" height="512" viewBox="0 0 501 501" width="512" xmlns="http://www.w3.org/2000/svg"><path d="m150.373 234.5c-90.715 0-132.306-113.366-62.837-171.704 42.582-35.759 97.508-57.296 157.464-57.296 129.934 0 236.244 101.148 244.486 229z" fill="#fde803"/><path d="m487.373 214.5c1.73 11.749 2.626 23.769 2.627 35.999 0 135.382-109.075 244.706-244.457 245-56.618.123-108.775-18.96-150.321-51.099-5.431-4.201-10.672-9.531-15.71-15.753-69.539-85.862-7.062-214.147 103.429-214.147z" fill="#f4aa39"/><path d="m427.219 414.5h-318.219v-40h347.486c-8.403 14.333-18.222 27.73-29.267 40z" fill="#d98800"/><path d="m490 294.5v40l-102.75 56h-208.25v-146l49-184h38.344c54.114 0 101.533 36.219 115.772 88.426l26.066 95.574h31.818c27.614 0 50 22.386 50 50z" fill="#f52c2c"/><path d="m389 334.5v56h-170v-56h29c5.523 0 10-4.477 10-10v-94h20v94c0 5.523 4.477 10 10 10z" fill="#ab2538"/><path d="m409 159.5v30c0 8.284-6.716 15-15 15s-15-6.716-15-15v-30c0-8.284 6.716-15 15-15s15 6.716 15 15zm-108.5 102.5h-42.5v15h42.5c4.142 0 7.5-3.358 7.5-7.5s-3.358-7.5-7.5-7.5z" fill="#962437"/><path d="m491 390.5h-202c-5.523 0-10-4.477-10-10v-36c0-5.523 4.477-10 10-10h202c5.523 0 10 4.477 10 10v36c0 5.523-4.477 10-10 10z" fill="#f89575"/><path d="m491 364.5h-62c-5.523 0-10-4.477-10-10v-10c0-5.523 4.477-10 10-10h62c5.523 0 10 4.477 10 10v10c0 5.523-4.477 10-10 10z" fill="#faab90"/><path d="m490 294.5h-41c-6.075 0-11-4.925-11-11v-39h2c27.614 0 50 22.386 50 50z" fill="#f9d19a"/><path d="m438 244.5h2c23.677 0 43.509 16.457 48.684 38.557-3.401.94-6.984 1.443-10.684 1.443-22.091 0-40-17.909-40-40z" fill="#fff2b4"/><path d="m90.311 60.5h137.689v330h-184.086c-27.68-39.684-43.914-87.946-43.914-140 0-76.648 35.197-145.075 90.311-190z" fill="#0191f8"/><path d="m14.779 334.5h213.221v56h-184.086c-11.988-17.187-21.829-35.984-29.135-56z" fill="#0280e3"/><path d="m348.476 248.5h-75.476c-8.284 0-15-6.716-15-15v-120c0-8.284 6.716-15 15-15 32.433 0 60.815 21.805 69.171 53.143l20.798 77.992c2.54 9.523-4.638 18.865-14.493 18.865z" fill="#54469b"/><path d="m278 248.5h-5c-8.284 0-15-6.716-15-15v-120c0-8.284 6.716-15 15-15 1.678 0 3.346.059 5 .174z" fill="#5b3374"/><path d="m348.476 248.5h-6.099c.406-2.535.3-5.21-.416-7.896l-26.344-98.79c-4.217-15.812-12.458-29.708-23.445-40.706 23.988 6.666 43.344 25.577 50 50.534l20.798 77.992c2.539 9.524-4.639 18.866-14.494 18.866z" fill="#804ba1"/><path d="m169 374.5c0 38.66-31.34 70-70 70-1.268 0-2.528-.034-3.779-.101-26.975-20.868-49.476-47.239-65.821-77.431 3.757-35.117 33.485-62.468 69.6-62.468 38.66 0 70 31.34 70 70zm170-70c-38.66 0-70 31.34-70 70s31.34 70 70 70 70-31.34 70-70-31.34-70-70-70z" fill="#012d4e"/><path d="m129 374.5c0 16.569-13.431 30-30 30s-30-13.431-30-30 13.431-30 30-30 30 13.431 30 30zm210-30c-16.569 0-30 13.431-30 30s13.431 30 30 30 30-13.431 30-30-13.431-30-30-30z" fill="#c09fd3"/><path d="m104 354.5c8.284 0 15 6.716 15 15s-6.716 15-15 15-15-6.716-15-15 6.716-15 15-15zm225 15c0 8.284 6.716 15 15 15s15-6.716 15-15-6.716-15-15-15-15 6.716-15 15z" fill="#c1bbdf"/><path d="m199 108.5v130c0 5.523-4.477 10-10 10h-188.992c.453-56.648 20.131-108.716 52.831-150h136.161c5.523 0 10 4.477 10 10z" fill="#5b3374"/><path d="m189 248.5h-34.455c-76.702 0-119.92-88.328-72.683-148.758.324-.415.65-.829.977-1.242h106.161c5.523 0 10 4.477 10 10v130c0 5.523-4.477 10-10 10z" fill="#54469b"/><path d="m199 108.5v26c0 8.284-6.716 15-15 15h-10c-8.284 0-15-6.716-15-15 0 8.284-6.716 15-15 15h-10c-8.284 0-15-6.716-15-15 0 8.284-6.716 15-15 15h-10c-8.284 0-15-6.716-15-15 0 8.284-6.716 15-15 15h-10c-8.284 0-15-6.716-15-15 0 8.284-6.716 15-15 15h-2.279c4.992-11.019 10.776-21.602 17.279-31.678.823-1.275 1.658-2.542 2.504-3.801 6.551-9.748 17.594-15.52 29.338-15.52h118.158c5.523-.001 10 4.476 10 9.999z" fill="#f52c2c"/><path d="m144 149.5h-10c-8.284 0-15-6.716-15-15v-36h40v36c0 8.284-6.716 15-15 15zm-105-31.678v16.678c0 8.284 6.716 15 15 15h10c8.284 0 15-6.716 15-15v-36h-26.161c-4.914 6.204-9.534 12.652-13.839 19.322z" fill="#fdb44c"/><path d="m121 234.5h-34c-1.657 0-3-1.343-3-3v-64c0-1.657 1.343-3 3-3h34c1.657 0 3 1.343 3 3v64c0 1.657-1.343 3-3 3z" fill="#e3f0fb"/><path d="m114.75 178h-21.5c-1.657 0-3-1.343-3-3 0-1.657 1.343-3 3-3h21.5c1.657 0 3 1.343 3 3 0 1.657-1.343 3-3 3z" fill="#91cefb"/><path d="m117.75 201.5c0 1.657-1.343 3-3 3h-21.5c-1.657 0-3-1.343-3-3s1.343-3 3-3h21.5c1.657 0 3 1.343 3 3zm-20.75-7h14c1.657 0 3-1.343 3-3s-1.343-3-3-3h-14c-1.657 0-3 1.343-3 3s1.343 3 3 3zm11.5 14h-9c-1.657 0-3 1.343-3 3s1.343 3 3 3h9c1.657 0 3-1.343 3-3s-1.343-3-3-3z" fill="#bbe0fb"/><path d="m124 244.5h-40c-2.761 0-5-2.239-5-5v-10c0-2.761 2.239-5 5-5h40c2.761 0 5 2.239 5 5v10c0 2.761-2.239 5-5 5z" fill="#ce9047"/><path d="m69.481 219.036c2.929 2.929 2.929 7.677 0 10.606-2.929 2.929-7.678 2.929-10.607 0l-17.678-17.678c-2.929-2.929-2.929-7.677 0-10.606s7.678-2.929 10.607 0zm28.661 0-17.678-17.678c-2.929-2.929-7.678-2.929-10.607 0s-2.929 7.678 0 10.606l17.678 17.678c2.929 2.929 7.678 2.929 10.607 0 2.929-2.929 2.929-7.678 0-10.606z" fill="#fd7d43"/><path d="m71.371 226.466c-.343 1.163-.973 2.259-1.89 3.177-2.929 2.929-7.678 2.929-10.607 0l-17.678-17.678c-2.929-2.929-2.929-7.677 0-10.606.631-.631 1.346-1.125 2.11-1.485-.751 2.549-.121 5.419 1.89 7.43l17.678 17.678c2.298 2.297 5.717 2.791 8.497 1.484zm20.165-1.485-17.678-17.678c-2.011-2.011-2.641-4.881-1.89-7.43-.763.359-1.479.854-2.11 1.485-2.929 2.929-2.929 7.678 0 10.606l17.678 17.678c2.929 2.929 7.678 2.929 10.607 0 .918-.917 1.548-2.014 1.89-3.177-2.781 1.308-6.199.814-8.497-1.484z" fill="#e55920"/><path d="m97.339 235.5h-54c-1.657 0-3-1.343-3-3v-14c0-1.657 1.343-3 3-3h54c1.657 0 3 1.343 3 3v14c0 1.657-1.343 3-3 3z" fill="#f52c2c"/><path d="m174 235.5h-20l-5-40h30z" fill="#08b772"/><path d="m179 199.5h-30c-1.105 0-2-.895-2-2v-6c0-1.105.895-2 2-2h30c1.105 0 2 .895 2 2v6c0 1.105-.895 2-2 2z" fill="#5affb7"/><path d="m209 239.5v20c0 2.761-2.239 5-5 5h-203.607c-.261-4.633-.393-9.301-.393-14 0-5.375.173-10.71.514-16h203.486c2.761 0 5 2.239 5 5z" fill="#f19b0b"/><path d="m204 264.5h-160.042c-7.67 0-13.954-6.189-13.958-13.859 0-.047 0-.094 0-.141 0-.72.003-1.439.009-2.157.066-7.665 6.3-13.843 13.965-13.843h160.026c2.761 0 5 2.239 5 5v20c0 2.761-2.239 5-5 5z" fill="#f4aa39"/><path d="m209 99.5v10c0 2.761-2.239 5-5 5h-162.817c4.629-6.924 9.602-13.599 14.894-20h147.923c2.761 0 5 2.239 5 5z" fill="#63bcfa"/><path d="m204 114.5h-113.351c-8.26 0-12.923-9.545-7.794-16.02.052-.065.103-.13.155-.195 1.89-2.381 4.753-3.785 7.793-3.785h113.197c2.761 0 5 2.239 5 5v10c0 2.761-2.239 5-5 5z" fill="#91cefb"/></svg>