<svg id="Capa_1" enable-background="new 0 0 501 501" height="512" viewBox="0 0 501 501" width="512" xmlns="http://www.w3.org/2000/svg"><path d="m11.805 270.5c-.533-6.596-.805-13.266-.805-20 0-135.31 109.69-245 245-245s245 109.69 245 245c0 6.734-.272 13.404-.805 20z" fill="#6e61b5"/><path d="m424.954 425.335v2.59c-43.957 41.871-103.454 67.575-168.954 67.575-130.611 0-237.351-102.204-244.606-231h489.213c-2.885 51.214-21.5 98.223-51.091 136.274-13.566 0-24.562 10.997-24.562 24.561z" fill="#5b3374"/><path d="m103.367 84.5h271.513c11.663 0 22.269 6.76 27.194 17.332l58.137 124.803h-440.422l56.238-124.486c4.854-10.744 15.55-17.649 27.34-17.649z" fill="#91cefb"/><path d="m140.238 102.149-56.238 124.486h-64.211l56.238-124.486c4.854-10.744 15.55-17.649 27.34-17.649h64.211c-11.79 0-22.487 6.905-27.34 17.649z" fill="#75ccd4"/><path d="m227.411 221.962c-12.598 21.423-40.177 28.578-61.601 15.98-1.842-1.083-3.577-2.276-5.205-3.567-7.052 6.837-16.701 10.61-26.962 10.927-.755 5.837-2.674 11.621-5.846 17.015-12.598 21.423-40.177 28.578-61.601 15.98-21.423-12.598-28.578-40.177-15.98-61.601 7.525-12.797 20.396-20.502 34.108-21.948.623-4.712 2.154-9.313 4.664-13.582 11.198-19.043 37.643-24.268 59.066-11.67 1.53.899 2.992 1.866 4.386 2.891 13.509-18.308 38.944-23.815 58.99-12.027 21.424 12.6 28.579 40.179 15.981 61.602z" fill="#fde803"/><path d="m98.059 283.587c-10.572 2.174-21.957.576-31.982-5.361-20.709-12.263-28.117-39.126-16.584-60.251 7.404-13.562 20.67-21.733 34.832-23.226.623-4.712 2.154-9.313 4.664-13.582 10.101-17.177 32.608-23.111 52.645-14.862-12.58 3.234-23 11.714-27.394 23.897-.858 2.378-1.449 4.793-1.787 7.22-.576 4.123-3.139 7.74-6.893 9.539-10.28 4.928-18.705 13.739-22.878 25.309-6.884 19.084-.074 39.773 15.377 51.317z" fill="#f5c02c"/><path d="m201.574 152.074c15.621-15.621 47.279-9.289 70.711 14.142s29.763 55.09 14.142 70.711-47.279 9.289-70.711-14.142-29.763-55.09-14.142-70.711z" fill="#06995f"/><path d="m220.123 173.398c-1.194-1.824.951-3.968 2.775-2.775 7.881 5.159 16.377 12.081 24.638 20.342s15.183 16.757 20.342 24.638c1.194 1.824-.951 3.968-2.775 2.775-7.881-5.159-16.377-12.081-24.638-20.342s-15.183-16.757-20.342-24.638z" fill="#006e42"/><path d="m113.429 133.109c1.825-2.434 5.391-2.681 7.542-.53l48.986 48.986c2.151 2.151 1.903 5.717-.53 7.542-15.668 11.75-37.996 10.5-52.247-3.75-14.252-14.252-15.502-36.58-3.751-52.248zm246.328 17.148c-14.251 14.251-15.501 36.579-3.75 52.247 1.825 2.434 5.391 2.681 7.542.53l48.986-48.986c2.151-2.151 1.903-5.717-.53-7.542-15.67-11.75-37.998-10.5-52.248 3.751z" fill="#ab2538"/><path d="m113.482 133.04c1.84-2.369 5.358-2.591 7.488-.461l48.985 48.985c2.13 2.13 1.908 5.648-.461 7.488-14.835 1.877-30.349-2.88-41.741-14.272-11.391-11.391-16.148-26.905-14.271-41.74zm256.85 27.792c-11.392 11.392-16.149 26.906-14.272 41.741 1.84 2.369 5.358 2.591 7.488.461l48.985-48.985c2.13-2.13 1.908-5.648-.461-7.488-14.834-1.878-30.348 2.879-41.74 14.271z" fill="#f52c2c"/><path d="m139.26 168.578c-2.929 2.929-6.49 4.116-7.955 2.652-1.464-1.464-.277-5.026 2.652-7.955s6.49-4.116 7.955-2.652.277 5.026-2.652 7.955zm-3.725-16.293c0-2.071-3.358-3.75-7.5-3.75s-7.5 1.679-7.5 3.75 3.358 3.75 7.5 3.75 7.5-1.679 7.5-3.75zm14.715 14.715c-2.071 0-3.75 3.358-3.75 7.5s1.679 7.5 3.75 7.5 3.75-3.358 3.75-7.5-1.679-7.5-3.75-7.5zm234.24 7.99c1.464-1.464.277-5.026-2.652-7.955s-6.49-4.116-7.955-2.652-.277 5.026 2.652 7.955 6.49 4.116 7.955 2.652zm8.338-6.377c2.071 0 3.75-3.358 3.75-7.5s-1.679-7.5-3.75-7.5-3.75 3.358-3.75 7.5 1.678 7.5 3.75 7.5zm-14.715 14.714c0-2.071-3.358-3.75-7.5-3.75s-7.5 1.679-7.5 3.75 3.358 3.75 7.5 3.75 7.5-1.678 7.5-3.75z" fill="#ab2538"/><path d="m414 219.5c0 24.853-20.147 45-45 45-14.137 0-26.75-6.519-35-16.714-8.25 10.195-20.863 16.714-35 16.714-24.853 0-45-20.147-45-45 0-16.184 8.543-30.371 21.366-38.3-.891-3.731-1.366-7.653-1.366-11.7 0-24.853 17.909-45 40-45s40 20.147 40 45c0 2.652-.205 5.25-.596 7.777 4.859-1.795 10.113-2.777 15.596-2.777 24.853 0 45 20.147 45 45z" fill="#49cb5c"/><path d="m312.001 262.593c-4.116 1.24-8.481 1.907-13.001 1.907-24.853 0-45-20.147-45-45 0-16.184 8.543-30.371 21.366-38.3-.891-3.731-1.366-7.653-1.366-11.7 0-24.853 17.909-45 40-45 4.551 0 8.924.856 13 2.431-15.709 6.071-27 22.836-27 42.569 0 4.047.475 7.969 1.366 11.7-12.823 7.929-21.366 22.116-21.366 38.3 0 20.333 13.486 37.516 32.001 43.093z" fill="#08b772"/><path d="m140 114.5c0 5.523-4.477 10-10 10s-10-4.477-10-10 4.477-10 10-10 10 4.477 10 10z" fill="#06995f"/><path d="m180 134.5c0 5.523-4.477 10-10 10s-10-4.477-10-10 4.477-10 10-10 10 4.477 10 10z" fill="#0cc33c"/><path d="m280 114.5c0 5.523-4.477 10-10 10s-10-4.477-10-10 4.477-10 10-10 10 4.477 10 10zm120 70c-5.523 0-10 4.477-10 10s4.477 10 10 10 10-4.477 10-10-4.477-10-10-10zm-70-60c-5.523 0-10 4.477-10 10s4.477 10 10 10 10-4.477 10-10-4.477-10-10-10z" fill="#037e4b"/><path d="m330 219.5c0 24.853-20.147 45-45 45s-45-20.147-45-45 20.147-45 45-45 45 20.147 45 45z" fill="#fff5f5"/><path d="m310 219.5c0 13.807-11.193 25-25 25s-25-11.193-25-25 11.193-25 25-25 25 11.193 25 25z" fill="#fde803"/><path d="m480 230.5c0 7.732-6.268 14-14 14h-9.519l-53.201 142.621c-4.377 11.734-15.584 19.515-28.108 19.515h-268.568c-12.413 0-23.544-7.645-28-19.23l-54.968-142.906h-9.636c-7.732 0-14-6.268-14-14s6.268-14 14-14h452c7.732 0 14 6.268 14 14z" fill="#f4aa39"/><path d="m200.667 294.5v80c0 5.523-4.477 10-10 10s-10-4.477-10-10v-80c0-5.523 4.477-10 10-10 5.522 0 10 4.477 10 10zm-58.334-10c-5.523 0-10 4.477-10 10v80c0 5.523 4.477 10 10 10s10-4.477 10-10v-80c0-5.523-4.477-10-10-10zm96.667 0c-5.523 0-10 4.477-10 10v80c0 5.523 4.477 10 10 10s10-4.477 10-10v-80c0-5.523-4.477-10-10-10zm145 0c-5.523 0-10 4.477-10 10v80c0 5.523 4.477 10 10 10s10-4.477 10-10v-80c0-5.523-4.477-10-10-10zm19.657-40h-315.667c-7.728-.005-13.99-6.271-13.99-14 0-7.732 6.268-14 14-14h-73.605c-7.538 0-14.025 5.793-14.379 13.323-.379 8.04 6.028 14.677 13.984 14.677h9.635l54.968 142.905c4.456 11.585 15.587 19.23 28 19.23h33.789c-12.413 0-23.544-7.645-28-19.23-5.548-14.423-8.393-29.744-8.393-45.197v-47.367c0-5.326-4.019-9.977-9.335-10.321-5.823-.375-10.664 4.237-10.664 9.98 0 3.93-5.443 4.94-6.853 1.273l-10.176-26.455c-.893-2.322.821-4.818 3.309-4.818h333.72c5.743 0 10.356-4.842 9.978-10.666-.344-5.315-4.995-9.334-10.321-9.334zm-67.99 40c-5.523 0-10 4.477-10 10v80c0 5.523 4.477 10 10 10s10-4.477 10-10v-80c0-5.523-4.478-10-10-10zm-48.334 0c-5.523 0-10 4.477-10 10v80c0 5.523 4.477 10 10 10s10-4.477 10-10v-80c0-5.523-4.477-10-10-10z" fill="#d98800"/><path d="m449.515 400.774c-7.507 9.653-15.719 18.729-24.561 27.151l-101.764 6.013c-8.523 22.647-31.74 38.81-65.769 38.81-27.625 0-67.345-10.653-85.16-26.778-.838-.758-.316-2.154.813-2.193l89.853-3.099c4.212-.146 7.498-3.808 7.073-8.107-.367-3.71-3.624-6.475-7.349-6.622l-67.106-2.649c-9.011-.355-17.717-3.366-25.022-8.653-.696-.504-.696-1.541 0-2.044 7.306-5.287 16.011-8.298 25.022-8.653l67.419-2.661c4.207-.166 7.475-3.839 7.033-8.136-.382-3.71-3.653-6.463-7.381-6.592l-89.542-3.088c-1.129-.039-1.651-1.434-.813-2.193 17.814-16.126 57.535-26.778 85.16-26.778 34.029 0 57.246 16.164 65.769 38.811z" fill="#f7e6b0"/><path d="m257.421 354.5c8.644 0 16.59 1.043 23.776 2.97 13.189 10.806 20.38 26.312 20.38 43.538 0 32.653-25.84 59.124-69.388 59.124-21.117 0-42.52-6.225-58.966-16.36l89.704-3.094c3.966-.137 7.11-3.391 7.11-7.359 0-3.954-3.122-7.202-7.073-7.358l-67.419-2.661c-9.011-.356-17.717-3.366-25.023-8.653-.696-.504-.696-1.54 0-2.044 7.306-5.287 16.011-8.298 25.023-8.653l67.419-2.661c3.951-.156 7.073-3.404 7.073-7.358 0-3.968-3.144-7.223-7.11-7.359l-89.853-3.099c-1.136-.039-1.645-1.44-.802-2.203 17.82-16.122 57.53-26.77 85.149-26.77z" fill="#fff5f5"/></svg>