<svg id="Capa_1" enable-background="new 0 0 501 501" height="512" viewBox="0 0 501 501" width="512" xmlns="http://www.w3.org/2000/svg"><path d="m5.5 256c0-135.133 109.404-244.714 244.47-244.999 134.586-.285 243.618 106.91 245.505 241.483 1.121 79.924-36.035 151.218-94.308 196.725-2.888 2.255-6.913 2.343-9.91.236-39.827-28.004-88.372-44.445-140.757-44.445-52.511 0-101.163 16.52-141.043 44.646-2.824 1.992-6.621 1.901-9.348-.222-57.575-44.83-94.609-114.802-94.609-193.424z" fill="#04d481"/><path d="m431.91 206.409-67.609 243.591h-227.602l-69.282-249.62c-20.113-15.591-32.917-39.092-32.917-65.38 0-46.944 40.832-85 91.2-85 10.412 0 20.416 1.626 29.737 4.621 19.072-32.67 54.504-54.621 95.063-54.621s75.991 21.951 95.063 54.621c9.321-2.995 19.325-4.621 29.737-4.621 50.368 0 91.2 38.056 91.2 85 0 24.347-10.984 46.304-28.585 61.8-2.894 2.549-4.974 5.893-6.005 9.609z" fill="#c64b1a"/><path d="m401.5 210h-233.702c-26.449 0-45.617 25.212-38.543 50.698l25.245 90.956v-111.312c0-5.326 4.019-9.977 9.334-10.321 5.824-.377 10.666 4.235 10.666 9.978v129.676c0 5.299-3.985 9.92-9.27 10.298-1.013.073-1.996-.008-2.93-.217l19.496 70.244h-45.097l-67.609-243.591c-1.031-3.716-3.111-7.06-6.006-9.609-17.6-15.496-28.584-37.453-28.584-61.8 0-36.954 25.301-68.399 60.639-80.11-14.134 15.773-22.639 36.078-22.639 58.235 0 .771.01 1.541.031 2.307.966 36.088 31.113 64.568 67.213 64.568h261.332c8.077 0 15.027 6.207 15.407 14.275.406 8.614-6.458 15.725-14.983 15.725zm-184.5 20c-5.523 0-10 4.477-10 10v130c0 5.523 4.477 10 10 10s10-4.477 10-10v-130c0-5.523-4.477-10-10-10zm52.5 0c-5.523 0-10 4.477-10 10v130c0 5.523 4.477 10 10 10s10-4.477 10-10v-130c0-5.523-4.477-10-10-10zm52.5 0c-5.523 0-10 4.477-10 10v130c0 5.523 4.477 10 10 10s10-4.477 10-10v-130c0-5.523-4.477-10-10-10zm52.5 0c-5.523 0-10 4.477-10 10v130c0 5.523 4.477 10 10 10s10-4.477 10-10v-130c0-5.523-4.477-10-10-10z" fill="#8b3d27"/><path d="m317.341 400.063c-2.025 54.683-50.022 96.163-104.423 90.255-30.13-3.272-58.578-8.392-72.212-15.238-14.581-7.322-28.33-16.056-41.067-26.023l-35.96-169.176c-1.748-6.467 4.539-12.208 10.821-9.881l237.467 122.028c3.339 1.237 5.506 4.477 5.374 8.035z" fill="#fdc273"/><path d="m287.872 490.756c-54.398 5.659-102.19-36.039-104.214-90.693-.132-3.559 2.036-6.799 5.375-8.036l244.646-131.909c6.282-2.326 12.569 3.414 10.821 9.881l-43.139 179.058c-13.705 10.724-28.581 20.021-44.404 27.667-13.059 6.311-40.148 11.022-69.085 14.032z" fill="#fdd194"/><path d="m140.707 475.081 102.592-189.725c3.187-5.893 11.698-5.725 14.651.288l99.008 191.081c-32.194 15.555-68.307 24.275-106.458 24.275-39.474 0-76.767-9.335-109.793-25.919z" fill="#fff2b4"/><path d="m224.5 35c0 13.807-11.193 25-25 25s-25-11.193-25-25 11.193-25 25-25 25 11.193 25 25zm225 85c-13.807 0-25 11.193-25 25s11.193 25 25 25 25-11.193 25-25-11.193-25-25-25zm-315-20c-16.569 0-30 13.431-30 30s13.431 30 30 30 30-13.431 30-30-13.431-30-30-30zm140-15c-13.807 0-25 11.193-25 25s11.193 25 25 25 25-11.193 25-25-11.193-25-25-25zm90-55c-16.569 0-30 13.431-30 30s13.431 30 30 30 30-13.431 30-30-13.431-30-30-30z" fill="#6e61b5"/><path d="m384.5 130c0 5.523-4.477 10-10 10s-10-4.477-10-10 4.477-10 10-10 10 4.477 10 10zm-30 10c-5.523 0-10 4.477-10 10s4.477 10 10 10 10-4.477 10-10-4.477-10-10-10zm-60-100c-5.523 0-10 4.477-10 10s4.477 10 10 10 10-4.477 10-10-4.477-10-10-10zm-100 40c-5.523 0-10 4.477-10 10s4.477 10 10 10 10-4.477 10-10-4.477-10-10-10zm20 30c-5.523 0-10 4.477-10 10s4.477 10 10 10 10-4.477 10-10-4.477-10-10-10z" fill="#6d4336"/><path d="m214.5 30c0 5.523-4.477 10-10 10s-10-4.477-10-10 4.477-10 10-10 10 4.477 10 10zm-75 80c-8.284 0-15 6.716-15 15s6.716 15 15 15 15-6.716 15-15-6.716-15-15-15zm230-70c-8.284 0-15 6.716-15 15s6.716 15 15 15 15-6.716 15-15-6.716-15-15-15zm85 90c-5.523 0-10 4.477-10 10s4.477 10 10 10 10-4.477 10-10-4.477-10-10-10zm-180-40c-5.523 0-10 4.477-10 10s4.477 10 10 10 10-4.477 10-10-4.477-10-10-10z" fill="#968dca"/></svg>