<svg id="Capa_1" enable-background="new 0 0 501 501" height="512" viewBox="0 0 501 501" width="512" xmlns="http://www.w3.org/2000/svg"><path d="m5.5 256c0-135.31 109.69-245 244.999-245 135.24 0 245.364 110.433 245 245.673-.232 86.483-45.275 162.43-113.133 205.849-4.115 2.633-9.345 2.702-13.622.341-35.058-19.355-75.365-30.371-118.244-30.371-43.053 0-83.513 11.105-118.67 30.607-4.004 2.221-8.906 2.156-12.767-.304-68.274-43.485-113.563-119.851-113.563-206.795z" fill="#6e61b5"/><path d="m412.483 218.559c1.47 1.631 2.917 3.284 4.343 4.958l-34.061 238.748c-38.152 24.516-83.548 38.735-132.265 38.735s-94.113-14.219-132.265-38.734l-34.061-238.748c1.426-1.675 2.874-3.328 4.343-4.958h323.966z" fill="#2abbc7"/><path d="m412.483 218.559c1.47 1.631 2.917 3.284 4.343 4.958l-34.061 238.748c-38.152 24.516-83.548 38.735-132.265 38.735-23.509 0-46.245-3.311-67.767-9.493l-38.233-267.989c1.426-1.675 2.874-3.328 4.343-4.958h263.64z" fill="#63bcfa"/><path d="m133.923 300h233.155l-26.222 183.8c-27.959 11.099-58.445 17.2-90.356 17.2s-62.397-6.101-90.355-17.2z" fill="#fc5426"/><path d="m193.348 384.13-12.003-84.13h185.732l-11.984 84.001c-5.234 36.685-34.671 65.271-71.526 69.127-.607.064-1.214.126-1.822.188-43.249 4.41-82.257-26.149-88.397-69.186z" fill="#fd7d43"/><path d="m399.5 221.383h-300c-8.284 0-15-6.716-15-15v-10c0-57.99 47.01-105 105-105h120c57.99 0 105 47.01 105 105v10c0 8.285-6.716 15-15 15z" fill="#75ccd4"/><path d="m400.5 221.383h-241c-8.284 0-15-6.716-15-15v-10c0-57.99 47.01-105 105-105h61c57.99 0 105 47.01 105 105v10c0 8.285-6.716 15-15 15z" fill="#91cefb"/><path d="m375.5 10v10c0 5.523-4.477 10-10 10h-100v63.5c0 5.523-4.477 10-10 10h-10c-5.523 0-10-4.477-10-10v-83.5c0-5.523 4.477-10 10-10h120c5.523 0 10 4.477 10 10z" fill="#012d4e"/><path d="m235.5 210v-118.616h30v118.616c0 5.523-4.477 10-10 10h-10c-5.523 0-10-4.477-10-10z" fill="#968dca"/><path d="m396.487 290.729c-.385 10.838-9.622 19.271-20.466 19.271h-251.042c-10.845 0-20.081-8.433-20.466-19.271-.321-9.034 5.351-16.79 13.352-19.602 3.985-1.401 6.635-5.186 6.635-9.41v-11.717c0-11.046 8.954-20 20-20h10v-20c0-11.046 8.954-20 20-20h10c5.523 0 10-4.477 10-10v-10c0-11.046 8.954-20 20-20h72c11.046 0 20 8.954 20 20v10c0 5.523 4.477 10 10 10h10c11.046 0 20 8.954 20 20v20h10c11.046 0 20 8.954 20 20v11.717c0 4.225 2.65 8.009 6.635 9.41 8.001 2.813 13.673 10.569 13.352 19.602z" fill="#fff5f5"/><path d="m430 240h-360c-8.284 0-15-6.716-15-15 0-8.284 6.716-15 15-15h360c8.284 0 15 6.716 15 15 0 8.284-6.716 15-15 15z" fill="#91cefb"/><path d="m431 240h-311c-8.284 0-15-6.716-15-15 0-8.284 6.716-15 15-15h311c8.284 0 15 6.716 15 15 0 8.284-6.716 15-15 15z" fill="#bbe0fb"/><path d="m154.5 210h192v10c0 5.523 4.477 10 10 10 7.403 0 13.866 4.022 17.324 10h-246.648c3.458-5.978 9.921-10 17.324-10 5.523 0 10-4.477 10-10z" fill="#e3f0fb"/></svg>