<svg id="Capa_1" enable-background="new 0 0 501 501" height="512" viewBox="0 0 501 501" width="512" xmlns="http://www.w3.org/2000/svg"><path d="m404.487 445.392c-41.199 31.437-92.662 50.108-148.487 50.108-135.31 0-245-109.69-245-245s109.69-245 245-245 245 109.69 245 245c0 30.302-5.501 59.32-15.56 86.108-49.94 51.392-80.953 108.784-80.953 108.784z" fill="#63bcfa"/><path d="m62.03 414.5-37.647-318.914h209.961l-37.646 318.914z" fill="#6d4336"/><path d="m147.192 315.717c-34.884 0-64.249-26.103-68.338-60.746l-18.815-159.385h174.306l-18.815 159.385c-4.089 34.643-33.455 60.746-68.338 60.746z" fill="#a64b30"/><path d="m411.159 414.5h-95.283l-37.646-318.914h209.961l-33.03 279.8c-2.633 22.307-21.541 39.114-44.002 39.114z" fill="#037e4b"/><path d="m401.038 315.717c-34.884 0-64.249-26.103-68.338-60.746l-18.815-159.385h174.306l-18.815 159.385c-4.089 34.643-33.454 60.746-68.338 60.746z" fill="#08b772"/><path d="m190 346.608h40l-16.297 82.652c-1.848 9.374-10.068 16.131-19.622 16.131h-126.544c-9.554 0-17.774-6.757-19.622-16.131l-8.41-42.652h-29.505c-5.523 0-10-4.477-10-10v-30c0-5.523 4.477-10 10-10h170c5.523 0 10 4.477 10 10zm93.732 0 16.297 82.652c1.848 9.374 10.068 16.131 19.622 16.131h84.836c33.485-25.551 60.189-59.535 76.944-98.783z" fill="#d98800"/><path d="m485.44 336.608c-16.325 43.479-44.655 81.086-80.953 108.783h-26.454c-9.554 0-17.774-6.757-19.622-16.131l-7.615-38.62c-.462-2.343-2.517-4.033-4.906-4.033h-123.777l-8.41 42.652c-1.848 9.374-10.068 16.131-19.622 16.131h-68.161c-9.554 0-17.774-6.757-19.622-16.131l-7.615-38.62c-.462-2.343-2.517-4.033-4.906-4.033h-13.777c-5.523 0-10-4.477-10-10v-30c0-5.523 4.477-10 10-10h405.44z" fill="#f4aa39"/><path d="m232.266 156.969-12.041 102c-.238 2.014-1.945 3.531-3.972 3.531h-173.777c-2.028 0-3.735-1.517-3.972-3.531l-12.041-102c-.281-2.378 1.577-4.469 3.972-4.469h197.859c2.395 0 4.253 2.09 3.972 4.469zm249.586-4.469h-197.858c-2.395 0-4.253 2.09-3.972 4.469l12.041 102c.238 2.014 1.945 3.531 3.972 3.531h173.777c2.028 0 3.735-1.517 3.972-3.531l12.041-102c.281-2.379-1.578-4.469-3.973-4.469z" fill="#f4aa39"/><path d="m232.266 156.969-12.041 102c-.238 2.014-1.945 3.531-3.972 3.531h-136.088c-.815-3.091-13.408-110-13.408-110h161.537c2.395 0 4.253 2.09 3.972 4.469zm249.586-4.469h-161.249l11.809 100.471c.384 3.257.784 6.438 1.599 9.529h135.8c2.028 0 3.735-1.517 3.972-3.531l12.041-102c.282-2.379-1.577-4.469-3.972-4.469z" fill="#f5b65d"/><path d="m110 247.5c-5.523 0-10-4.477-10-10v-60c0-5.523 4.477-10 10-10 5.523 0 10 4.477 10 10v60c0 5.523-4.477 10-10 10zm50-10v-60c0-5.523-4.477-10-10-10-5.523 0-10 4.477-10 10v60c0 5.523 4.477 10 10 10 5.523 0 10-4.477 10-10zm40 0v-60c0-5.523-4.477-10-10-10-5.523 0-10 4.477-10 10v60c0 5.523 4.477 10 10 10 5.523 0 10-4.477 10-10zm173.559 0v-60c0-5.523-4.477-10-10-10-5.523 0-10 4.477-10 10v60c0 5.523 4.477 10 10 10 5.523 0 10-4.477 10-10zm40 0v-60c0-5.523-4.477-10-10-10-5.523 0-10 4.477-10 10v60c0 5.523 4.477 10 10 10 5.523 0 10-4.477 10-10zm40 0v-60c0-5.523-4.477-10-10-10-5.523 0-10 4.477-10 10v60c0 5.523 4.477 10 10 10 5.523 0 10-4.477 10-10z" fill="#d98800"/><path d="m455 104.5v90h-10v-90z" fill="#006e42"/><path d="m465 194.5h-30c-2.761 0-5-2.239-5-5v-40c0-2.761 2.239-5 5-5h30c2.761 0 5 2.239 5 5v40c0 2.761-2.239 5-5 5z" fill="#5affb7"/><path d="m91.442 59.219v18.961c0 7.457-6.045 13.502-13.503 13.502-7.457 0-13.503-6.045-13.503-13.502v-18.961c0-7.457 6.045-13.503 13.503-13.503 7.457.001 13.503 6.046 13.503 13.503zm240.343-13.502c-7.457 0-13.503 6.045-13.503 13.503v18.961c0 7.457 6.045 13.502 13.503 13.502s13.503-6.045 13.503-13.502v-18.962c0-7.457-6.046-13.502-13.503-13.502z" fill="#f52c2c"/><path d="m214.02 97.429h-170.46c-5.289 0-9.576-4.287-9.576-9.576 0-10.578 8.575-19.153 19.153-19.153h151.307c10.578 0 19.153 8.575 19.153 19.153-.001 5.289-4.289 9.576-9.577 9.576zm263.422-9.576c0-10.578-8.575-19.153-19.153-19.153h-151.307c-10.578 0-19.153 8.575-19.153 19.153 0 5.289 4.288 9.576 9.576 9.576h170.46c5.29 0 9.577-4.287 9.577-9.576z" fill="#fdc273"/><path d="m214.594 97.429h-136.559c-5.289 0-9.576-4.287-9.576-9.576 0-10.578 8.575-19.153 19.153-19.153h117.407c10.578 0 19.153 8.575 19.153 19.153-.001 5.289-4.289 9.576-9.578 9.576zm263.423-9.576c0-10.578-8.575-19.153-19.153-19.153h-117.407c-10.578 0-19.153 8.575-19.153 19.153 0 5.289 4.288 9.576 9.576 9.576h136.56c5.289 0 9.577-4.287 9.577-9.576z" fill="#ffdf8e"/><path d="m232.215 118.569h-206.85c-7.933 0-14.365-6.431-14.365-14.365 0-7.933 6.431-14.365 14.365-14.365h206.85c7.933 0 14.365 6.431 14.365 14.365-.001 7.934-6.432 14.365-14.365 14.365zm268.21-14.364c0-7.933-6.431-14.365-14.365-14.365h-206.85c-7.933 0-14.365 6.431-14.365 14.365 0 7.933 6.431 14.365 14.365 14.365h206.85c7.934-.001 14.365-6.432 14.365-14.365z" fill="#fdd194"/><path d="m232.789 118.569h-167.204c-7.933 0-14.365-6.431-14.365-14.365 0-7.933 6.431-14.365 14.365-14.365h167.204c7.933 0 14.365 6.431 14.365 14.365 0 7.934-6.431 14.365-14.365 14.365zm268.211-14.364c0-7.933-6.431-14.365-14.365-14.365h-167.203c-7.933 0-14.365 6.431-14.365 14.365 0 7.933 6.431 14.365 14.365 14.365h167.204c7.933-.001 14.364-6.432 14.364-14.365z" fill="#fff2b4"/></svg>