<svg id="Capa_1" enable-background="new 0 0 501 501" height="512" viewBox="0 0 501 501" width="512" xmlns="http://www.w3.org/2000/svg"><path d="m495.5 256c0 130.493-102.02 237.158-230.651 244.587-.026.002-3.031-5.922-3.058-5.92-4.828.256-18.535.056-23.5-.208-.052-.003-2.092 6.131-2.141 6.128-128.63-7.429-230.65-114.094-230.65-244.587 0-135.31 109.69-245 245-245s245 109.69 245 245z" fill="#f52c2c"/><path d="m454.417 277.435c.444 1.517-.964 2.926-2.482 2.481l-12.393-3.63c-.367-.108-.757-.108-1.124 0l-12.393 3.63c-1.517.444-2.926-.964-2.482-2.481l3.63-12.393c.107-.367.107-.757 0-1.125l-3.63-12.393c-.444-1.517.964-2.926 2.482-2.482l12.393 3.63c.367.107.757.107 1.124 0l12.393-3.63c1.517-.444 2.926.964 2.482 2.482l-3.63 12.393c-.107.367-.107.757 0 1.125zm-378.961-45.91c.444-1.517-.964-2.926-2.482-2.482l-12.393 3.63c-.367.107-.757.107-1.124 0l-12.393-3.63c-1.517-.444-2.926.964-2.482 2.482l3.63 12.393c.108.367.108.757 0 1.125l-3.63 12.393c-.444 1.517.964 2.926 2.482 2.481l12.393-3.63c.367-.108.757-.108 1.124 0l12.393 3.63c1.517.444 2.926-.964 2.482-2.481l-3.63-12.393c-.107-.367-.107-.757 0-1.125z" fill="#f58057"/><path d="m259.926 5.859 55.381 112.214c1.531 3.102 4.491 5.253 7.914 5.75l123.836 17.994c8.622 1.253 12.064 11.848 5.826 17.929l-89.608 87.347c-2.477 2.415-3.608 5.894-3.023 9.304l21.154 123.335c1.473 8.587-7.54 15.135-15.251 11.081l-110.762-58.231c-3.062-1.61-6.721-1.61-9.783 0l-110.762 58.231c-7.711 4.054-16.724-2.494-15.251-11.081l21.154-123.335c.585-3.41-.546-6.889-3.023-9.304l-89.608-87.347c-6.239-6.081-2.796-16.676 5.826-17.929l123.836-17.994c3.424-.497 6.383-2.648 7.914-5.75l55.378-112.214c3.856-7.812 14.996-7.812 18.852 0z" fill="#ecb700"/><path d="m452.882 159.747-89.608 87.346c-2.477 2.415-3.608 5.894-3.023 9.304l.377 2.2c-79.46-14.487-146.196-65.439-182.235-134.882 3.161-.653 5.861-2.727 7.299-5.642l55.382-112.214c3.856-7.812 14.996-7.812 18.852 0l55.381 112.214c1.531 3.103 4.491 5.253 7.914 5.75l123.836 17.994c8.621 1.254 12.064 11.849 5.825 17.93z" fill="#fde803"/><path d="m319.456 236.156c0 39.688-18.852 66.765-45.264 76.706l-9.342 187.724c-4.748.274-9.533.414-14.35.414s-9.601-.139-14.35-.414l-9.342-187.724c-26.413-9.941-45.264-37.018-45.264-76.706 0-32.212 12.419-78.526 31.22-99.309.89-.983 2.523-.39 2.569.936l3.614 104.795c.159 4.625 3.955 8.292 8.583 8.292 4.611 0 8.4-3.642 8.581-8.25l3.104-78.631c.415-10.51 3.926-20.663 10.092-29.183.588-.812 1.797-.812 2.384 0 6.166 8.521 9.677 18.674 10.092 29.183l3.104 78.631c.182 4.608 3.97 8.25 8.581 8.25 4.628 0 8.424-3.667 8.583-8.292l3.614-104.795c.046-1.325 1.679-1.919 2.569-.936 18.803 20.784 31.222 67.097 31.222 99.309z" fill="#f7e6b0"/><path d="m288.236 136.848c18.801 20.783 31.22 67.096 31.22 99.309 0 10.082-1.217 19.349-3.464 27.729-12.603 15.382-30.687 23.769-50.778 23.769-38.083 0-68.956-30.137-68.956-80.926 0-24.629 7.26-49.591 19.081-68.771l3.608 104.621c.159 4.625 3.955 8.292 8.583 8.292 4.611 0 8.4-3.642 8.581-8.25l3.104-78.63c.415-10.51 3.926-20.663 10.092-29.184.588-.812 1.797-.812 2.384 0 6.166 8.521 9.677 18.674 10.092 29.184l3.104 78.63c.182 4.608 3.97 8.25 8.581 8.25 4.628 0 8.424-3.667 8.583-8.292l3.614-104.795c.048-1.326 1.681-1.92 2.571-.936zm37.758-40.499-10.942-15.564c-.349-.497-.454-1.125-.285-1.708l5.303-18.271c.527-1.815-1.525-3.281-3.071-2.194l-15.564 10.942c-.497.349-1.125.454-1.708.285l-18.271-5.303c-1.815-.527-3.28 1.525-2.194 3.071l10.942 15.564c.349.497.454 1.125.285 1.708l-5.303 18.271c-.527 1.815 1.525 3.281 3.071 2.194l15.564-10.942c.497-.349 1.125-.454 1.708-.285l18.271 5.303c1.816.527 3.281-1.525 2.194-3.071zm-175.333 206.196c-.349-.497-.454-1.125-.285-1.708l5.303-18.271c.527-1.815-1.525-3.28-3.071-2.193l-15.564 10.942c-.497.349-1.125.454-1.708.284l-18.271-5.303c-1.815-.527-3.28 1.525-2.194 3.071l10.942 15.564c.349.497.454 1.125.285 1.708l-5.303 18.271c-.527 1.815 1.525 3.28 3.071 2.194l15.564-10.942c.497-.349 1.125-.454 1.708-.285l18.271 5.303c1.815.527 3.28-1.525 2.194-3.071z" fill="#fff5f5"/></svg>