<svg id="Capa_1" enable-background="new 0 0 501 501" height="512" viewBox="0 0 501 501" width="512" xmlns="http://www.w3.org/2000/svg"><path d="m490 250.5c0 135.31-109.69 245-245 245-56.729 0-108.954-19.28-150.481-51.646-2.606-2.031-2.682-5.935-.185-8.098 51.86-44.923 84.666-111.258 84.666-185.256 0-71.53-30.654-135.901-79.543-180.692-5.158-4.726-4.692-12.98.952-17.113 40.527-29.674 90.513-47.195 144.591-47.195 135.31 0 245 109.69 245 245z" fill="#fd8f01"/><path d="m501 72v287c0 11.046-8.954 20-20 20h-444.637c-23.058-37.358-36.363-81.375-36.363-128.5 0-81.656 39.947-153.981 101.364-198.5h379.636c11.046 0 20 8.954 20 20z" fill="#6d4336"/><path d="m481 52h-379.636c-10.144 7.353-19.702 15.465-28.592 24.252.254-.251.508-.502.763-.752h230.465c8.284 0 15 6.716 15 15v200c0 8.284-6.716 15-15 15h-260c-8.284 0-15-6.716-15-15v-155.725c.18-.335.361-.67.543-1.005-18.841 34.703-29.543 74.466-29.543 116.73 0 27.456 4.516 53.856 12.846 78.5h468.154c11.046 0 20-8.954 20-20v-237c0-11.046-8.954-20-20-20zm-12 238.5c0 8.284-6.716 15-15 15h-90c-8.284 0-15-6.716-15-15v-91c0-8.284 6.716-15 15-15h90c8.284 0 15 6.716 15 15zm-60-120.521c-40.501 0-73.333-22.675-73.333-50.646s32.832-50.646 73.333-50.646 73.333 22.675 73.333 50.646-32.832 50.646-73.333 50.646z" fill="#a64b30"/><path d="m459 381.763v8.082c0 2.146-1.693 3.909-3.837 3.997l-273.846 11.157 253.869 11.769c2.135.099 3.815 1.859 3.815 3.996v8.082c0 2.146-1.693 3.909-3.837 3.997l-286.164 11.657c-3.636 0-6.583-2.947-6.583-6.583v-34.417l16.332-32.665c1.941-3.883 5.91-6.335 10.251-6.335l286.185 13.268c2.135.099 3.815 1.858 3.815 3.995z" fill="#fdc273"/><path d="m253.842 368.433c9.86.457 9.819 15.048-.043 15.45l-84.799 3.455v-22.838zm-104.842 35.067v22.838l84.799-3.455c9.862-.402 9.903-14.993.043-15.45z" fill="#ffdf8e"/><path d="m164 399.19c0 2.726-2.277 4.9-5 4.774l-11.833-.464v31c0 5.523-4.477 10-10 10h-41.816c-14.843-11.466-28.333-24.598-40.191-39.115-.003-.004-.006-.008-.009-.012-7.569-9.267-14.473-19.098-20.639-29.421.815-6.784 2.519-11.452 4.488-11.452h120.221c2.639 0 4.779 2.139 4.779 4.779z" fill="#ab2538"/><path d="m70.125 403.5h68.875c2.761 0 5 2.239 5 5v12.75c0 2.761-2.239 5-5 5h-64.696c-5.135-4.988-10.052-10.2-14.736-15.619 1.683-4.18 5.775-7.131 10.557-7.131zm20-39c-6.353 0-11.49 5.208-11.373 11.588.115 6.262 5.487 11.162 11.75 11.162h69.498c2.761 0 5-2.239 5-5v-11.75c0-3.314-2.686-6-6-6z" fill="#f52c2c"/><path d="m139 403.5h10v41h-10zm30 .927v-39.927h-10v39.464z" fill="#fc9368"/><path d="m299 135.5c0 24.853-20.147 45-45 45h-50c-11.526 0-22.039-4.333-30-11.459-7.961 7.126-18.474 11.459-30 11.459h-50c-24.853 0-45-20.147-45-45 0-24.853 20.147-45 45-45h50c11.526 0 22.039 4.333 30 11.459 7.961-7.126 18.474-11.459 30-11.459h50c24.853 0 45 20.147 45 45zm-45 65h-50c-11.526 0-22.039 4.333-30 11.459-7.961-7.126-18.474-11.459-30-11.459h-50c-24.853 0-45 20.147-45 45 0 24.853 20.147 45 45 45h50c11.526 0 22.039-4.333 30-11.459 7.961 7.126 18.474 11.459 30 11.459h50c24.853 0 45-20.147 45-45 0-24.853-20.147-45-45-45z" fill="#8279c0"/><path d="m299 135.5c0 24.853-20.147 45-45 45h-30c-17.415 0-32.519-9.893-40-24.365-7.481 14.472-22.585 24.365-40 24.365h-30c-24.853 0-45-20.147-45-45 0-24.853 20.147-45 45-45h30c17.415 0 32.519 9.893 40 24.365 7.481-14.472 22.585-24.365 40-24.365h30c24.853 0 45 20.147 45 45zm-45 65h-30c-17.415 0-32.519 9.893-40 24.365-7.481-14.472-22.585-24.365-40-24.365h-30c-24.853 0-45 20.147-45 45 0 24.853 20.147 45 45 45h30c17.415 0 32.519-9.893 40-24.365 7.481 14.472 22.585 24.365 40 24.365h30c24.853 0 45-20.147 45-45 0-24.853-20.147-45-45-45z" fill="#968dca"/><path d="m299 135.5c0 24.853-20.147 45-45 45-24.853 0-45-20.147-45-45 0-24.853 20.147-45 45-45 24.853 0 45 20.147 45 45zm-155-45c-24.853 0-45 20.147-45 45 0 24.853 20.147 45 45 45 24.853 0 45-20.147 45-45 0-24.853-20.147-45-45-45zm110 110c-24.853 0-45 20.147-45 45 0 24.853 20.147 45 45 45 24.853 0 45-20.147 45-45 0-24.853-20.147-45-45-45zm-110 0c-24.853 0-45 20.147-45 45 0 24.853 20.147 45 45 45 24.853 0 45-20.147 45-45 0-24.853-20.147-45-45-45z" fill="#fdf7bd"/><path d="m274 135.5c0 11.046-8.954 20-20 20s-20-8.954-20-20 8.954-20 20-20 20 8.954 20 20zm-130-20c-11.046 0-20 8.954-20 20s8.954 20 20 20 20-8.954 20-20-8.954-20-20-20zm110 110c-11.046 0-20 8.954-20 20s8.954 20 20 20 20-8.954 20-20-8.954-20-20-20zm-110 0c-11.046 0-20 8.954-20 20s8.954 20 20 20 20-8.954 20-20-8.954-20-20-20z" fill="#fc6930"/><path d="m267.167 140.5c2.761 0 5 2.239 5 5s-2.239 5-5 5-5-2.239-5-5 2.238-5 5-5zm-27.167 10c2.761 0 5-2.239 5-5s-2.239-5-5-5-5 2.239-5 5 2.239 5 5 5zm21.167-25c2.761 0 5-2.239 5-5s-2.239-5-5-5-5 2.239-5 5 2.238 5 5 5zm-5 15c2.761 0 5-2.239 5-5s-2.239-5-5-5-5 2.239-5 5 2.238 5 5 5zm-15.334-21.167c-2.761 0-5 2.239-5 5s2.239 5 5 5 5-2.239 5-5-2.238-5-5-5zm-83.666 21.167c-2.761 0-5 2.239-5 5s2.239 5 5 5 5-2.239 5-5-2.239-5-5-5zm-27.167 10c2.761 0 5-2.239 5-5s-2.239-5-5-5-5 2.239-5 5 2.239 5 5 5zm21.167-25c2.761 0 5-2.239 5-5s-2.239-5-5-5-5 2.239-5 5 2.238 5 5 5zm-5 15c2.761 0 5-2.239 5-5s-2.239-5-5-5-5 2.239-5 5 2.238 5 5 5zm-15.334-21.167c-2.761 0-5 2.239-5 5s2.239 5 5 5 5-2.239 5-5-2.238-5-5-5zm136.334 131.167c-2.761 0-5 2.239-5 5s2.239 5 5 5 5-2.239 5-5-2.239-5-5-5zm-27.167 0c-2.761 0-5 2.239-5 5s2.239 5 5 5 5-2.239 5-5-2.239-5-5-5zm26.167-20c0-2.761-2.239-5-5-5s-5 2.239-5 5 2.239 5 5 5 5-2.239 5-5zm-10 10c-2.761 0-5 2.239-5 5s2.239 5 5 5 5-2.239 5-5-2.239-5-5-5zm-15.334-11.167c-2.761 0-5 2.239-5 5s2.239 5 5 5 5-2.239 5-5-2.238-5-5-5zm-83.666 21.167c-2.761 0-5 2.239-5 5s2.239 5 5 5 5-2.239 5-5-2.239-5-5-5zm-27.167 0c-2.761 0-5 2.239-5 5s2.239 5 5 5 5-2.239 5-5-2.239-5-5-5zm26.167-20c0-2.761-2.239-5-5-5s-5 2.239-5 5 2.239 5 5 5 5-2.239 5-5zm-10 10c-2.761 0-5 2.239-5 5s2.239 5 5 5 5-2.239 5-5-2.239-5-5-5zm-15.334-11.167c-2.761 0-5 2.239-5 5s2.239 5 5 5 5-2.239 5-5-2.238-5-5-5z" fill="#d63d24"/><path d="m274 93c2.761 0 5 3.358 5 7.5s-2.239 7.5-5 7.5-5-3.358-5-7.5 2.239-7.5 5-7.5zm-18.626 78.874c4.142 0 7.5-2.239 7.5-5s-3.358-5-7.5-5-7.5 2.239-7.5 5 3.358 5 7.5 5zm30.09-27.838c2.929 2.929 6.886 3.72 8.839 1.768 1.953-1.953 1.161-5.91-1.768-8.839s-6.886-3.72-8.839-1.768c-1.952 1.952-1.16 5.91 1.768 8.839zm7.072 12.928c-2.929-2.929-6.886-3.72-8.839-1.768-1.953 1.953-1.161 5.91 1.768 8.839s6.886 3.72 8.839 1.768c1.952-1.952 1.16-5.91-1.768-8.839zm-63.626-16.374c-2.929-2.929-6.886-3.72-8.839-1.768s-1.161 5.91 1.768 8.839 6.886 3.72 8.839 1.768 1.161-5.91-1.768-8.839zm17.59-40.09c-4.142 0-7.5 2.239-7.5 5s3.358 5 7.5 5 7.5-2.239 7.5-5-3.358-5-7.5-5zm-87.5 0c0 4.142 2.239 7.5 5 7.5s5-3.358 5-7.5-2.239-7.5-5-7.5-5 3.358-5 7.5zm-13.626 71.374c4.142 0 7.5-2.239 7.5-5s-3.358-5-7.5-5-7.5 2.239-7.5 5 3.358 5 7.5 5zm30.09-27.838c2.929 2.929 6.886 3.72 8.839 1.768s1.161-5.91-1.768-8.839-6.886-3.72-8.839-1.768-1.16 5.91 1.768 8.839zm7.072 12.928c-2.929-2.929-6.886-3.72-8.839-1.768s-1.161 5.91 1.768 8.839 6.886 3.72 8.839 1.768 1.16-5.91-1.768-8.839zm-63.626-16.374c-2.929-2.929-6.886-3.72-8.839-1.768s-1.161 5.91 1.768 8.839 6.886 3.72 8.839 1.768 1.161-5.91-1.768-8.839zm17.59-40.09c-4.142 0-7.5 2.239-7.5 5s3.358 5 7.5 5 7.5-2.239 7.5-5-3.358-5-7.5-5zm132.5 110c0 4.142 2.239 7.5 5 7.5s5-3.358 5-7.5-2.239-7.5-5-7.5-5 3.358-5 7.5zm-13.626 71.374c4.142 0 7.5-2.239 7.5-5s-3.358-5-7.5-5-7.5 2.239-7.5 5 3.358 5 7.5 5zm30.09-27.838c2.929 2.929 6.886 3.72 8.839 1.768 1.953-1.953 1.161-5.91-1.768-8.839s-6.886-3.72-8.839-1.768c-1.952 1.952-1.16 5.91 1.768 8.839zm7.072 12.928c-2.929-2.929-6.886-3.72-8.839-1.768-1.953 1.953-1.161 5.91 1.768 8.839s6.886 3.72 8.839 1.768c1.952-1.952 1.16-5.91-1.768-8.839zm-63.626-16.374c-2.929-2.929-6.886-3.72-8.839-1.768s-1.161 5.91 1.768 8.839 6.886 3.72 8.839 1.768c1.952-1.953 1.161-5.91-1.768-8.839zm17.59-40.09c-4.142 0-7.5 2.239-7.5 5s3.358 5 7.5 5 7.5-2.239 7.5-5-3.358-5-7.5-5zm-87.5 0c0 4.142 2.239 7.5 5 7.5s5-3.358 5-7.5-2.239-7.5-5-7.5-5 3.358-5 7.5zm-13.626 71.374c4.142 0 7.5-2.239 7.5-5s-3.358-5-7.5-5-7.5 2.239-7.5 5 3.358 5 7.5 5zm30.09-27.838c2.929 2.929 6.886 3.72 8.839 1.768s1.161-5.91-1.768-8.839-6.886-3.72-8.839-1.768-1.16 5.91 1.768 8.839zm7.072 12.928c-2.929-2.929-6.886-3.72-8.839-1.768-1.953 1.953-1.161 5.91 1.768 8.839s6.886 3.72 8.839 1.768c1.952-1.952 1.16-5.91-1.768-8.839zm-63.626-16.374c-2.929-2.929-6.886-3.72-8.839-1.768s-1.161 5.91 1.768 8.839 6.886 3.72 8.839 1.768c1.952-1.953 1.161-5.91-1.768-8.839zm17.59-40.09c-4.142 0-7.5 2.239-7.5 5s3.358 5 7.5 5 7.5-2.239 7.5-5-3.358-5-7.5-5z" fill="#ffdf8e"/><path d="m423.53 221.773c0 15.062-6.716 27.273-15 27.273s-15-12.21-15-27.273c0-15.062 6.716-27.273 15-27.273s15 12.21 15 27.273z" fill="#fbc0ad"/><path d="m423.53 267.227c0 15.062-6.716 27.273-15 27.273s-15-12.21-15-27.273c0-5.814 1.001-11.203 2.706-15.63-4.686-.736-9.853-2.564-14.889-5.471-13.044-7.531-20.261-19.452-16.119-26.627s18.075-6.885 31.119.646c10.233 5.908 16.879 14.517 17.269 21.417 5.781 3.79 9.914 13.85 9.914 25.665z" fill="#f89575"/><path d="m435.712 242.873c13.044 7.531 20.261 19.452 16.119 26.627-4.142 7.174-18.075 6.885-31.119-.646s-20.261-19.452-16.119-26.627c4.143-7.174 18.075-6.885 31.119.646z" fill="#fdcbbb"/><path d="m381.348 242.873c13.044-7.531 26.977-7.82 31.119-.646s-3.075 19.096-16.119 26.627-26.977 7.82-31.119.646c-4.143-7.174 3.074-19.096 16.119-26.627z" fill="#fbc0ad"/><path d="m420.712 220.146c13.044-7.531 26.977-7.82 31.119-.646s-3.075 19.096-16.119 26.627-26.977 7.82-31.119.646c-4.142-7.175 3.075-19.096 16.119-26.627z" fill="#fc9368"/><path d="m461.333 119.333c0 18.938-23.43 34.289-52.333 34.289s-52.333-15.352-52.333-34.289 23.43-34.289 52.333-34.289 52.333 15.352 52.333 34.289z" fill="#04d481"/><path d="m388.569 119.333c0 4.379 2.018 8.423 5.431 11.695-11.019-2.507-18.288-6.809-18.288-11.695s7.269-9.188 18.288-11.695c-3.413 3.272-5.431 7.317-5.431 11.695zm20.431-7.143c-5.917 0-10.714 3.198-10.714 7.143s4.797 7.143 10.714 7.143 10.714-3.198 10.714-7.143-4.797-7.143-10.714-7.143zm15-4.552c3.413 3.271 5.431 7.316 5.431 11.695s-2.018 8.423-5.431 11.695c11.019-2.507 18.288-6.809 18.288-11.695s-7.269-9.187-18.288-11.695z" fill="#06995f"/></svg>