<svg id="Capa_1" enable-background="new 0 0 501 501" height="512" viewBox="0 0 501 501" width="512" xmlns="http://www.w3.org/2000/svg"><path d="m260.094 500.542c-5.061.308-10.164.462-15.304.457-135.952-.113-245.172-109.751-244.789-245.703.38-134.986 109.924-244.296 244.999-244.296 118.175 0 216.809 83.669 239.894 195-119.235 0-215.894 96.659-215.894 215.894v69.221c0 5.006-3.909 9.124-8.906 9.427z" fill="#fde803"/><path d="m489.606 270h-130.606v-230.917c77.893 41.02 131 122.767 131 216.917 0 4.699-.132 9.367-.394 14zm-160.606-155c0-2.761-2.239-5-5-5h-275.765c-30.305 40.775-48.235 91.293-48.235 146 0 4.699.132 9.367.394 14h328.606zm0-40v-49.221c-26.2-9.562-54.491-14.779-84-14.779-66.24 0-126.34 26.288-170.438 69h249.438c2.761 0 5-2.239 5-5zm-54.333 225h-110.667c-2.761 0-5 2.239-5 5v180.481c26.758 10.032 55.738 15.519 86 15.519 4.873 0 9.713-.142 14.516-.423 8.513-.498 15.15-7.574 15.15-16.102v-184.475zm-150.667 0h-120.06c13.497 74.43 60.618 137.148 125.06 171.852v-166.852c0-2.761-2.239-5-5-5z" fill="#f5c02c"/><path d="m165.964 390h103.036v20h-108.036c-24.853 0-45-20.147-45-45v-145h20v140c0 16.569 13.432 30 30 30z" fill="#cd9e00"/><path d="m501 190v40c0 5.523-4.477 10-10 10h-52c-5.523 0-10-4.477-10-10v-40c0-5.523 4.477-10 10-10h52c5.523 0 10 4.477 10 10zm-172-50h-50c-11.046 0-20 8.954-20 20v20c-5.523 0-10 4.477-10 10v40c0 5.523 4.477 10 10 10v20c-5.523 0-10 4.477-10 10v40c0 5.523 4.477 10 10 10v180.606c10.247-.577 20.325-1.784 30.197-3.583 11.499-2.095 19.803-12.202 19.803-23.89v-313.133c0-11.046 8.954-20 20-20z" fill="#5b3374"/><path d="m490 160s-.021 101.071-.063 101.598c-.909 40.562-11.676 78.691-30 112.086-45.305 82.569-170.937 50.154-170.937-44.028v-169.656c0-11.046 8.954-20 20-20h161c11.046 0 20 8.954 20 20z" fill="#6354b0"/><path d="m394.5 167h-40c-2.761 0-5-2.239-5-5 0-2.761 2.239-5 5-5h40c2.761 0 5 2.239 5 5 0 2.761-2.239 5-5 5z" fill="#5b3374"/><path d="m289 497.06v-307.06c0-5.523 4.477-10 10-10h151c5.523 0 10 4.477 10 10v183.569c-34.873 63.637-97.176 110.104-171 123.491z" fill="#e3f0fb"/><path d="m313.833 470c0-5.523 4.477-10 10-10s10 4.477 10 10-4.477 10-10 10c-5.522 0-10-4.477-10-10zm104.771-41.123c-.558-4.994-4.793-8.877-9.937-8.877h-69.667c-5.523 0-10 4.477-10 10s4.477 10 10 10h67.772c4.066-3.577 8.012-7.287 11.832-11.123z" fill="#91cefb"/><path d="m423.833 400h-100c-5.523 0-10-4.477-10-10 0-5.523 4.477-10 10-10h100c5.523 0 10 4.477 10 10 0 5.523-4.477 10-10 10zm-64.833 60c-5.523 0-10 4.477-10 10 0 2.566.967 4.906 2.556 6.677 5.845-2.828 11.561-5.881 17.136-9.148-1.1-4.328-5.022-7.529-9.692-7.529z" fill="#2abbc7"/><path d="m339.73 240.245v114.545c0 1.71-1.386 3.096-3.096 3.096h-24.872c-1.71 0-3.096-1.386-3.096-3.096v-114.545c0-1.71 1.386-3.096 3.096-3.096h24.872c1.71.001 3.096 1.387 3.096 3.096z" fill="#d98800"/><path d="m439 240.245v114.545c0 1.71-1.386 3.096-3.096 3.096h-101.904c-1.71 0-3.096-1.386-3.096-3.096v-114.545c0-1.71 1.386-3.096 3.096-3.096h101.904c1.71.001 3.096 1.387 3.096 3.096z" fill="#f4aa39"/><path d="m400.838 226.005v20.432c0 2.258-1.837 4.096-4.096 4.096s-4.096-1.837-4.096-4.096v-20.432c0-10.374-8.439-18.813-18.813-18.813-10.373 0-18.813 8.439-18.813 18.813v20.432c0 2.258-1.837 4.096-4.096 4.096s-4.097-1.837-4.097-4.096v-20.432c0-14.891 12.114-27.005 27.005-27.005s27.006 12.114 27.006 27.005z" fill="#d63d24"/><path d="m344.423 237.15h12.383v20.123c0 .855-.693 1.548-1.548 1.548h-9.287c-.855 0-1.548-.693-1.548-1.548zm46.437 0v20.123c0 .855.693 1.548 1.548 1.548h9.287c.855 0 1.548-.693 1.548-1.548v-20.123z" fill="#d98800"/><path d="m121.966 239.066-69.325-88.766c-28.923-37.034-25.69-89.823 7.538-123.05 36.332-36.332 95.239-36.332 131.571 0 33.227 33.227 36.461 86.016 7.538 123.05l-69.325 88.767c-2.032 2.6-5.966 2.6-7.997-.001z" fill="#ab2538"/><path d="m191.75 27.25c-29.601-29.602-74.185-35.083-109.338-16.45-35.165 40.536-37.139 100.791-3.649 143.673l58.633 75.075 61.892-79.249c28.923-37.034 25.689-89.822-7.538-123.049zm-65.786 114.936c-29.498 0-53.411-23.913-53.411-53.411s23.913-53.411 53.411-53.411 53.411 23.913 53.411 53.411-23.913 53.411-53.411 53.411z" fill="#f52c2c"/><path d="m189.999 57.072-55 55c-1.953 1.953-4.512 2.929-7.071 2.929s-5.119-.976-7.071-2.929l-25-25c-3.905-3.905-3.905-10.237 0-14.143s10.237-3.905 14.143 0l17.928 17.929 47.929-47.929c3.905-3.905 10.237-3.905 14.143 0 3.904 3.905 3.904 10.237-.001 14.143z" fill="#fff5f5"/></svg>