<svg id="Capa_1" enable-background="new 0 0 501 501" height="512" viewBox="0 0 501 501" width="512" xmlns="http://www.w3.org/2000/svg"><path d="m217.598 410c-111.444 0-202.975-88.899-205.239-200.319-.141-6.943.119-12.04.795-14.681 27.111-105.797 123.096-184 237.346-184 135.31 0 245 109.69 245 245 0 54.46-17.769 104.77-47.826 145.448-3.985 5.394-10.317 8.552-17.023 8.552z" fill="#63bcfa"/><path d="m80 130v241.432c0 21.443-28.265 29.43-39.353 11.076-22.309-36.927-35.147-80.218-35.147-126.508v-126c0-5.523 4.477-10 10-10h54.5c5.523 0 10 4.477 10 10z" fill="#d98800"/><path d="m426.5 130v196.307c0 93.556-73.675 171.226-167.172 174.537-2.93.104-5.873.156-8.828.156-89.469 0-167.737-47.958-210.5-119.569v-261.431h376.5c5.523 0 10 4.477 10 10z" fill="#f4aa39"/><path d="m300 84v66c0 5.523-4.478 10-10 10s-10-4.477-10-10v-66c0-35.29-28.71-64-64-64s-64 28.71-64 64v66c0 5.523-4.477 10-10 10s-10-4.477-10-10v-66c0-46.318 37.682-84 84-84 46.317 0 84 37.682 84 84z" fill="#d63d24"/><path d="m121 120h40v65c0 2.761-2.239 5-5 5h-30c-2.761 0-5-2.239-5-5zm150 0v65c0 2.761 2.239 5 5 5h30c2.761 0 5-2.239 5-5v-65z" fill="#d98800"/><path d="m412.6 254.696c-8.874 0-16.067-7.193-16.067-16.067v-22.562c0-8.874 7.193-16.067 16.067-16.067 8.874 0 16.067 7.193 16.067 16.067v22.562c0 8.873-7.194 16.067-16.067 16.067z" fill="#f52c2c"/><path d="m219.425 259.34h249.834l-21.469 141.952c-43.606 59.113-113.144 97.926-191.823 99.648z" fill="#5b3374"/><path d="m303.702 495.207-35.673-235.867h201.23l-21.469 141.952c-34.541 46.823-85.351 80.91-144.088 93.915z" fill="#6354b0"/><path d="m446.213 261.533h-205.11c-5.664 0-10.255-4.592-10.255-10.255v-3.418c0-11.328 9.183-20.511 20.511-20.511h184.599c11.328 0 20.511 9.183 20.511 20.511v3.418c-.001 5.663-4.592 10.255-10.256 10.255z" fill="#fdc273"/><path d="m446.897 261.533h-164.772c-5.664 0-10.255-4.592-10.255-10.255v-3.418c0-11.328 9.183-20.511 20.511-20.511h144.26c11.328 0 20.511 9.183 20.511 20.511v3.418c0 5.663-4.591 10.255-10.255 10.255z" fill="#ffdf8e"/><path d="m473.561 286.688h-259.806c-5.664 0-10.255-4.592-10.255-10.255v-13.674c0-5.664 4.592-10.255 10.255-10.255h259.805c5.664 0 10.255 4.592 10.255 10.255v13.674c.001 5.663-4.59 10.255-10.254 10.255z" fill="#fdd194"/><path d="m474.245 286.688h-212.63c-5.664 0-10.255-4.592-10.255-10.255v-13.674c0-5.664 4.592-10.255 10.255-10.255h212.63c5.664 0 10.255 4.592 10.255 10.255v13.674c0 5.663-4.592 10.255-10.255 10.255z" fill="#fff2b4"/></svg>