<svg id="Capa_1" enable-background="new 0 0 501 501" height="512" viewBox="0 0 501 501" width="512" xmlns="http://www.w3.org/2000/svg"><path d="m81.354 414.736c-7.735 0-15.086-3.528-19.797-9.663-31.709-41.296-50.557-92.983-50.557-149.073 0-135.31 109.69-245 245-245s245 109.69 245 245c0 54.029-17.489 103.973-47.115 144.48-6.537 8.938-16.917 14.256-27.99 14.256z" fill="#63bcfa"/><path d="m450 195c0-8.284 6.716-15 15-15h23.983c3.177 9.746 5.76 19.76 7.705 30h-31.688c-8.284 0-15-6.716-15-15zm5 45h-80c-8.284 0-15-6.716-15-15s6.716-15 15-15h40c8.284 0 15-6.716 15-15s-6.716-15-15-15h-170c-8.284 0-15 6.716-15 15s6.716 15 15 15h80c8.284 0 15 6.716 15 15s-6.716 15-15 15h-50c-8.284 0-15 6.716-15 15s6.716 15 15 15h20c8.284 0 15 6.716 15 15s-6.716 15-15 15h50c-8.284 0-15-6.716-15-15s6.716-15 15-15h110c8.284 0 15-6.716 15-15s-6.716-15-15-15z" fill="#91cefb"/><path d="m140.936 472.354c-31.114-16.582-58.23-39.679-79.526-67.471l-7.491-64.883-34.831-301.654h71.735l43.564 377.287z" fill="#f7e6b0"/><path d="m318.539 38.346-32.295 279.688c-.885 7.666-2.69 15.023-5.297 21.966-13.28 35.369-47.369 60-86.678 60-39.308 0-73.398-24.631-86.678-60-2.607-6.943-4.412-14.3-5.297-21.966l-32.294-279.688z" fill="#fff5f5"/><path d="m290.917 40.974h-245.845c-6.789 0-12.292-5.503-12.292-12.292v-4.097c-.001-13.578 11.006-24.585 24.584-24.585h221.261c13.578 0 24.585 11.007 24.585 24.585v4.097c-.001 6.789-5.505 12.292-12.293 12.292z" fill="#5b3374"/><path d="m291.736 40.974h-197.495c-6.789 0-12.292-5.503-12.292-12.292v-4.097c-.001-13.578 11.006-24.585 24.584-24.585h172.911c13.578 0 24.585 11.007 24.585 24.585v4.097c-.001 6.789-5.504 12.292-12.293 12.292z" fill="#54469b"/><path d="m323.696 71.125h-311.404c-6.789 0-12.292-5.503-12.292-12.292v-16.39c0-6.789 5.503-12.292 12.292-12.292h311.404c6.789 0 12.292 5.503 12.292 12.292v16.39c0 6.789-5.503 12.292-12.292 12.292z" fill="#6f3f89"/><path d="m324.515 71.125h-254.859c-6.789 0-12.292-5.503-12.292-12.292v-16.39c0-6.789 5.503-12.292 12.292-12.292h254.859c6.789 0 12.292 5.503 12.292 12.292v16.39c.001 6.789-5.503 12.292-12.292 12.292z" fill="#6e61b5"/><path d="m263.34 151.147-25.47 220.577-5.557 48.128c-1.326 11.483-11.049 20.148-22.608 20.148h-85.291c-11.559 0-21.283-8.665-22.608-20.148l-5.557-48.128-25.47-220.577c-.686-5.938 3.956-11.147 9.934-11.147h71.963c3.458-5.978 9.921-10 17.324-10 3.972 0 7.673 1.158 10.785 3.154 3.097-13.27 15.002-23.154 29.215-23.154 16.569 0 30 13.431 30 30h13.406c5.977 0 10.619 5.209 9.934 11.147z" fill="#fdc273"/><path d="m157.334 440h-32.921c-11.559 0-21.283-8.665-22.608-20.148l-5.557-48.128-25.469-220.577c-.686-5.938 3.956-11.147 9.934-11.147h32.921c-5.977 0-10.62 5.209-9.934 11.147l25.469 220.577 5.557 48.128c1.325 11.483 11.049 20.148 22.608 20.148z" fill="#f8bb5e"/><path d="m257.579 201.035-19.709 170.69-5.557 48.128c-1.326 11.482-11.049 20.147-22.608 20.147h-85.291c-11.559 0-21.282-8.665-22.608-20.148l-5.557-48.128-19.709-170.69h181.039z" fill="#a64b30"/><path d="m209.705 440h-52.371c-11.559 0-21.282-8.665-22.608-20.148l-5.557-48.128-19.709-170.69h148.12l-19.709 170.69-5.557 48.128c-1.327 11.483-11.05 20.148-22.609 20.148z" fill="#c64b1a"/><path d="m252.324 246.552-14.454 125.172-5.557 48.128c-1.326 11.483-11.049 20.148-22.608 20.148h-85.291c-11.559 0-21.282-8.665-22.608-20.148l-5.557-48.128-14.454-125.172z" fill="#6d4336"/><path d="m252.324 246.552-14.454 125.172-3.011 26.074c-6.493 1.442-13.232 2.202-20.131 2.202-39.308 0-73.398-24.631-86.678-60-2.607-6.943-4.412-14.3-5.297-21.966l-8.039-71.482z" fill="#8b3d27"/><path d="m454.154 400.112c-44.547 61.148-116.71 100.888-198.154 100.888-22.696 0-44.67-3.087-65.528-8.862v.001c-.003-.001-.006-.002-.009-.003-.544-.151-1.087-.303-1.63-.457-4.897-1.103-14.854-1.68-18.509-1.678h-.143c-34.141 0-61.818-4.624-61.818-35 0-29.68 26.423-53.868 59.482-54.961 3.29-10.534 8.263-19.954 14.488-27.703 11.112-13.833 26.213-22.337 42.849-22.337 3.037 0 6.024.284 8.944.831 13.949-36.068 42.768-60.831 76.056-60.831s62.106 24.763 76.056 60.831c2.92-.548 5.906-.831 8.944-.831 51.818 0 58.429 50.081 58.972 50.112z" fill="#d98800"/><path d="m386.238 350.832c-29.903 5.608-52.875 38.916-52.875 79.168v.097c.005 5.093-5.107 8.521-9.819 6.589-22.243-9.124-38.363-36.057-38.363-67.862 0-39.841 25.294-72.036 56.234-71.159h.001c19.517 9.984 35.494 29.048 44.822 53.167zm25.535 22.697c-18.451 0-33.409 19.357-33.409 43.235 0 17.333 7.882 32.284 19.261 39.178 17.659-12.531 33.586-27.342 47.351-44.005-1.855-21.605-16.013-38.408-33.203-38.408zm-184.644-23.49c-18.473 2.561-32.859 22.798-32.859 47.385 0 20.16 9.673 37.397 23.34 44.362.042.021.084.042.127.063 6.077 2.981 12.836-2.6 11.256-9.182-2.477-10.321-3.811-21.292-3.811-32.667 0-17.673 3.221-34.372 8.944-49.169-2.294-.43-4.629-.697-6.997-.792zm-68.536 64.697c-11.649 0-21.093 8.193-21.093 18.299s9.444 12.632 21.093 12.632 17.74-2.526 17.74-12.632-6.091-18.299-17.74-18.299z" fill="#f4aa39"/></svg>