<svg id="Capa_1" enable-background="new 0 0 501 501" height="512" viewBox="0 0 501 501" width="512" xmlns="http://www.w3.org/2000/svg"><path d="m495.5 256c0 135.31-109.69 245-245 245s-245-109.69-245-245 109.69-245 245-245 245 109.69 245 245z" fill="#fded32"/><path d="m320.297 197.102c0 34.738-28.161 62.898-62.899 62.898-26.681 0-49.482-16.613-58.624-40.06-25.294-6.023-44.275-31.285-44.275-61.535 0-34.738 25.032-62.898 55.91-62.898 23.313 0 43.294 16.053 51.685 38.869 32.545 2.402 58.203 29.567 58.203 62.726zm-206.538-22.899c-34.738 0-62.899 28.161-62.899 62.899s28.161 62.898 62.899 62.898 62.899-28.161 62.899-62.898c0-34.739-28.161-62.899-62.899-62.899z" fill="#49cb5c"/><path d="m225.765 220.358c27.94 60.097 24.2 121.084-8.352 136.218s-81.591-21.316-109.531-81.412-24.2-121.084 8.352-136.218 81.591 21.315 109.531 81.412z" fill="#8b3d27"/><path d="m217.413 356.576c-1.446.672-2.924 1.242-4.431 1.713-27.351-14.373-57.425-49.368-78.803-95.351s-28.751-91.533-22.111-121.708c1.332-.849 2.72-1.612 4.166-2.284 32.552-15.134 81.591 21.315 109.531 81.412s24.201 121.084-8.352 136.218z" fill="#c64b1a"/><path d="m133.145 142.112c-2.328-5.008-.156-10.956 4.852-13.284 5.008-2.329 10.955-.156 13.284 4.852s.156 10.956-4.852 13.284-10.956.156-13.284-4.852zm-27.84 34.999c-5.008 2.328-7.181 8.275-4.852 13.284 2.328 5.008 8.276 7.18 13.284 4.852s7.18-8.276 4.852-13.284c-2.329-5.008-8.276-7.181-13.284-4.852zm-10.341 48.919c-5.008 2.328-7.18 8.276-4.852 13.284s8.276 7.181 13.284 4.852c5.008-2.328 7.18-8.275 4.852-13.284-2.328-5.008-8.275-7.181-13.284-4.852zm59.896-60.93c-5.008 2.329-7.18 8.276-4.852 13.284s8.276 7.181 13.284 4.852c5.008-2.328 7.18-8.275 4.852-13.284-2.328-5.008-8.276-7.181-13.284-4.852zm24.492 61.616c-5.008 2.328-7.18 8.275-4.852 13.284 2.328 5.008 8.276 7.181 13.284 4.852 5.008-2.328 7.18-8.275 4.852-13.284-2.329-5.007-8.276-7.18-13.284-4.852zm-49.065 24.219c-5.008 2.328-7.18 8.275-4.852 13.284 2.328 5.008 8.276 7.18 13.284 4.852s7.18-8.275 4.852-13.284-8.276-7.181-13.284-4.852zm7.591-39.342c-5.008 2.328-7.18 8.275-4.852 13.284 2.328 5.008 8.276 7.18 13.284 4.852s7.18-8.275 4.852-13.284c-2.329-5.008-8.276-7.181-13.284-4.852zm83.401-22.233c-2.328-5.008-8.276-7.181-13.284-4.852-5.008 2.328-7.18 8.275-4.852 13.284 2.328 5.008 8.276 7.181 13.284 4.852 5.008-2.328 7.18-8.275 4.852-13.284z" fill="#8b3d27"/><path d="m356.077 296.921c-18.2 7.694-37.987 6.167-54.157-2.469-5.072 17.616-17.764 32.873-35.963 40.567-31.996 13.526-68.9-1.446-82.426-33.442-13.129-31.057.592-66.737 30.669-81.175-1.471-24.592 10.712-47.564 32.426-56.744s46.681-1.914 63.296 16.276c31.313-11.515 66.467 3.503 79.597 34.56 13.527 31.997-1.446 68.9-33.442 82.427z" fill="#ecb700"/><path d="m237.225 339.854c-22.917-1.566-44.138-15.674-53.694-38.277-13.129-31.057.592-66.737 30.669-81.175-1.471-24.592 10.712-47.564 32.426-56.744 17.015-7.193 36.027-4.288 51.453 6.059-7.231-.248-14.508 1.005-21.453 3.941-18.728 7.917-30.367 26.095-32.269 46.723-.56 6.066-3.732 11.541-8.742 15.007-23.986 16.597-33.891 48.262-22.085 76.189 5.091 12.04 13.491 21.67 23.695 28.277z" fill="#f19b0b"/><path d="m401.33 28.759c21.479 21.479 43.841 62.225 0 106.066s-84.587 21.479-106.066 0 20.208-27.279 49.497-56.569c29.29-29.289 35.09-70.976 56.569-49.497zm-229.411 52.985c29.289 29.289 35.09 70.976 56.569 49.497s43.841-62.225 0-106.066-84.587-21.479-106.066 0 20.207 27.279 49.497 56.569z" fill="#f4aa39"/><path d="m408.401 88.863c2.929 2.929 2.929 7.678 0 10.606-2.929 2.929-7.678 2.929-10.607 0l-11.208-11.208c-3.112-3.112-8.212-2.836-11.005.566-.032.039-.064.078-.096.117-2.418 2.94-2.186 7.243.505 9.935l18.046 18.046c2.904 2.904 3.198 7.674.383 10.663-2.913 3.094-7.784 3.149-10.768.166l-18.268-18.268c-2.692-2.692-6.995-2.923-9.935-.505-.039.032-.078.064-.117.096-3.401 2.793-3.678 7.893-.566 11.005l10.985 10.985c2.904 2.904 3.199 7.674.384 10.663-2.913 3.094-7.785 3.149-10.768.166l-14.702-14.703c-2.485-2.485-6.375-2.883-9.317-.961-10.817 7.067-19.973 12.798-24.504 18.59-4.3-3.177-8.182-6.598-11.581-9.997-21.479-21.479 20.208-27.279 49.498-56.568 29.289-29.29 35.09-70.977 56.569-49.498 3.399 3.399 6.82 7.28 9.997 11.581-5.792 4.531-11.523 13.687-18.59 24.504-1.922 2.942-1.524 6.832.961 9.317zm-187.545-3.024 14.48-14.48c2.723-2.723 3.214-7.124.828-10.147-2.838-3.595-8.072-3.822-11.213-.682l-11.208 11.208c-3.112 3.112-8.212 2.836-11.005-.566-.032-.039-.064-.078-.096-.117-2.418-2.94-2.186-7.243.505-9.935l18.046-18.046c2.904-2.904 3.198-7.673.383-10.663-2.913-3.093-7.784-3.149-10.767-.166l-18.268 18.268c-2.692 2.692-6.995 2.923-9.935.505-.039-.032-.078-.064-.117-.096-3.401-2.793-3.678-7.893-.566-11.005l10.985-10.986c2.904-2.904 3.198-7.674.383-10.664-2.913-3.093-7.784-3.149-10.767-.165l-14.702 14.702c-2.485 2.485-6.375 2.883-9.317.961-10.817-7.067-19.973-12.798-24.504-18.589-4.3 3.177-8.181 6.598-11.58 9.997-21.479 21.479 20.208 27.279 49.497 56.568 29.289 29.29 35.09 70.977 56.569 49.498 3.399-3.399 6.82-7.28 9.997-11.581-5.792-4.531-11.523-13.688-18.59-24.504-1.922-2.94-1.523-6.83.962-9.315z" fill="#d98800"/><path d="m405.71 299.442c-46.863 46.863-105.431 64.275-130.815 38.891s-7.972-83.952 38.891-130.815 105.431-64.275 130.815-38.891 7.972 83.952-38.891 130.815z" fill="#f57e00"/><path d="m274.895 338.333c-1.127-1.127-2.17-2.32-3.129-3.575 4.116-30.622 26.669-70.877 62.526-106.734s76.112-58.41 106.734-62.526c1.254.96 2.447 2.002 3.575 3.129 25.384 25.384 7.972 83.952-38.891 130.815s-105.431 64.275-130.815 38.891z" fill="#fd9d01"/><path d="m461.571 199.74c-3.905 3.905-10.237 3.905-14.142 0s-3.905-10.237 0-14.143c3.905-3.905 10.237-3.905 14.142 0 3.905 3.906 3.905 10.238 0 14.143zm-70.711-28.284c-3.905 3.905-3.905 10.237 0 14.142s10.237 3.905 14.142 0 3.905-10.237 0-14.142-10.236-3.905-14.142 0zm-49.497 7.071c-3.905 3.905-3.905 10.237 0 14.142s10.237 3.905 14.142 0 3.905-10.237 0-14.142-10.237-3.905-14.142 0zm77.782 35.355c-3.905 3.905-3.905 10.237 0 14.142s10.237 3.905 14.142 0 3.905-10.237 0-14.142-10.237-3.905-14.142 0zm-98.995 14.142c-3.905 3.905-3.905 10.237 0 14.142s10.237 3.905 14.142 0 3.905-10.237 0-14.142-10.237-3.905-14.142 0zm49.497-14.142c-3.905 3.905-3.905 10.237 0 14.142s10.237 3.905 14.142 0 3.905-10.237 0-14.142-10.237-3.905-14.142 0z" fill="#f57e00"/><path d="m331.583 343.45-1.002 27.052c-2.813 75.942-71.362 132.82-146.38 120.673-3.821-.619-7.003-1.315-9.387-2.088-38.908-12.625-73.549-34.721-101.202-63.569l-50.484-186.795c-2.12-7.845 5.506-14.809 13.127-11.987l288.809 106.966c4.05 1.5 6.679 5.431 6.519 9.748z" fill="#ab2538"/><path d="m108.98 456.017c-12.744-9.033-24.587-19.253-35.367-30.5l-50.485-186.794c-2.12-7.845 5.506-14.809 13.127-11.987l11.954 4.428z" fill="#962437"/><path d="m477.872 238.723-50.485 186.794c-44.593 46.52-107.358 75.483-176.887 75.483-26.415 0-51.853-4.18-75.689-11.915l-5.394-145.635c-.16-4.316 2.47-8.248 6.52-9.748l288.809-106.966c7.62-2.822 15.247 4.141 13.126 11.987z" fill="#f52c2c"/><path d="m361.571 277.071c-3.905 3.905-10.237 3.905-14.142 0s-3.905-10.237 0-14.143c3.905-3.905 10.237-3.905 14.142 0 3.905 3.906 3.905 10.238 0 14.143z" fill="#f57e00"/><path d="m391.571 297.071c-3.905 3.905-10.237 3.905-14.142 0s-3.905-10.237 0-14.143c3.905-3.905 10.237-3.905 14.142 0 3.905 3.906 3.905 10.238 0 14.143zm-20 60c-3.905 3.905-10.237 3.905-14.142 0s-3.905-10.237 0-14.143c3.905-3.905 10.237-3.905 14.142 0 3.905 3.906 3.905 10.238 0 14.143z" fill="#fd9d01"/></svg>