<svg id="Capa_1" enable-background="new 0 0 501 501" height="512" viewBox="0 0 501 501" width="512" xmlns="http://www.w3.org/2000/svg"><path d="m55.879 404.841c-32.297-42.167-51.2-95.135-50.351-152.548 2.01-136.052 113.463-243.722 249.508-241.252 133.217 2.419 240.464 111.164 240.464 244.959 0 55.857-18.693 107.348-50.164 148.56-1.634 2.139-4.572 2.758-6.937 1.472-52.938-28.766-117.812-45.699-187.899-45.699-70.225 0-135.216 16.999-188.21 45.868-2.186 1.191-4.898.616-6.411-1.36z" fill="#ecb700"/><path d="m445.5 404.346c-44.756 58.742-115.451 96.654-195 96.654s-150.244-37.912-195-96.654v-104.346c0-5.523 4.477-10 10-10h370c5.523 0 10 4.477 10 10z" fill="#fff5f5"/><path d="m65.5 290h39c-5.523 0-10 4.477-10 10v144.924c-14.497-11.984-27.591-25.604-39-40.578v-104.346c0-5.523 4.477-10 10-10z" fill="#f7e6b0"/><path d="m194.5 405v89.571c-41.799-9.773-79.481-30.248-110-58.378v-31.193c0-2.761 2.239-5 5-5h100c2.761 0 5 2.239 5 5zm135 15h-100c-2.761 0-5 2.239-5 5v74.636c8.543.901 17.218 1.364 26 1.364 29.509 0 57.8-5.217 84-14.779v-61.221c0-2.761-2.239-5-5-5zm-140-100h-100c-2.761 0-5 2.239-5 5v40c0 2.761 2.239 5 5 5h100c2.761 0 5-2.239 5-5v-40c0-2.761-2.239-5-5-5zm222 0h-182c-2.761 0-5 2.239-5 5v60c0 2.761 2.239 5 5 5h182c2.761 0 5-2.239 5-5v-60c0-2.761-2.239-5-5-5zm-2 100h-40c-2.761 0-5 2.239-5 5v47.917c18.128-9.547 34.914-21.3 50-34.901v-13.016c0-2.761-2.239-5-5-5z" fill="#fdc273"/><path d="m242.619 471.266-136.66-174.984c-57.016-73.005-50.641-177.066 14.859-242.566 71.621-71.621 187.742-71.621 259.364 0 65.5 65.5 71.875 169.561 14.859 242.566l-136.66 174.984c-4.003 5.127-11.759 5.127-15.762 0z" fill="#ab2538"/><path d="m380.182 53.716c-58.352-58.352-146.239-69.156-215.536-32.427-69.319 79.907-73.211 198.688-7.193 283.22l115.581 147.994 122.006-156.221c57.017-73.005 50.642-177.066-14.858-242.566zm-129.682 246.284c-69.036 0-125-55.964-125-125s55.964-125 125-125 125 55.964 125 125-55.964 125-125 125z" fill="#f52c2c"/><path d="m258.26 148.47-15.877 104.976c-.671 4.435-4.482 7.713-8.967 7.713h-46.359c-4.485 0-8.297-3.278-8.967-7.713l-15.877-104.976c-.415-2.743 1.709-5.213 4.484-5.213h87.08c2.774 0 4.898 2.47 4.483 5.213zm71.355-58.372c-.422-.466-1.197-.176-1.219.452l-1.717 49.773c-.071 2.072-1.602 3.89-3.664 4.103-2.389.246-4.43-1.571-4.523-3.909l-1.479-37.476c-.198-5.009-1.871-9.848-4.81-13.909-.28-.387-.856-.387-1.136 0-2.939 4.061-4.612 8.9-4.81 13.909l-1.472 37.302c-.082 2.071-1.619 3.881-3.681 4.085-2.39.236-4.426-1.59-4.507-3.932l-1.723-49.946c-.022-.628-.797-.917-1.219-.452-8.964 9.903-14.885 31.982-14.885 47.337 0 18.916 8.985 31.821 21.573 36.559l4.788 81.034c.203 3.443 3.055 6.131 6.504 6.131s6.3-2.688 6.504-6.131l4.788-81.034c12.589-4.738 21.573-17.643 21.573-36.559 0-15.355-5.921-37.435-14.885-47.337zm-67.751 24.836h-5.13c.078-.373.12-.759.12-1.156 0-6.149-4.985-11.134-11.134-11.134h-7.874v-5.954c0-4.335-3.514-7.85-7.849-7.85s-7.849 3.514-7.849 7.85v5.954h-48.06c-6.149 0-11.134 4.985-11.134 11.134 0 .396.042.782.12 1.156h-5.13c-4.612 0-8.351 3.738-8.351 8.35s3.738 8.35 8.351 8.35h103.921c4.612 0 8.351-3.739 8.351-8.35-.002-4.612-3.74-8.35-8.352-8.35z" fill="#f7e6b0"/><path d="m270.214 123.284c0 4.612-3.738 8.35-8.351 8.35h-80.341c-4.612 0-8.351-3.739-8.351-8.35 0-4.612 3.738-8.35 8.351-8.35h5.13c-.078-.373-.12-.759-.12-1.156 0-6.149 4.985-11.134 11.134-11.134h48.053c6.149 0 11.134 4.985 11.134 11.134 0 .396-.042.782-.12 1.156h5.13c4.613 0 8.351 3.738 8.351 8.35zm-16.437 19.973h-71.125l11.255 74.418c2.015 13.324 13.467 23.175 26.943 23.175 13.476 0 24.928-9.85 26.943-23.175l10.467-69.205c.415-2.743-1.709-5.213-4.483-5.213zm75.843-53.153c-.424-.469-1.203-.186-1.224.446l-1.723 49.946c-.076 2.204-1.885 3.952-4.091 3.952-2.198 0-4.003-1.736-4.09-3.932l-1.479-37.476c-.198-5.009-1.871-9.848-4.81-13.909-.28-.387-.856-.387-1.136 0-2.939 4.061-4.612 8.9-4.81 13.909l-1.479 37.476c-.087 2.196-1.892 3.932-4.09 3.932-2.206 0-4.015-1.748-4.091-3.952l-1.72-49.863c-5.634 9.142-9.094 21.039-9.094 32.777 0 24.207 14.714 38.57 32.865 38.57 9.575 0 18.194-3.998 24.201-11.329 1.071-3.994 1.651-8.411 1.651-13.216 0-15.352-5.919-37.426-14.88-47.331z" fill="#fff5f5"/></svg>