<svg id="Capa_1" enable-background="new 0 0 501 501" height="512" viewBox="0 0 501 501" width="512" xmlns="http://www.w3.org/2000/svg"><path d="m490 250.5c0 49.754-14.831 96.043-40.312 134.69-4.669 7.081-15.688 3.787-15.688-4.695v-285.903c34.983 42.36 56 96.68 56 155.908zm-89.092-189c-42.36-34.983-96.679-56-155.908-56-49.812 0-96.151 14.865-134.825 40.401-7.037 4.647-3.765 15.599 4.668 15.599z" fill="#04d481"/><path d="m450 71.446v313.268c-9.616 14.659-20.763 28.223-33.212 40.468-5.793 5.698-15.578 1.648-15.578-6.477v-308.913c0-8.561-6.94-15.502-15.502-15.502h-317.568c-4.688 0-7.186-5.578-4.023-9.038 13.81-15.108 29.488-28.481 46.669-39.752h313.268c14.33 0 25.946 11.616 25.946 25.946z" fill="#c3573a"/><path d="m411.081 97.392v280.353c0 37.319-20.773 71.608-53.97 88.657-.199.102-.398.204-.597.306-23.858 12.217-49.983 22.636-77.577 26.46-7.234 1.002-14.569 1.689-21.991 2.045-3.958.19-93.865-10.386-128.535-29.179-5.875-3.184-11.605-6.602-17.177-10.241-18.721-12.223-26.668-28.938-41.369-45.674-13.941-15.87-34.862-31.558-44.364-50.661-3.236-6.507-6.192-13.179-8.851-19.999-10.751-27.576-12.53-140.451-4.9-164.14 11.013-34.195 29.337-65.109 53.131-90.9h333.226c7.166 0 12.974 5.808 12.974 12.973z" fill="#6d4336"/><path d="m480.985 339.459h-261.054c-7.698 0-12.509-8.333-8.66-15l130.527-226.08c5.944-10.295 19.522-13.194 29.11-6.166 35.042 25.688 65.44 58.907 88.559 98.95 23.119 40.042 36.688 82.978 41.414 126.169 1.292 11.817-8.008 22.127-19.896 22.127zm-203.717-216.636c-58.314-23.905-125.273-25.183-186.364.054-11.132 4.599-15.6 18.014-9.578 28.444l94.188 163.138c3.849 6.667 13.472 6.667 17.321 0l94.176-163.118c6.057-10.493 1.468-23.922-9.743-28.518zm129.899 236.637h-188.353c-7.698 0-12.509 8.333-8.66 15l68.555 118.74c53.741-7.395 101.921-32.219 138.654-68.585 4.453-13.832 7.68-28.047 9.632-42.466 1.624-12.004-7.714-22.689-19.828-22.689z" fill="#fd9d01"/><path d="m251.279 339.459h-31.349c-7.698 0-12.509-8.333-8.66-15l130.527-226.08c5.944-10.295 19.522-13.194 29.11-6.166 10.861 7.962 21.276 16.648 31.166 26.036-9.511-5.366-21.835-2.154-27.445 7.562z" fill="#fd8f01"/><path d="m219.931 339.459c-7.698 0-12.509-8.333-8.66-15l114.905-199.022c35.035 22.534 65.365 53.531 87.627 92.09s33.941 80.324 35.938 121.932z" fill="#f5c02c"/><path d="m450 339.46h-198.866l108.755-188.37c20.862 18.649 39.16 40.882 53.914 66.437 6.988 12.104 12.933 24.524 17.864 37.155 7.716-1.223 15.171 3.723 16.951 11.452 1.569 6.816-1.778 13.617-7.717 16.688 5.012 18.7 8.189 37.685 9.099 56.638z" fill="#fded32"/><path d="m158.192 324.46c3.849 6.667-.962 15-8.66 15h-132.881c-10.751-27.577-16.651-57.579-16.651-88.96 0-26.227 4.121-51.491 11.751-75.18 7.127-7.047 14.746-13.71 22.843-19.934 9.544-7.337 23.391-4.49 29.41 5.935zm-48.574-189.196c-3.535-6.123-3.455-13.274-.535-19.067-6.107 1.973-12.172 4.198-18.18 6.68-11.132 4.599-15.6 18.014-9.578 28.444l94.188 163.138c3.849 6.667 13.472 6.667 17.321 0l10.121-17.531z" fill="#f57e00"/><path d="m175.513 314.46-85.06-147.328c15.699-8.086 32.007-13.948 48.547-17.689.031-8.258 6.734-14.943 15-14.943 6.726 0 12.418 4.427 14.321 10.526 37.949-2.916 75.954 4.843 109.582 22.088l-85.07 147.345c-3.849 6.667-13.471 6.667-17.32.001zm-17.321 10-85.06-147.328c-32.382 20.829-57.059 49.446-72.985 81.95.973 28.271 6.736 55.326 16.503 80.378h132.881c7.699 0 12.51-8.334 8.661-15zm17.321 60-47.098 81.576c34.668 18.792 74.38 29.464 116.585 29.464 3.95 0 7.878-.094 11.782-.278l-63.949-110.762c-3.849-6.667-13.471-6.667-17.32 0zm-25.981-25h-124.03c19.521 39.248 49.258 72.52 85.732 96.334l46.958-81.334c3.849-6.667-.962-15-8.66-15zm236.897 23.461c1.287-7.752 2.132-15.586 2.524-23.461h-170.139c-7.698 0-12.509 8.333-8.66 15l68.555 118.74c24.394-3.357 47.642-10.304 69.194-20.293 12.765-16.946 22.715-35.664 29.648-55.394 1.155.234 2.35.357 3.574.357 9.872 0 17.875-8.003 17.875-17.875 0-8.024-5.289-14.814-12.571-17.074z" fill="#f5c02c"/><path d="m175.513 314.46-85.06-147.328c9.827-5.061 19.892-9.251 30.103-12.595l58.248 100.888c1.619-.598 3.369-.925 5.196-.925 8.284 0 15 6.716 15 15 0 4.637-2.104 8.783-5.41 11.534l9.271 16.057-10.027 17.368c-3.85 6.667-13.472 6.667-17.321.001zm-66.513 70.04c0 5.523 4.477 10 10 10s10-4.477 10-10-4.477-10-10-10-10 4.477-10 10zm49.192-60.04-7.482-12.96h-11.843c.087-.654.132-1.322.132-2 0-8.284-6.716-15-15-15s-15 6.716-15 15c0 .678.045 1.346.132 2h-72.991c1.769-1.804 2.86-4.274 2.86-7 0-5.523-4.477-10-10-10s-10 4.477-10 10c0 2.726 1.091 5.196 2.86 7h-14.205c2.449 9.557 5.46 18.89 8.996 27.959h132.881c7.698.001 12.509-8.333 8.66-14.999zm100.808-4.96c8.284 0 15-6.716 15-15s-6.716-15-15-15-15 6.716-15 15 6.716 15 15 15zm-200.889 39.959h-32.609c19.521 39.248 49.258 72.52 85.732 96.334l15.547-26.928c-26.675-19.017-49.932-42.519-68.67-69.406zm129.153 69.41 15.604-27.027-10.035-17.382c-3.849-6.667-13.471-6.667-17.321 0l-47.098 81.576c9.494 5.146 19.365 9.683 29.563 13.559l20.278-35.122c.246.018.494.028.745.028 5.523 0 10-4.477 10-10 0-2.09-.641-4.028-1.736-5.632zm171.736-164.369c-5.523 0-10 4.477-10 10s4.477 10 10 10 10-4.477 10-10-4.477-10-10-10zm-140.186 94.96c-7.698 0-12.509 8.333-8.66 15l68.555 118.74c11.578-1.593 22.897-3.996 33.9-7.148l-73.088-126.592zm-14.814 85.04c-8.284 0-15 6.716-15 15s6.716 15 15 15 15-6.716 15-15-6.716-15-15-15zm195-155c-8.284 0-15 6.716-15 15s6.716 15 15 15 15-6.716 15-15-6.716-15-15-15z" fill="#cd9e00"/><path d="m344 234.5c-19.33 0-35-11.193-35-25s15.67-25 35-25 35 11.193 35 25-15.67 25-35 25zm-153.536-100.962c-9.763 9.763-6.597 28.758 7.071 42.426s32.663 16.834 42.426 7.071 6.597-28.758-7.071-42.426c-13.667-13.668-32.662-16.834-42.426-7.071zm-138.725 117.071c-13.668 13.668-16.834 32.663-7.071 42.426s28.758 6.597 42.426-7.071 16.834-32.663 7.071-42.426-28.758-6.597-42.426 7.071zm272.096 132.929c-9.763 9.763-6.597 28.758 7.071 42.426s32.663 16.834 42.426 7.071 6.597-28.758-7.071-42.427c-13.668-13.667-32.663-16.833-42.426-7.07z" fill="#e55920"/><path d="m344 254.5c-8.284 0-15-6.716-15-15v-20c0-8.284 6.716-15 15-15 8.284 0 15 6.716 15 15v20c0 8.284-6.716 15-15 15zm-139.393-64.393 14.142-14.142c5.858-5.858 5.858-15.355 0-21.213-5.858-5.858-15.355-5.858-21.213 0l-14.142 14.142c-5.858 5.858-5.858 15.355 0 21.213 5.857 5.858 15.355 5.858 21.213 0zm-103.371 110c-5.858 5.858-15.355 5.858-21.213 0l-14.142-14.142c-5.858-5.858-5.858-15.355 0-21.213 5.858-5.858 15.355-5.858 21.213 0l14.142 14.142c5.858 5.857 5.858 15.355 0 21.213zm215.528 140c-5.858-5.858-5.858-15.355 0-21.213l14.142-14.142c5.858-5.858 15.355-5.858 21.213 0 5.858 5.858 5.858 15.355 0 21.213l-14.142 14.142c-5.858 5.858-15.355 5.858-21.213 0z" fill="#a64b30"/><path d="m290.754 256.395c1.825-2.434 5.391-2.681 7.542-.53l48.986 48.986c2.151 2.151 1.903 5.717-.53 7.542-15.668 11.75-37.996 10.5-52.247-3.75-14.251-14.251-15.501-36.58-3.751-52.248zm-270.038-50.179c-14.251 14.251-15.501 36.579-3.75 52.247 1.825 2.434 5.391 2.681 7.542.53l48.986-48.986c2.151-2.151 1.903-5.717-.53-7.542-15.669-11.75-37.998-10.5-52.248 3.751zm240 180c-14.251 14.251-15.501 36.579-3.75 52.247 1.825 2.434 5.391 2.681 7.542.53l48.986-48.986c2.151-2.151 1.903-5.717-.53-7.542-15.669-11.75-37.998-10.5-52.248 3.751zm-126.953-162.517c9.269 17.895 30.172 25.845 48.661 19.387 2.872-1.003 4.187-4.326 2.788-7.028l-31.862-61.514c-1.399-2.701-4.872-3.544-7.349-1.777-15.941 11.377-21.507 33.036-12.238 50.932zm-64.763 210.779c20.153 0 36.826-14.905 39.596-34.292.43-3.011-1.916-5.708-4.958-5.708h-69.276c-3.042 0-5.388 2.696-4.958 5.708 2.77 19.387 19.443 34.292 39.596 34.292z" fill="#ab2538"/><path d="m313.032 382.519c-14.835-1.877-30.349 2.88-41.741 14.272s-16.149 26.906-14.272 41.741c1.841 2.369 5.358 2.591 7.488.461l48.985-48.985c2.131-2.131 1.908-5.649-.46-7.489zm-41.46 40.518c-4.142 0-7.5-1.679-7.5-3.75s3.358-3.75 7.5-3.75 7.5 1.679 7.5 3.75-3.358 3.75-7.5 3.75zm13.877-12.088c-1.464 1.464-5.026.277-7.955-2.652s-4.116-6.49-2.652-7.955c1.465-1.464 5.026-.277 7.955 2.652s4.116 6.49 2.652 7.955zm8.338-6.377c-2.071 0-3.75-3.358-3.75-7.5s1.679-7.5 3.75-7.5 3.75 3.358 3.75 7.5-1.679 7.5-3.75 7.5zm-140.437-230.028c-1.385-2.675-4.805-3.528-7.276-1.827-6.279 13.571-6.44 29.797.969 44.103s20.757 23.535 35.464 26.236c2.814-1.037 4.091-4.322 2.706-6.997zm-6.379 18.65c.627-1.974 4.335-2.558 8.283-1.304s6.64 3.87 6.013 5.844-4.335 2.558-8.283 1.304c-3.948-1.253-6.64-3.87-6.013-5.844zm12.916 21.197c-3.678 1.905-7.432 1.959-8.385.12s1.257-4.874 4.935-6.779 7.432-1.959 8.384-.12-1.256 4.873-4.934 6.779zm12.256 10.105c-1.254 3.948-3.87 6.64-5.844 6.013s-2.558-4.335-1.304-8.283 3.87-6.64 5.844-6.013 2.557 4.335 1.304 8.283zm-68.505 169.982h-69.276c-3.013 0-5.343 2.645-4.969 5.621 9.163 11.817 23.496 19.424 39.607 19.424s30.444-7.606 39.607-19.424c.373-2.977-1.956-5.621-4.969-5.621zm-47.695 11.59c-2.929 2.929-6.49 4.116-7.955 2.652-1.464-1.465-.277-5.026 2.652-7.955s6.49-4.116 7.955-2.652c1.465 1.465.277 5.026-2.652 7.955zm13.057 8.432c-2.071 0-3.75-3.358-3.75-7.5s1.679-7.5 3.75-7.5 3.75 3.358 3.75 7.5-1.679 7.5-3.75 7.5zm21.012-5.78c-1.465 1.465-5.026.277-7.955-2.652s-4.116-6.49-2.652-7.955c1.465-1.464 5.026-.277 7.955 2.652s4.116 6.49 2.652 7.955zm-16.98-206.201c-14.835-1.877-30.349 2.88-41.741 14.272s-16.149 26.906-14.272 41.741c1.841 2.369 5.358 2.591 7.488.461l48.985-48.985c2.131-2.131 1.908-5.648-.46-7.489zm-41.46 40.518c-4.142 0-7.5-1.679-7.5-3.75s3.358-3.75 7.5-3.75 7.5 1.679 7.5 3.75-3.358 3.75-7.5 3.75zm13.877-12.088c-1.464 1.464-5.026.277-7.955-2.652s-4.116-6.49-2.652-7.955c1.465-1.464 5.026-.277 7.955 2.652s4.116 6.49 2.652 7.955zm8.338-6.377c-2.071 0-3.75-3.358-3.75-7.5s1.679-7.5 3.75-7.5 3.75 3.358 3.75 7.5-1.679 7.5-3.75 7.5zm293.495 80.279-48.985-48.985c-2.13-2.13-5.648-1.908-7.488.461-1.877 14.835 2.88 30.349 14.272 41.741s26.906 16.149 41.741 14.272c2.367-1.842 2.59-5.359.46-7.489zm-49.421-29.28c0-2.071 3.358-3.75 7.5-3.75s7.5 1.679 7.5 3.75-3.358 3.75-7.5 3.75-7.5-1.679-7.5-3.75zm18.725 16.293c-2.929 2.929-6.49 4.116-7.955 2.652-1.464-1.464-.277-5.026 2.652-7.955s6.491-4.116 7.955-2.652c1.464 1.465.277 5.026-2.652 7.955zm10.99 13.422c-2.071 0-3.75-3.358-3.75-7.5s1.679-7.5 3.75-7.5 3.75 3.358 3.75 7.5-1.679 7.5-3.75 7.5z" fill="#f52c2c"/></svg>