<svg id="Capa_1" enable-background="new 0 0 501 501" height="512" viewBox="0 0 501 501" width="512" xmlns="http://www.w3.org/2000/svg"><path d="m5.5 256c0-135.19 109.495-244.805 244.64-245 134.292-.193 244.323 108.788 245.353 243.077.541 70.547-28.737 134.262-75.982 179.294-15.655 14.922-38.544 19.576-58.71 11.763-33.782-13.088-71.086-20.347-110.3-20.347-47.259 0-91.744 10.544-130.633 29.126-5.222 2.495-11.4 1.823-16.033-1.644-59.699-44.683-98.335-115.964-98.335-196.269z" fill="#00f1a5"/><path d="m424.973 84h-45.473c-8.284 0-15-6.716-15-15s6.716-15 15-15h9.68c12.873 8.855 24.858 18.909 35.793 30zm-95.473-30h-170c-8.284 0-15 6.716-15 15s6.716 15 15 15h50c8.284 0 15 6.716 15 15s-6.716 15-15 15h-70c-8.284 0-15 6.716-15 15s6.716 15 15 15h20c8.284 0 15 6.716 15 15s-6.716 15-15 15h50c-8.284 0-15-6.716-15-15s6.716-15 15-15h70c8.284 0 15-6.716 15-15s-6.716-15-15-15h-20c-8.284 0-15-6.716-15-15s6.716-15 15-15h70c8.284 0 15-6.716 15-15s-6.716-15-15-15z" fill="#5affb7"/><path d="m239.342 378.388-.294-.17-11.607 36.471-15.204-4.074 63.645-283.176 39.603 10.612-49.595 155.828 94.588-180.415 35.507 20.5z" fill="#fc6930"/><path d="m350.158 205.472c-5.326 8.31-17.942.979-13.358-7.763l39.484-75.121 19.702 11.375zm-34.674-67.421-21.975-5.888-18.696 82.781c-2.164 9.63 11.919 13.446 14.912 4.041z" fill="#f89575"/><path d="m460.985 21.38-65 112.583-35.507-20.5 65-112.583c1.381-2.392 10.449.259 20.254 5.92 9.804 5.661 16.634 12.188 15.253 14.58zm-130.361-19.035c-10.936-2.93-20.381-3.144-21.096-.476l-33.646 125.57 39.603 10.612 33.646-125.57c.715-2.668-7.572-7.206-18.507-10.136z" fill="#ab2538"/><path d="m431.259 50.117c5.441 3.141 7.305 10.098 4.164 15.539l-39.438 68.308-19.702-11.375 39.438-68.308c3.141-5.441 10.097-7.305 15.538-4.164zm-117.335 5.858-20.414 76.187 21.975 5.888 20.414-76.187c1.626-6.068-1.975-12.305-8.043-13.931-6.069-1.626-12.306 1.975-13.932 8.043z" fill="#f52c2c"/><path d="m358.338 263.796c8.102-49.179 38.629-90.799 80.729-114.01 11.793-6.502 25.092-9.788 38.559-9.788 3.306 0 5.702 3.151 4.818 6.337l-32.601 117.46h-91.505zm-307.479 0h91.505c-8.102-49.178-38.629-90.798-80.729-114.008-11.793-6.502-25.091-9.788-38.558-9.788-3.306 0-5.702 3.151-4.818 6.337z" fill="#f19b0b"/><path d="m450.711 260.669-32.265 116.249c-18.863 67.963-77.858 117.678-148.166 123.295-1.359.109-2.722.206-4.087.292-5.189.329-10.422.495-15.693.495-55.213 0-106.159-18.264-147.129-49.079l-53.082-191.252h8.404c-3.368 0-5.228-3.908-3.104-6.522l59.907-73.727c5.697-7.011 14.249-11.082 23.283-11.082h221.682c8.896 0 17.334 3.949 23.034 10.779z" fill="#f4aa39"/><path d="m394.484 256.359c-.363 7.71-7.004 13.641-14.723 13.641h-286.804c-3.309 0-5.705 3.156-4.816 6.344l55.904 200.382c-14.398-6.957-28.013-15.281-40.674-24.805l-85.112-305.584c-.884-3.186 1.512-6.337 4.818-6.337 9.864 0 19.637 1.763 28.794 5.261.02.355.077.715.177 1.076l20.615 74.275c1.086 3.913 6.137 4.968 8.698 1.816l34.134-42.009c5.697-7.011 14.249-11.082 23.283-11.082h19.932l-51.874 63.841c-2.655 3.268-.33 8.153 3.88 8.153h269.448c8.148 0 14.707 6.796 14.32 15.028z" fill="#d98800"/><path d="m231.276 362.222h206.449l-17.887 70.836c-40.464 38.71-94.174 63.688-153.645 67.447z" fill="#ab2538"/><path d="m352.888 440c-38.337 0-71.774-26.043-81.159-63.213l-3.678-14.565h169.674l-3.678 14.565c-9.386 37.17-42.823 63.213-81.159 63.213z" fill="#f52c2c"/><path d="m302.278 374.444h-65.556c-6.75 0-12.222-5.472-12.222-12.222 0-6.75 5.472-12.222 12.222-12.222h65.556c6.75 0 12.222 5.472 12.222 12.222 0 6.75-5.472 12.222-12.222 12.222z" fill="#f7e6b0"/><path d="m432.278 374.444h-166.222c-6.75 0-12.222-5.472-12.222-12.222 0-6.75 5.472-12.222 12.222-12.222h166.222c6.75 0 12.222 5.472 12.222 12.222 0 6.75-5.472 12.222-12.222 12.222z" fill="#fff5f5"/><path d="m394.5 350v55c0 8.284-6.716 15-15 15s-15-6.716-15-15v-15.854c-1.564.553-3.247.854-5 .854-8.284 0-15-6.716-15-15v-25z" fill="#fde803"/></svg>