<svg id="Capa_1" enable-background="new 0 0 512 512" height="512" viewBox="0 0 512 512" width="512" xmlns="http://www.w3.org/2000/svg"><path d="m11.006 254.232c.957-135.488 112.924-245.057 248.403-243.209 32.694.446 63.841 7.296 92.243 19.352 0 13.614 11.036 24.649 24.649 24.649h19.856c63.384 44.285 104.843 117.789 104.843 200.976 0 43.658-11.419 84.65-31.434 120.15-24.05 42.657-69.495 68.774-118.465 68.774h-251.101c-54.89-45.342-89.535-114.069-88.994-190.692z" fill="#63bcfa"/><path d="m320 45c0 8.284-6.716 15-15 15h-70c-8.284 0-15 6.716-15 15s6.716 15 15 15h20c8.284 0 15 6.716 15 15 0 8.284-6.716 15-15 15h-50c-8.284 0-15 6.716-15 15s6.716 15 15 15h-50c8.284 0 15-6.716 15-15s-6.716-15-15-15h-20c-8.284 0-15-6.716-15-15 0-8.284 6.716-15 15-15h50c8.284 0 15-6.716 15-15s-6.716-15-15-15h-50c-8.284 0-15-6.716-15-15 0-8.284 6.716-15 15-15h170c8.284 0 15 6.716 15 15zm31.652-14.625c-6.673 1.521-11.652 7.491-11.652 14.625 0 8.284 6.716 15 15 15h30c4.43 0 8.412-1.921 11.158-4.975-13.856-9.681-28.759-17.966-44.506-24.65z" fill="#bbe0fb"/><path d="m512 251v50c0 11.046-8.954 20-20 20h-42c11.046 0 20 8.954 20 20v34.376c-7.045 12.603-15.172 24.52-24.254 35.624-44.929 54.935-113.242 90-189.746 90-59.271 0-113.627-21.048-156-56.076v-13.924c0-11.046 8.954-20 20-20h-10c-11.046 0-20-8.954-20-20v-50c0-11.046 8.954-20 20-20h42c-11.046 0-20-8.954-20-20v-50c0-11.046 8.954-20 20-20h-132c-11.046 0-20-8.954-20-20v-50c0-11.046 8.954-20 20-20h340c11.046 0 20 8.954 20 20v50c0 11.046-8.954 20-20 20h132c11.046 0 20 8.954 20 20z" fill="#d98800"/><path d="m140 411h305.746c-19.908 24.342-44.408 44.783-72.177 60h-233.569c-.649 0-1.283-.063-1.898-.181-1.865-1.026-3.715-2.075-5.551-3.148-1.586-1.77-2.552-4.108-2.552-6.672v-40c.001-5.522 4.478-9.999 10.001-9.999zm240-230v-20c0-11.046-8.954-20-20-20h-320c-5.523 0-10 4.477-10 10v40c0 5.523 4.477 10 10 10h320c11.046 0 20-8.954 20-20zm112 50h-320c-5.523 0-10 4.477-10 10v40c0 5.523 4.477 10 10 10h320c11.046 0 20-8.954 20-20v-20c0-11.046-8.954-20-20-20zm-42 90h-320c-5.523 0-10 4.477-10 10v40c0 5.523 4.477 10 10 10h320c11.046 0 20-8.954 20-20v-20c0-11.046-8.954-20-20-20z" fill="#f4aa39"/><path d="m85 141h50v5c0 13.807-11.193 25-25 25s-25-11.193-25-25zm160 5c0 13.807 11.193 25 25 25s25-11.193 25-25v-5h-50zm-20 180v-5h-50v5c0 13.807 11.193 25 25 25s25-11.193 25-25zm160 0v-5h-50v5c0 13.807 11.193 25 25 25s25-11.193 25-25zm-200 90c0 13.807 11.193 25 25 25s25-11.193 25-25v-5h-50zm160 0c0 13.807 11.193 25 25 25s25-11.193 25-25v-5h-50zm-128-180c0 13.807 11.193 25 25 25s25-11.193 25-25v-5h-50zm160-5v5c0 13.807 11.193 25 25 25s25-11.193 25-25v-5z" fill="#6d4336"/></svg>