<svg id="Capa_1" enable-background="new 0 0 501 501" height="512" viewBox="0 0 501 501" width="512" xmlns="http://www.w3.org/2000/svg"><path d="m490 256c0 135.31-109.69 245-245 245-6.455 0-12.852-.25-19.181-.74-59.426-4.602-109.908-32.406-149.891-71.858-41.489-40.938-71.442-94.571-75.418-156.458-.338-5.271-.51-10.587-.51-15.944 0-135.31 109.69-245 245-245s245 109.69 245 245z" fill="#ecb700"/><path d="m247.345 419.02c-7.987 4.587-16.43 8.846-25.279 12.743-15.682 6.908-20.974 26.659-10.847 40.483 5.714 7.8 10.897 15.709 15.52 23.676.903 1.556.368 3.395-.921 4.338-121.092-9.378-217.501-106.79-225.307-228.316.816-.238 1.733-.168 2.567.317 7.966 4.624 15.876 9.806 23.675 15.52 13.823 10.127 33.575 4.835 40.483-10.847 3.898-8.848 8.156-17.291 12.744-25.279 1.267-2.206 4.465-2.206 5.732 0 4.587 7.987 8.846 16.43 12.743 25.279 6.908 15.682 26.659 20.974 40.483 10.847 7.8-5.714 15.709-10.897 23.676-15.52 2.201-1.277 4.97.322 4.964 2.866-.021 9.211-.554 18.652-1.603 28.264-1.859 17.035 12.6 31.494 29.635 29.635 9.612-1.049 19.053-1.582 28.264-1.603 2.544-.006 4.143 2.764 2.866 4.964-4.624 7.966-9.806 15.876-15.52 23.675-10.127 13.823-4.835 33.575 10.847 40.483 8.848 3.897 17.291 8.156 25.279 12.743 2.206 1.267 2.206 4.465-.001 5.732z" fill="#fde803"/><path d="m498.847 219.883c-10.391 5.968-21.374 11.508-32.886 16.578-20.401 8.986-27.286 34.682-14.112 52.665 7.434 10.147 14.176 20.436 20.191 30.8 1.662 2.863-.418 6.466-3.729 6.458-11.983-.027-24.265-.721-36.769-2.086-22.161-2.418-40.971 16.392-38.553 38.553 1.364 12.504 2.058 24.786 2.085 36.769.008 3.31-3.595 5.39-6.458 3.729-10.364-6.015-20.653-12.757-30.8-20.191-17.983-13.175-43.678-6.29-52.665 14.111-5.07 11.511-10.611 22.495-16.578 32.886-1.648 2.87-5.809 2.87-7.457 0-5.968-10.391-11.508-21.374-16.578-32.886-8.986-20.401-34.682-27.286-52.665-14.111-10.147 7.434-20.436 14.176-30.8 20.191-2.863 1.662-6.466-.418-6.458-3.729.027-11.983.721-24.265 2.085-36.769 2.418-22.161-16.392-40.971-38.553-38.553-12.504 1.364-24.786 2.058-36.769 2.086-3.31.008-5.39-3.595-3.729-6.458 6.015-10.364 12.757-20.653 20.191-30.8 13.175-17.983 6.29-43.678-14.112-52.665-11.511-5.07-22.495-10.611-32.886-16.578-2.87-1.648-2.87-5.809 0-7.457 10.391-5.968 21.374-11.508 32.885-16.578 20.401-8.986 27.286-34.682 14.112-52.665-7.434-10.147-14.176-20.436-20.191-30.8-1.662-2.863.418-6.466 3.729-6.458 11.983.027 24.265.721 36.769 2.085 22.161 2.418 40.971-16.392 38.553-38.553-1.364-12.504-2.058-24.786-2.085-36.769-.008-3.31 3.595-5.39 6.458-3.729 10.364 6.015 20.653 12.757 30.8 20.191 17.983 13.175 43.678 6.29 52.665-14.111 5.07-11.511 10.611-22.495 16.578-32.886 1.648-2.87 5.809-2.87 7.457 0 5.968 10.391 11.508 21.374 16.578 32.886 8.986 20.401 34.682 27.286 52.665 14.111 10.147-7.434 20.436-14.176 30.8-20.191 2.863-1.662 6.466.418 6.458 3.729-.027 11.983-.721 24.265-2.085 36.769-2.418 22.161 16.392 40.971 38.553 38.553 12.504-1.364 24.786-2.058 36.769-2.085 3.31-.008 5.39 3.595 3.729 6.458-6.015 10.364-12.757 20.653-20.191 30.8-13.175 17.983-6.29 43.678 14.112 52.665 11.511 5.07 22.495 10.611 32.885 16.578 2.873 1.648 2.873 5.808.002 7.457z" fill="#f52c2c"/><path d="m392.99 362.852c1.364 12.504 2.058 24.786 2.085 36.769.008 3.31-3.595 5.39-6.458 3.729-10.364-6.015-20.653-12.757-30.8-20.191-17.983-13.175-43.678-6.289-52.665 14.112-5.07 11.511-10.611 22.495-16.578 32.886-1.648 2.87-5.809 2.87-7.457 0-5.968-10.391-11.508-21.375-16.578-32.886-8.986-20.401-34.682-27.286-52.665-14.112-10.147 7.434-20.436 14.176-30.8 20.191-2.863 1.661-6.466-.418-6.458-3.729.027-11.983.721-24.265 2.085-36.769 2.418-22.161-16.392-40.972-38.553-38.553-12.504 1.365-24.786 2.058-36.769 2.086-3.31.008-5.39-3.595-3.729-6.458 6.015-10.364 12.757-20.653 20.191-30.8 13.175-17.983 6.29-43.679-14.112-52.665-11.511-5.07-22.495-10.611-32.885-16.578-2.87-1.649-2.87-5.809 0-7.457 10.391-5.968 21.374-11.508 32.885-16.578 20.401-8.986 27.286-34.682 14.112-52.665-7.434-10.147-14.176-20.437-20.191-30.8-1.662-2.863.418-6.465 3.729-6.458 11.983.027 24.265.721 36.769 2.085 3.627.396 7.163.223 10.532-.44-8.379 21.355-12.98 44.607-12.98 68.933 0 104.27 84.527 188.797 188.797 188.797 24.327 0 47.578-4.601 68.933-12.98-.663 3.368-.836 6.904-.44 10.531z" fill="#ab2538"/><path d="m284.846 73.654c-78.575 0-142.5 63.925-142.5 142.5s63.925 142.5 142.5 142.5 142.5-63.925 142.5-142.5-63.926-142.5-142.5-142.5zm0 265c-67.547 0-122.5-54.953-122.5-122.5s54.953-122.5 122.5-122.5 122.5 54.953 122.5 122.5-54.954 122.5-122.5 122.5z" fill="#f58057"/><path d="m49.562 172.764 5.928-1.736c1.517-.444 2.926.964 2.482 2.482l-1.736 5.928c-.108.367-.108.757 0 1.124l1.736 5.928c.444 1.517-.964 2.926-2.482 2.482l-5.928-1.736c-.367-.108-.757-.108-1.124 0l-5.928 1.736c-1.517.444-2.926-.964-2.482-2.482l1.736-5.928c.108-.367.108-.757 0-1.124l-1.736-5.928c-.444-1.517.964-2.926 2.482-2.482l5.928 1.736c.367.108.757.108 1.124 0zm295.34 238.965-12.393-3.63c-1.517-.444-2.926.964-2.482 2.482l3.63 12.393c.108.367.108.757 0 1.124l-3.63 12.393c-.444 1.517.964 2.926 2.482 2.482l12.393-3.63c.367-.108.757-.108 1.124 0l12.393 3.63c1.517.444 2.926-.964 2.482-2.482l-3.63-12.393c-.108-.367-.108-.757 0-1.124l3.63-12.393c.444-1.517-.964-2.926-2.482-2.482l-12.393 3.63c-.366.107-.757.107-1.124 0z" fill="#fdf061"/><path d="m136.813 170.801-18.271-5.303c-.583-.169-1.211-.064-1.708.285l-15.564 10.942c-1.546 1.087-3.598-.379-3.071-2.194l5.303-18.271c.169-.583.064-1.211-.285-1.708l-10.942-15.564c-1.087-1.546.379-3.598 2.194-3.071l18.271 5.303c.583.169 1.211.064 1.708-.285l15.564-10.942c1.546-1.087 3.598.379 3.071 2.194l-5.303 18.271c-.169.583-.064 1.211.285 1.708l10.942 15.564c1.086 1.546-.379 3.598-2.194 3.071zm286.304 118.17 5.303-18.271c.527-1.815-1.525-3.28-3.071-2.194l-15.564 10.942c-.497.349-1.125.454-1.708.285l-18.271-5.303c-1.815-.527-3.28 1.525-2.194 3.071l10.942 15.564c.349.497.454 1.125.285 1.708l-5.303 18.271c-.527 1.815 1.525 3.28 3.071 2.194l15.564-10.942c.497-.349 1.125-.454 1.708-.285l18.271 5.303c1.815.527 3.28-1.525 2.194-3.071l-10.942-15.564c-.349-.497-.454-1.126-.285-1.708z" fill="#fff5f5"/><path d="m321.16 155.254-53.111 126.553c-1.551 3.695-5.133 5.92-8.904 5.92-1.245 0-2.511-.242-3.731-.755-4.916-2.063-7.228-7.72-5.165-12.635l53.111-126.553c2.062-4.916 7.72-7.228 12.635-5.165 4.916 2.063 7.228 7.72 5.165 12.635zm-80.04 52.629c-18.262 0-33.12-16.564-33.12-36.923s14.857-36.923 33.12-36.923 33.12 16.564 33.12 36.923-14.858 36.923-33.12 36.923zm13.815-36.923c0-9.715-6.198-17.618-13.815-17.618s-13.815 7.903-13.815 17.618 6.197 17.618 13.815 17.618 13.815-7.903 13.815-17.618zm106.756 90.388c0 20.359-14.857 36.923-33.12 36.923s-33.12-16.564-33.12-36.923 14.858-36.923 33.12-36.923c18.263.001 33.12 16.564 33.12 36.923zm-19.304 0c0-9.715-6.197-17.618-13.815-17.618s-13.815 7.903-13.815 17.618 6.198 17.618 13.815 17.618 13.815-7.903 13.815-17.618z" fill="#fff2b4"/></svg>