<svg id="Capa_1" enable-background="new 0 0 501 501" height="512" viewBox="0 0 501 501" width="512" xmlns="http://www.w3.org/2000/svg"><path d="m247.873 488.454c2.462 6.022-2.133 12.577-8.633 12.292-.039-.002-.077-.003-.115-.005-33.252-1.52-64.776-9.668-93.28-23.154 0-13.673-11.084-24.758-24.758-24.758h-16.502c-61.028-45.317-100.251-118.343-99.059-200.47 1.954-134.523 110.966-241.643 245.503-241.358 35.516.075 69.257 7.708 99.702 21.374-80.392 73.139-131.281 178.174-132.989 295.799-.825 56.78 9.96 110.947 30.131 160.28z" fill="#ab2538"/><path d="m246.559 500.969c-4.786-.076-9.558-.289-14.274-.636l-190.659-160.715c-4.624-4.624-4.624-12.121 0-16.745l40.508-34.749s165.743 212.866 164.425 212.845z" fill="#962437"/><path d="m458.109 386.152c-13.411 21.347-30.023 40.48-49.164 56.724-14.483 12.292-162.369 58.093-162.385 58.093l-23.76-23.76-159.046-159.047c-3.905-3.905-3.905-10.237 0-14.142l276.179-276.179c.003-.001.005-.001.008-.002 30.859 12.107 137.494 124.622 148.528 169.647.933 3.807 1.777 7.649 2.53 11.524 2.954 15.208-9.2 139.432-32.89 177.142z" fill="#f52c2c"/><path d="m490.513 305.419c-5.966 29.128-17.101 56.372-32.405 80.732l-238.243-238.242 56.568-56.568zm-380.16-47.998 219.041 219.041c2.302-1.252 4.941-1.963 7.745-1.963h24.307c17.086-8.693 33.016-19.331 47.499-31.623l-242.024-242.023zm229.588-229.582c-.003.001-.005.001-.008.002l-10.555 10.555 159.09 159.09c-19.043-77.709-75.156-140.862-148.527-169.647z" fill="#fd4343"/><path d="m451.143 142.976-281.288 281.288-56.568-56.569 285.121-285.12zm39.855 66.034-268.198 268.198s23.719 23.748 23.75 23.76c1.293.02 2.652.031 3.95.031 24.472 0 48.105-3.588 70.404-10.267 0-8.966 7.269-16.235 16.235-16.235h1.507l132.332-132.332c9.718-9.718 16.444-22.036 19.273-35.485 3.44-16.353 5.249-33.306 5.249-50.682 0-16.07-1.548-31.78-4.502-46.988z" fill="#f58057"/><path d="m490.513 305.419c-1.61 7.861-3.596 15.586-5.94 23.153l-42.022 42.022-56.568-56.569 56.569-56.568zm-266.988-47.962-56.568 56.568 56.568 56.569 56.569-56.569zm52.945 166.081 52.923 52.924c2.302-1.252 4.94-1.963 7.745-1.963h1.508l50.96-50.96-56.568-56.568zm113.137-219.025-56.568-56.568-56.569 56.568 56.568 56.569zm72.342-72.342c-13.677-23.304-31.097-44.147-51.434-61.703l-24.533 24.532 56.568 56.568z" fill="#faab90"/><path d="m215.042 156.8c0 8.854-.617 17.296-1.795 25.304-.216 1.465-1.488 2.54-2.968 2.54h-4.436c-6.039 0-9.064 7.302-4.793 11.572l6.108 6.108c.793.793 1.087 1.968.744 3.036-.809 2.521-1.681 4.984-2.615 7.388-.446 1.149-1.564 1.895-2.797 1.895h-5.936c-6.039 0-9.064 7.302-4.793 11.572l3.005 3.005c.982.982 1.175 2.52.435 3.696-7.901 12.565-17.855 22.8-29.297 30.479l-14.666 156.605-5.393 57.586c-14.603-6.909-28.414-15.22-41.259-24.758-.072-10.606-.147-21.662-.223-32.829-.463-68.031-.967-140.205-1.018-140.208v-273.071c0-3.696 3.024-6.72 6.72-6.72 57.977 0 104.977 79.48 104.977 156.8zm177.022-153.198c-1.209-1.337-3.429-.53-3.492 1.272l-4.913 142.444c-.217 6.287-5.376 11.271-11.667 11.271-6.268 0-11.417-4.95-11.665-11.213l-4.219-106.88c-.564-14.286-5.336-28.086-13.718-39.668-.799-1.103-2.442-1.103-3.241 0-8.382 11.582-13.154 25.382-13.718 39.668l-4.219 106.88c-.247 6.263-5.396 11.213-11.665 11.213-6.291 0-11.45-4.984-11.667-11.271l-4.911-142.445c-.062-1.801-2.282-2.608-3.492-1.272-25.555 28.25-42.436 91.202-42.436 134.987 0 53.946 25.624 90.751 61.526 104.263l8.816 177.149 3.52 70.733c14.089-4.22 27.645-9.673 40.543-16.235l2.712-54.498 8.816-177.148c35.902-13.512 61.526-50.317 61.526-104.263 0-43.785-16.881-106.738-42.436-134.987z" fill="#75ccd4"/><path d="m215.042 156.8c0 9.168-.661 17.894-1.923 26.154-.149.976-.996 1.69-1.983 1.69h-2.345c-7.127 0-10.697 8.617-5.657 13.657l4.454 4.454c.529.529.723 1.313.498 2.026-.93 2.946-1.948 5.814-3.048 8.602-.302.764-1.046 1.261-1.867 1.261h-3.669c-7.127 0-10.697 8.617-5.657 13.657l1.479 1.479c.655.655.781 1.681.294 2.468-7.966 12.871-18.07 23.333-29.714 31.148l-12.151 129.758c-.848 9.055-14.251 8.468-14.305-.626l-.663-112.72c-.098-.006-.195-.011-.293-.017v-273.049c.101-.064.133-.085.233-.149 44.046 20.587 76.317 86.138 76.317 150.207zm177.022-153.198c-1.209-1.337-3.429-.53-3.492 1.272l-4.913 142.444c-.217 6.287-5.376 11.271-11.667 11.271-6.268 0-11.417-4.95-11.665-11.213l-4.219-106.88c-.564-14.286-5.336-28.086-13.718-39.668-.799-1.103-2.442-1.103-3.241 0-8.382 11.582-13.154 25.382-13.718 39.668l-4.219 106.88c-.247 6.263-5.396 11.213-11.665 11.213-6.291 0-11.45-4.985-11.667-11.271l-4.903-142.208c-16.068 26.072-25.936 60.002-25.936 93.479 0 69.036 41.964 110 93.729 110 27.308 0 51.889-11.401 69.02-32.309 3.055-11.39 4.709-23.988 4.709-37.691.001-43.785-16.88-106.738-42.435-134.987z" fill="#bbe0fb"/></svg>