<svg id="Capa_1" enable-background="new 0 0 501 501" height="512" viewBox="0 0 501 501" width="512" xmlns="http://www.w3.org/2000/svg"><path d="m29.107 366.424c-18.569-34.51-29.106-73.984-29.107-115.918-.003-133.534 107.995-243.127 241.516-244.982 136.906-1.902 248.484 108.507 248.484 244.976 0 22.32-2.985 43.942-8.576 64.49-8.875 32.612-38.54 55.21-72.339 55.21h-373.7c-2.63 0-5.032-1.46-6.278-3.776z" fill="#463b83"/><path d="m409 51.847v279.733c0 89.031-71.045 162.488-160.065 163.89-1.309.021-2.621.031-3.935.031-93.454 0-174.686-52.324-216-129.275v-315.979c0-5.211 4.002-9.549 9.196-9.968l49.071-3.957c43.673-3.522 87.607-1.936 130.912 4.727 43.068 6.626 86.76 8.231 130.198 4.784l49.831-3.955c5.817-.462 10.792 4.134 10.792 9.969zm-95 67.653c0-13.807-11.193-25-25-25h-140c-13.807 0-25 11.193-25 25 0 13.807 11.193 25 25 25h140c13.807 0 25-11.193 25-25z" fill="#91cefb"/><path d="m228.208 479.469c-97.082-21.44-169.208-108.867-169.208-212.118v-228.749l-20.804 1.678c-5.194.419-9.196 4.756-9.196 9.968v315.978c38.819 72.303 112.88 122.865 199.208 128.708z" fill="#75ccd4"/><path d="m290.408 240.081c0 20.857-9.907 35.086-23.787 40.31l-5.342 107.353c-.188 3.785-3.312 6.757-7.101 6.757h-.014c-3.789 0-6.913-2.972-7.101-6.757l-5.342-107.353c-13.88-5.224-23.787-19.453-23.787-40.31 0-16.932 6.529-41.276 16.413-52.195.465-.513 1.32-.194 1.344.498l1.899 55.071c.089 2.582 2.334 4.595 4.969 4.335 2.274-.225 3.969-2.221 4.059-4.504l1.624-41.13c.218-5.523 2.063-10.859 5.303-15.336.309-.427.944-.427 1.253 0 3.24 4.478 5.086 9.813 5.304 15.336l1.631 41.322c.102 2.579 2.353 4.582 4.987 4.311 2.274-.234 3.961-2.239 4.04-4.524l1.893-54.881c.024-.692.879-1.012 1.344-.498 9.882 10.918 16.411 35.263 16.411 52.195zm-140.218-53.581h-.026c-1.42 0-2.572 1.151-2.572 2.572v105.6c.038.002.076.004.113.007l.546 92.753c.023 3.91 3.199 7.068 7.11 7.068 3.67 0 6.737-2.793 7.079-6.447l9.338-99.719c4.658-3.127 8.679-7.349 11.806-12.565l-3.644-3.644c-.974-.974-.284-2.64 1.094-2.64h5.678c.558-1.371 1.064-2.793 1.514-4.264l-4.695-4.694c-.974-.974-.284-2.64 1.094-2.64h5.303c.555-3.386.847-6.978.847-10.765.001-29.894-18.17-60.622-40.585-60.622z" fill="#e3f0fb"/><path d="m290.408 240.081c0 5.298-.639 10.168-1.821 14.572-6.623 8.083-16.126 12.491-26.684 12.491-20.013 0-36.237-15.838-36.237-42.528 0-12.943 3.815-26.061 10.027-36.14l1.896 54.98c.084 2.431 2.079 4.358 4.511 4.358 2.423 0 4.414-1.914 4.51-4.335l1.631-41.322c.218-5.523 2.063-10.859 5.303-15.336.309-.427.944-.427 1.253 0 3.24 4.478 5.086 9.813 5.304 15.336l1.631 41.322c.095 2.422 2.086 4.335 4.51 4.335 2.432 0 4.427-1.927 4.51-4.358l1.899-55.071c.024-.696.882-1.008 1.35-.492 9.88 10.921 16.407 35.26 16.407 52.188zm-129.137-51.032c-.039.025-.052.033-.09.058v105.566c.038.002.075.004.113.007l.256 43.579c.021 3.516 5.203 3.743 5.531.242l4.698-50.167c4.658-3.127 8.679-7.349 11.806-12.565l-1.003-1.004c-1.948-1.948-.568-5.28 2.187-5.28h1.945c.558-1.371 1.064-2.793 1.514-4.264l-2.055-2.054c-1.948-1.948-.568-5.28 2.187-5.28h1.57c.555-3.386.847-6.978.847-10.765-.001-24.771-12.477-50.114-29.506-58.073z" fill="#fff5f5"/><path d="m357.074 324.5-30.53-110h168.913l-30.53 110z" fill="#ab2538"/><path d="m425.772 294.5c-28.06 0-52.675-18.714-60.179-45.751l-9.506-34.249h139.369l-9.506 34.249c-7.503 27.037-32.118 45.751-60.178 45.751z" fill="#f52c2c"/><path d="m491 224.5h-160c-5.523 0-10-4.477-10-10 0-5.523 4.477-10 10-10h160c5.523 0 10 4.477 10 10 0 5.523-4.477 10-10 10z" fill="#e3f0fb"/><path d="m491 224.5h-136c-5.523 0-10-4.477-10-10 0-5.523 4.477-10 10-10h136c5.523 0 10 4.477 10 10 0 5.523-4.477 10-10 10z" fill="#fff5f5"/><path d="m272.377 493.987c-8.988.999-18.123 1.513-27.377 1.513-6.707 0-13.351-.27-19.921-.799-3.574-1.525-6.079-5.071-6.079-9.201v-161c0-5.523 4.477-10 10-10h48.667c-5.523 0-10 4.477-10 10v161c0 3.58 1.882 6.721 4.71 8.487z" fill="#f5c02c"/><path d="m256.671 495.227c-4.399-1.05-7.671-5.006-7.671-9.727v-161c0-5.523 4.477-10 10-10h25.901l8.599 5.25h163l12.026-5.25h13.03c-27.169 100.667-116.883 175.662-224.885 180.727z" fill="#fde803"/><path d="m356.529 468.701 106.672-106.672c-23.449 45.786-60.886 83.222-106.672 106.672zm28.849-141.763-164.456 164.456c1.056 1.445 2.49 2.596 4.157 3.307 6.571.529 13.214.799 19.921.799 16.088 0 31.814-1.551 47.037-4.511l176.489-176.489h-53.122c-11.262 0-22.062 4.474-30.026 12.438zm-100.477-12.438-65.901 65.901v70.711l112.693-112.692c8.827-8.827 2.575-23.919-9.908-23.919h-36.884z" fill="#fd8f01"/><path d="m468.526 314.5-176.489 176.489c-11.521 2.24-23.33 3.673-35.366 4.238-4.4-1.049-7.671-5.006-7.671-9.727v-22.185l146.917-146.917c1.215-1.215 2.864-1.898 4.583-1.898zm-5.325 47.529-106.672 106.672c45.786-23.45 83.223-60.886 106.672-106.672zm-178.3-47.529-35.901 35.901v70.711l82.679-82.679c8.832-8.832 2.577-23.933-9.913-23.933z" fill="#fd9d01"/><path d="m371 344.5h-20c-16.569 0-30-13.431-30-30h80c0 16.569-13.431 30-30 30z" fill="#fc5426"/></svg>