<svg id="Capa_1" enable-background="new 0 0 501 501" height="512" viewBox="0 0 501 501" width="512" xmlns="http://www.w3.org/2000/svg"><path d="m230.5 500.195c-125.955-10.176-225-115.619-225-244.195 0-135.31 109.69-245 245-245s245 109.69 245 245c0 128.576-99.045 234.019-225 244.195-6.596.533-33.404.533-40 0z" fill="#463b83"/><path d="m104.5 310c0 5.523-4.477 10-10 10s-10-4.477-10-10 4.477-10 10-10 10 4.477 10 10zm270 70c-5.523 0-10 4.477-10 10s4.477 10 10 10 10-4.477 10-10-4.477-10-10-10z" fill="#6354b0"/><path d="m449.5 325c0 5.523-4.477 10-10 10s-10-4.477-10-10 4.477-10 10-10 10 4.477 10 10z" fill="#a7dde2"/><path d="m124.5 410c0 5.523-4.477 10-10 10s-10-4.477-10-10 4.477-10 10-10 10 4.477 10 10z" fill="#fff5f5"/><path d="m301.5 385v40c0 8.284-6.716 15-15 15h-16v60.195c-6.596.533-13.266.805-20 .805s-13.404-.272-20-.805v-60.195h-16c-8.284 0-15-6.716-15-15v-40c0-8.284 6.716-15 15-15h72c8.284 0 15 6.716 15 15z" fill="#8279c0"/><path d="m270.5 440v36.633c0 7-5.379 13.023-12.372 13.352-7.465.352-13.628-5.597-13.628-12.985v-32c0-2.761 2.239-5 5-5zm31-35v-20c0-8.284-6.716-15-15-15h-46c-8.284 0-15 6.716-15 15v20c0 8.284 6.716 15 15 15h46c8.284 0 15-6.716 15-15z" fill="#c1bbdf"/><path d="m396.5 160h-292c-11.046 0-20-8.954-20-20v-120c0-11.046 8.954-20 20-20h292c11.046 0 20 8.954 20 20v120c0 11.046-8.954 20-20 20z" fill="#f5c02c"/><path d="m396.5 160h-272c-11.046 0-20-8.954-20-20v-120c0-11.046 8.954-20 20-20h272c11.046 0 20 8.954 20 20v120c0 11.046-8.954 20-20 20z" fill="#fde803"/><path d="m236.5 160h-72l60-160h72zm86-160-60 160h32l60-160z" fill="#fdf061"/><path d="m219.013 28.455c-.025-.069-.053-.138-.081-.206-1.437-3.493-4.805-5.749-8.581-5.749h-.008c-3.78.003-7.148 2.266-8.58 5.765-.023.057-.046.114-.067.171l-29.477 77.395c-1.475 3.871.469 8.204 4.34 9.678.878.335 1.78.493 2.668.493 3.021 0 5.87-1.84 7.01-4.833l5.501-14.445h37.007l5.443 14.423c1.462 3.875 5.79 5.832 9.665 4.369s5.831-5.79 4.368-9.665zm-21.562 53.27 12.875-33.806 12.758 33.806zm124.187 31.983c-1.472 1.525-3.434 2.292-5.398 2.292-1.874 0-3.751-.698-5.206-2.103l-32.308-31.169v25.772c0 4.142-3.357 7.5-7.5 7.5s-7.5-3.358-7.5-7.5v-78.5c0-4.142 3.357-7.5 7.5-7.5s7.5 3.358 7.5 7.5v22.725l29.652-27.256c3.049-2.803 7.794-2.604 10.597.446 2.804 3.05 2.604 7.794-.446 10.597l-33.852 31.116 36.771 35.475c2.981 2.876 3.066 7.624.19 10.605zm66.988-5.924c0 4.142-3.357 7.5-7.5 7.5h-32.774c-4.143 0-7.5-3.358-7.5-7.5v-77.784c0-4.142 3.357-7.5 7.5-7.5h32.774c4.143 0 7.5 3.358 7.5 7.5s-3.357 7.5-7.5 7.5h-25.274v23.892h22.858c4.143 0 7.5 3.358 7.5 7.5s-3.357 7.5-7.5 7.5h-22.858v23.892h25.274c4.143 0 7.5 3.358 7.5 7.5zm-217.9-77.784c0 4.142-3.357 7.5-7.5 7.5h-14.264v71c0 4.142-3.357 7.5-7.5 7.5s-7.5-3.358-7.5-7.5v-71h-14.089c-4.143 0-7.5-3.358-7.5-7.5s3.357-7.5 7.5-7.5h43.353c4.143 0 7.5 3.358 7.5 7.5z" fill="#ee4424"/><path d="m436.5 280h-372c-11.046 0-20-8.954-20-20v-110c0-11.046 8.954-20 20-20h372c11.046 0 20 8.954 20 20v110c0 11.046-8.954 20-20 20z" fill="#ab2538"/><path d="m436.5 260h-352c-11.046 0-20-8.954-20-20v-90c0-11.046 8.954-20 20-20h352c11.046 0 20 8.954 20 20v90c0 11.046-8.954 20-20 20z" fill="#f52c2c"/><path d="m131.897 158.455c-.025-.069-.053-.138-.081-.206-1.437-3.493-4.805-5.749-8.581-5.749h-.008c-3.78.003-7.148 2.266-8.58 5.765-.023.057-.046.114-.067.171l-29.477 77.395c-1.475 3.871.469 8.204 4.34 9.678.878.335 1.78.493 2.668.493 3.021 0 5.87-1.84 7.01-4.833l5.501-14.445h37.007l5.443 14.423c1.462 3.876 5.792 5.833 9.665 4.369 3.875-1.463 5.831-5.79 4.368-9.665zm-21.562 53.27 12.875-33.806 12.758 33.806zm207.583-53.27c-.025-.069-.053-.138-.081-.206-1.437-3.493-4.805-5.749-8.581-5.749h-.008c-3.78.003-7.148 2.266-8.58 5.765-.023.057-.046.114-.067.171l-29.477 77.395c-1.475 3.871.469 8.204 4.34 9.678.878.335 1.78.493 2.668.493 3.021 0 5.87-1.84 7.01-4.833l5.501-14.445h37.007l5.443 14.423c1.462 3.876 5.79 5.833 9.665 4.369 3.875-1.463 5.831-5.79 4.368-9.665zm-21.562 53.27 12.875-33.806 12.758 33.806zm118.817-47.434-23.659 36.345-.093 37.883c-.01 4.136-3.366 7.481-7.5 7.481h-.019c-4.142-.01-7.491-3.376-7.481-7.519l.093-37.856-23.85-36.525c-2.265-3.468-1.288-8.116 2.18-10.38 3.467-2.265 8.114-1.289 10.381 2.179l18.785 28.77 18.593-28.562c2.259-3.471 6.906-4.453 10.377-2.194 3.471 2.26 4.453 6.906 2.193 10.378zm-149.399-2.683-15.355 77.155c-.063.323-.149.641-.255.952-1.271 3.734-4.774 6.26-8.718 6.286h-.061c-3.92 0-7.426-2.474-8.737-6.171-.035-.099-.068-.199-.1-.299l-16.647-54.037-16.722 54.024c-.021.066-.042.132-.064.198-1.271 3.733-4.772 6.259-8.715 6.286h-.063c-3.917 0-7.423-2.472-8.736-6.167-.122-.344-.219-.697-.29-1.056l-15.295-77.322c-.804-4.063 1.839-8.009 5.902-8.813s8.008 1.839 8.813 5.902l10.843 54.816 16.961-54.797c.514-2.625 2.419-4.889 5.154-5.731 3.958-1.218 8.156 1.001 9.376 4.959l17.117 55.564 10.882-54.676c.809-4.063 4.756-6.7 8.819-5.892 4.062.808 6.7 4.756 5.891 8.819z" fill="#fde803"/><path d="m146.773 226.613c-3.031 0-5.886-1.851-7.019-4.856l-.356-.945c-1.462-3.875.496-8.202 4.371-9.664 3.877-1.46 8.202.495 9.664 4.372l.356.945c1.462 3.875-.496 8.202-4.371 9.664-.871.328-1.765.484-2.645.484zm14.156 8.769c-1.464-3.875-5.791-5.829-9.667-4.365-3.874 1.464-5.828 5.792-4.364 9.667l.177.468c1.134 3.002 3.987 4.851 7.017 4.851.881 0 1.777-.156 2.65-.486 3.874-1.464 5.828-5.792 4.364-9.667zm-19.004-29.105c3.876-1.46 5.834-5.787 4.374-9.663l-.356-.946c-1.461-3.875-5.791-5.833-9.663-4.373-3.876 1.46-5.834 5.787-4.374 9.663l.356.946c1.133 3.005 3.987 4.857 7.02 4.857.878 0 1.773-.156 2.643-.484zm32.996-38.428c4.063-.802 6.709-4.746 5.907-8.81l-.097-.49c-.802-4.063-4.738-6.71-8.81-5.907-4.063.802-6.709 4.746-5.907 8.81l.097.49c.705 3.574 3.841 6.05 7.351 6.05.48 0 .969-.047 1.459-.143zm-64.858 23.517c-3.87-1.473-8.204.47-9.678 4.34l-.359.944c-1.475 3.871.469 8.204 4.34 9.678.879.334 1.78.493 2.668.493 3.022 0 5.871-1.841 7.01-4.833l.359-.944c1.475-3.871-.468-8.204-4.34-9.678zm13.633 20.359h-1.042c-4.143 0-7.5 3.358-7.5 7.5s3.357 7.5 7.5 7.5h1.042c4.143 0 7.5-3.358 7.5-7.5s-3.357-7.5-7.5-7.5zm76.373-.458c-3.603-1.113-7.398.62-8.978 3.919-1.689-2.132-4.485-3.267-7.338-2.702-4.063.804-6.705 4.75-5.901 8.813l.189.958c.707 3.572 3.841 6.046 7.35 6.046.482 0 .973-.047 1.464-.144 2.275-.45 4.105-1.886 5.134-3.776.876.976 2.019 1.734 3.362 2.149 3.961 1.222 8.157-.994 9.381-4.951l.288-.932c1.223-3.958-.994-8.157-4.951-9.38zm-3.367 21.131c-2.641-2.412-6.538-2.582-9.353-.613-3.064 1.596-4.712 5.162-3.762 8.63.912 3.333 3.933 5.522 7.229 5.522.654 0 1.321-.087 1.984-.268 1.689-.462 3.204-1.388 4.381-2.675 2.795-3.058 2.58-7.802-.479-10.596zm-17.8-44.447c4.063-.804 6.705-4.75 5.901-8.813l-.189-.958c-.804-4.063-4.747-6.705-8.813-5.902-4.063.804-6.705 4.75-5.901 8.813l.189.958c.707 3.572 3.841 6.046 7.35 6.046.482 0 .972-.047 1.463-.144zm3.977 20.103c4.063-.805 6.705-4.75 5.901-8.814l-.189-.957c-.805-4.063-4.75-6.704-8.813-5.901-4.063.805-6.705 4.75-5.901 8.814l.189.957c.707 3.572 3.842 6.045 7.35 6.045.481 0 .972-.047 1.463-.144zm127.561-26.932.356.945c1.133 3.005 3.987 4.856 7.019 4.856.88 0 1.773-.156 2.646-.484 3.875-1.461 5.833-5.788 4.371-9.664l-.356-.945c-1.461-3.875-5.783-5.833-9.664-4.372-3.875 1.462-5.833 5.789-4.372 9.664zm-1.724-13.54c.221 0 .441-.01.663-.029 3.498.147 6.689-2.117 7.596-5.609 1.042-4.009-1.364-8.103-5.373-9.145-1.664-.432-3.438-.393-5.078.109-3.961 1.213-6.188 5.406-4.977 9.367.989 3.23 3.959 5.307 7.169 5.307zm-206.206 43.612c-3.874-1.473-8.204.471-9.678 4.342l-.359.944c-1.473 3.871.471 8.204 4.342 9.677.879.334 1.78.492 2.667.492 3.022 0 5.871-1.841 7.011-4.834l.359-.944c1.472-3.871-.471-8.203-4.342-9.677zm103.619-19.504c-3.965-1.226-8.158.994-9.381 4.951l-.288.932c-1.223 3.958.994 8.157 4.951 9.38.738.228 1.483.336 2.217.336 3.203 0 6.169-2.067 7.164-5.287l.288-.932c1.223-3.957-.994-8.156-4.951-9.38zm7.394-23.905c.741.23 1.49.339 2.227.339 1.208 0 2.382-.294 3.429-.833 3.364-1.544 5.149-5.377 4.034-9.012l-.146-.478c-1.214-3.96-5.411-6.184-9.369-4.971-2.743.842-4.654 3.114-5.165 5.747-1.109 3.902 1.095 7.998 4.99 9.208zm84.416 18.696c.88.335 1.783.495 2.673.495 3.021 0 5.867-1.838 7.008-4.828l.36-.944c1.478-3.87-.463-8.204-4.333-9.681-3.867-1.473-8.204.462-9.681 4.333l-.36.944c-1.477 3.87.463 8.204 4.333 9.681zm-186.02.019c.879.334 1.78.492 2.667.492 3.022 0 5.871-1.841 7.011-4.834l.359-.944c1.473-3.871-.471-8.204-4.342-9.677-3.875-1.472-8.204.471-9.678 4.342l-.359.944c-1.473 3.87.471 8.203 4.342 9.677zm-16.95 44.528c-3.865-1.478-8.203.458-9.684 4.326l-.179.467c-1.479 3.869.457 8.205 4.326 9.685.881.337 1.786.497 2.677.497 3.019 0 5.864-1.835 7.007-4.823l.179-.467c1.479-3.87-.457-8.205-4.326-9.685zm29.445-49.921.356.945c1.133 3.005 3.987 4.856 7.019 4.856.88 0 1.773-.156 2.646-.484 3.875-1.461 5.833-5.788 4.371-9.664l-.356-.945c-1.461-3.877-5.787-5.832-9.664-4.372-3.876 1.462-5.834 5.788-4.372 9.664zm-1.732-13.52c.241 0 .484-.012.728-.036 3.44.128 6.672-2.176 7.548-5.678 1.004-4.018-1.438-8.09-5.457-9.095-1.67-.417-3.445-.363-5.082.157-3.949 1.251-6.136 5.467-4.884 9.416 1.012 3.195 3.964 5.236 7.147 5.236zm261.255 62.913h-.015c-4.136 0-7.492 3.348-7.5 7.485l-.001.5c-.008 4.142 3.343 7.506 7.485 7.515h.015c4.136 0 7.492-3.348 7.5-7.485l.001-.5c.008-4.142-3.343-7.506-7.485-7.515zm-159.654-43.271c3.958-1.219 6.18-5.416 4.961-9.375l-.287-.933c-1.219-3.96-5.419-6.18-9.375-4.961-1.556.479-2.844 1.419-3.76 2.624-.904-1.128-2.143-2.007-3.627-2.467-3.961-1.229-8.158.987-9.385 4.942l-.289.932c-1.228 3.957.985 8.158 4.941 9.385.74.229 1.488.338 2.224.338 2.502 0 4.859-1.262 6.245-3.349 1.398 1.997 3.701 3.198 6.141 3.198.733 0 1.476-.108 2.211-.334zm141.215-30.909-.273-.419c-2.264-3.468-6.911-4.446-10.38-2.182s-4.445 6.911-2.181 10.38l.273.419c1.438 2.204 3.838 3.402 6.287 3.402 1.405 0 2.828-.395 4.093-1.22 3.469-2.264 4.446-6.911 2.181-10.38zm-55.781 55.405h-1.042c-4.143 0-7.5 3.358-7.5 7.5s3.357 7.5 7.5 7.5h1.042c4.143 0 7.5-3.358 7.5-7.5s-3.358-7.5-7.5-7.5zm18.236-5.433c3.875-1.461 5.833-5.788 4.371-9.664l-.356-.945c-1.461-3.876-5.782-5.833-9.664-4.372-3.875 1.461-5.833 5.788-4.371 9.664l.356.945c1.133 3.005 3.987 4.856 7.019 4.856.88 0 1.773-.156 2.645-.484zm50.107-30.736-.599-.916c-2.267-3.468-6.914-4.442-10.381-2.175-3.468 2.266-4.441 6.914-2.176 10.381l.599.916c1.438 2.202 3.838 3.398 6.285 3.398 1.407 0 2.83-.396 4.096-1.223 3.468-2.266 4.441-6.914 2.176-10.381zm-42.615 50.588c3.875-1.461 5.833-5.788 4.371-9.664l-.356-.945c-1.462-3.877-5.787-5.832-9.664-4.372-3.875 1.461-5.833 5.788-4.371 9.664l.356.945c1.133 3.005 3.987 4.856 7.019 4.856.88 0 1.773-.156 2.645-.484zm65.395-53.586c-3.472-2.259-8.118-1.275-10.377 2.197l-.593.911c-2.259 3.472-1.275 8.118 2.197 10.376 1.263.822 2.681 1.214 4.083 1.214 2.452 0 4.856-1.202 6.294-3.411l.593-.911c2.259-3.471 1.276-8.117-2.197-10.376zm-16.853 37.917h-.016c-4.135 0-7.491 3.348-7.5 7.485l-.002.954c-.009 4.142 3.343 7.507 7.484 7.515h.016c4.135 0 7.491-3.348 7.5-7.485l.002-.954c.009-4.142-3.342-7.507-7.484-7.515zm29.001-56.557c-3.47-2.264-8.117-1.288-10.38 2.182l-.273.419c-2.265 3.469-1.288 8.116 2.181 10.38 1.266.826 2.687 1.22 4.093 1.22 2.448 0 4.85-1.198 6.287-3.402l.273-.419c2.265-3.468 1.288-8.115-2.181-10.38zm-24.607 37.777c-1.349-.877-2.87-1.261-4.368-1.208-1.522-.052-3.021.337-4.369 1.218-3.468 2.266-4.441 6.914-2.176 10.381l.273.418c1.385 2.12 3.746 3.397 6.278 3.397h.008c2.535-.003 4.897-1.286 6.279-3.411l.272-.419c2.26-3.472 1.276-8.118-2.197-10.376zm-41.432 43.687c-1.464-3.875-5.791-5.829-9.667-4.365-3.874 1.464-5.828 5.792-4.364 9.667l.177.468c1.134 3.002 3.987 4.851 7.017 4.851.881 0 1.777-.156 2.65-.486 3.874-1.464 5.828-5.792 4.364-9.667zm-98.975-22.755c-2.811-.559-5.571.533-7.271 2.607-1.522-3.419-5.391-5.24-9.063-4.106-3.957 1.223-6.175 5.422-4.952 9.379l.288.933c1.223 3.958 5.418 6.176 9.38 4.953 1.3-.402 2.412-1.125 3.276-2.055 1.007 1.978 2.877 3.492 5.223 3.958.494.098.986.146 1.472.146 3.505 0 6.638-2.47 7.348-6.038l.19-.957c.809-4.063-1.829-8.011-5.891-8.82zm48.115-21.277c-3.875-1.473-8.204.471-9.678 4.342l-.359.944c-1.473 3.871.471 8.204 4.342 9.677.879.334 1.78.492 2.667.492 3.022 0 5.871-1.841 7.011-4.834l.359-.944c1.472-3.871-.471-8.204-4.342-9.677zm-51.318 40.697c-2.642-2.188-6.538-2.337-9.365-.151-3.277 2.534-3.88 7.244-1.347 10.521 1.077 1.393 2.524 2.443 4.186 3.038.836.299 1.688.44 2.527.44 3.078 0 5.965-1.91 7.062-4.975 1.206-3.373-.15-7.041-3.063-8.873zm-14.454-25.236c3.958-1.219 6.179-5.417 4.96-9.375l-.287-.932c-1.22-3.959-5.418-6.179-9.376-4.96s-6.179 5.417-4.96 9.375l.287.932c.993 3.224 3.96 5.294 7.165 5.294.732 0 1.476-.108 2.211-.334zm21.657-14.281c-4.063-.809-8.011 1.83-8.819 5.892l-.19.957c-.809 4.063 1.829 8.011 5.892 8.82.494.098.986.146 1.472.146 3.505 0 6.638-2.47 7.348-6.038l.19-.957c.807-4.062-1.831-8.011-5.893-8.82zm36.563 18.649c-3.875-1.472-8.203.471-9.678 4.342l-.359.944c-1.473 3.871.471 8.204 4.342 9.677.879.334 1.78.492 2.667.492 3.022 0 5.871-1.841 7.011-4.834l.359-.944c1.473-3.871-.471-8.204-4.342-9.677zm-32.563-38.746c-4.064-.807-8.011 1.83-8.819 5.892l-.19.957c-.809 4.063 1.829 8.011 5.892 8.82.494.098.986.146 1.472.146 3.505 0 6.638-2.47 7.348-6.038l.19-.957c.807-4.063-1.831-8.011-5.893-8.82zm25.003 58.59c-3.868-1.471-8.203.472-9.676 4.344l-.178.467c-1.473 3.872.472 8.204 4.344 9.677.877.333 1.778.492 2.665.492 3.023 0 5.872-1.842 7.011-4.835l.178-.467c1.472-3.873-.472-8.205-4.344-9.678zm-21.094-78.235c-4.063-.808-8.011 1.83-8.819 5.892l-.098.491c-.809 4.063 1.829 8.011 5.892 8.82.494.098.986.146 1.472.146 3.505 0 6.638-2.469 7.348-6.038l.098-.491c.807-4.063-1.831-8.011-5.893-8.82z" fill="#fdf7bd"/><path d="m340.5 310c0 49.706-40.294 90-90 90s-90-40.294-90-90 40.294-90 90-90 90 40.294 90 90z" fill="#0cabb9"/><path d="m340.5 310c0 18.642-5.668 35.96-15.374 50.326-14.366 9.706-31.684 15.374-50.326 15.374-49.706 0-90-40.294-90-90 0-18.642 5.668-35.96 15.374-50.326 14.366-9.706 31.684-15.374 50.326-15.374 49.706 0 90 40.294 90 90z" fill="#08e092"/><path d="m248.156 351.352c.053 4.142-3.263 7.542-7.404 7.594-12.677.159-21.935.224-28.722.224-17.309 0-18.563-.419-19.555-.75-2.524-.841-4.41-2.745-5.172-5.222-1.331-4.326.523-6.755 6.031-13.966 4.577-5.993 13.096-17.147 27.366-37.537 4.336-6.195 7.131-11.765 8.313-16.564l.327-2.559c-.229-8.35-7.093-15.071-15.496-15.071-7.393 0-13.789 5.252-15.211 12.489-.798 4.064-4.737 6.712-8.805 5.914-4.064-.798-6.713-4.74-5.914-8.805 2.8-14.253 15.387-24.598 29.93-24.598 16.818 0 30.502 13.683 30.502 30.502 0 .318-.021.635-.061.951l-.444 3.477c-.032.25-.076.498-.133.743-1.566 6.755-5.173 14.198-10.719 22.122-11.631 16.618-19.499 27.191-24.547 33.854 8.76.02 20.831-.061 32.119-.203 4.176-.061 7.543 3.262 7.595 7.405zm69.07-26.23c0 4.142-3.357 7.5-7.5 7.5h-4.043c-.063 8.622-.122 15.661-.151 19.096-.036 4.12-3.387 7.435-7.499 7.436-.021 0-.043 0-.065 0-4.143-.036-7.471-3.422-7.436-7.564.05-5.77.102-12.243.149-18.967h-37.405c-2.653 0-5.109-1.402-6.458-3.687-1.35-2.285-1.391-5.113-.109-7.436 5.046-9.146 30.473-55.084 35.574-61.342 5.77-7.079 11.931-6.127 14.315-5.389 5.039 1.561 8.624 6.506 9.132 12.599.272 3.264.189 28.035.054 50.255h3.942c4.142-.001 7.5 3.356 7.5 7.499zm-26.338-50.896c-5.08 8.262-15.018 25.695-24.879 43.396h24.771c.105-17.657.167-34.738.108-43.396z" fill="#fdf7bd"/><path d="m244.347 283.066c-.001.296-.023.594-.061.887l-.444 3.477c-.042.238-.083.473-.125.711-1.563 6.764-5.172 14.218-10.726 22.155-.917 1.31-1.811 2.583-2.682 3.819-2.665 3.783-8.076 4.274-11.375 1.048-2.68-2.621-2.857-6.89-.699-9.954.802-1.14 1.624-2.311 2.467-3.514 4.336-6.195 7.131-11.765 8.313-16.564l.327-2.559c-.229-8.35-7.093-15.071-15.496-15.071-2.086 0-4.093.418-5.931 1.182-2.775 1.152-5.974.477-8.099-1.649-3.764-3.764-2.532-10.177 2.384-12.216 3.61-1.497 7.55-2.317 11.645-2.317 16.839-.001 30.536 13.716 30.502 30.565zm61.436 34.556.087-44.355c-.017-1.73-.038-3.152-.067-4.202-.502-3.566-3.565-6.309-7.269-6.309h-.299c-4.055 0-7.342 3.287-7.342 7.342l-.01 4.135c.001-.002.003-.005.005-.008.06 8.659-.003 25.739-.108 43.396 0 4.055 3.401 6.378 7.456 6.378h.299c4.054.001 7.248-2.322 7.248-6.377z" fill="#fff5f5"/></svg>