<svg id="Capa_1" enable-background="new 0 0 501 501" height="512" viewBox="0 0 501 501" width="512" xmlns="http://www.w3.org/2000/svg"><path d="m56.886 406.147c-32.724-42.137-51.996-95.24-51.371-152.865 1.453-133.972 111.338-242.46 245.318-242.282 135.157.18 244.667 109.801 244.667 245 0 57.243-19.632 109.9-52.529 151.608-6.17 7.821-15.579 12.392-25.541 12.392h-332.342c-11.039 0-21.432-5.135-28.202-13.853z" fill="#63bcfa"/><path d="m445.5 404.346c-44.756 58.742-115.451 96.654-195 96.654s-150.244-37.912-195-96.654v-104.346c0-5.523 4.477-10 10-10h370c5.523 0 10 4.477 10 10z" fill="#e3f0fb"/><path d="m65.5 290h39c-5.523 0-10 4.477-10 10v144.924c-14.497-11.984-27.591-25.604-39-40.578v-104.346c0-5.523 4.477-10 10-10z" fill="#a7dde2"/><path d="m194.5 405v89.571c-41.799-9.773-79.481-30.248-110-58.378v-31.193c0-2.761 2.239-5 5-5h100c2.761 0 5 2.239 5 5zm135 15h-100c-2.761 0-5 2.239-5 5v74.636c8.543.901 17.218 1.364 26 1.364 29.509 0 57.8-5.217 84-14.779v-61.221c0-2.761-2.239-5-5-5zm-140-100h-100c-2.761 0-5 2.239-5 5v40c0 2.761 2.239 5 5 5h100c2.761 0 5-2.239 5-5v-40c0-2.761-2.239-5-5-5zm222 0h-182c-2.761 0-5 2.239-5 5v60c0 2.761 2.239 5 5 5h182c2.761 0 5-2.239 5-5v-60c0-2.761-2.239-5-5-5zm-2 100h-40c-2.761 0-5 2.239-5 5v47.917c18.128-9.547 34.914-21.3 50-34.901v-13.016c0-2.761-2.239-5-5-5z" fill="#75ccd4"/><path d="m242.619 471.266-136.66-174.984c-57.016-73.005-50.641-177.066 14.859-242.566 71.621-71.621 187.742-71.621 259.364 0 65.5 65.5 71.875 169.561 14.859 242.566l-136.66 174.984c-4.003 5.127-11.759 5.127-15.762 0z" fill="#ab2538"/><path d="m273.035 452.503-115.581-147.994c-66.019-84.533-62.126-203.313 7.193-283.22 69.296-36.729 157.183-25.925 215.535 32.427 65.5 65.5 71.875 169.561 14.859 242.566zm102.427-274.419c1.635-66.241-48.569-121.715-113.63-127.573-2.724-.245-9.058-4.442-11.832-4.51-4.902-.121-6.162 4.08-10.93 4.512-62.364 5.648-111.95 57.292-113.532 121.405-1.703 69.015 52.864 126.342 121.878 128.046 69.015 1.701 126.343-52.866 128.046-121.88z" fill="#f52c2c"/><path d="m286.004 76.185c-2.885-1.036-5.785-1.938-8.694-2.71 2.04-4.052 3.19-8.629 3.19-13.475 0-16.569-13.431-30-30-30s-30 13.431-30 30c0 4.844 1.149 9.421 3.188 13.471-32.236 8.544-59.874 32.266-72.003 66.025-19.608 54.574 8.737 114.711 63.311 134.319s114.711-8.737 134.319-63.311c19.609-54.574-8.737-114.711-63.311-134.319zm-48.504-16.185c0-7.18 5.82-13 13-13s13 5.82 13 13c0 4.179-1.972 7.898-5.037 10.276-5.342-.409-10.665-.402-15.925 0-3.065-2.378-5.038-6.096-5.038-10.276zm92.993 143.741c-15.873 44.179-64.556 67.125-108.735 51.252-44.179-15.874-67.125-64.556-51.252-108.735 12.342-34.35 44.518-55.864 78.99-56.276.334.012.668.018 1.004.018s.671-.006 1.004-.017c9.218.109 18.574 1.731 27.737 5.024 44.179 15.873 67.126 64.555 51.252 108.734zm-58.388-18.291c-5.771 11.932-20.123 16.927-32.055 11.156s-16.927-20.123-11.156-32.055 20.123-16.927 32.055-11.156c11.933 5.771 16.928 20.122 11.156 32.055zm11.014-24.896c10.909 2.39 21.709 5.866 32.324 10.416 2.743 1.176 2.743 6.885 0 8.061-10.615 4.55-21.415 8.026-32.324 10.417 1.959-4.416 3.048-9.304 3.048-14.447s-1.089-10.031-3.048-14.447z" fill="#fff2b4"/><path d="m346.264 182.286c-5.784 0-10.6-4.731-10.824-10.511-.061-1.566-.164-3.14-.312-4.72-3.394-36.262-29.416-65.444-63.071-74.281-4.365-1.146-7.556-5.152-7.556-9.665 0-6.502 6.11-11.267 12.419-9.693 43.415 10.834 74.415 45.751 78.114 91.688.212 2.635.398 5.249.451 7.849.103 5.135-4.085 9.333-9.221 9.333z" fill="#fd9d01"/></svg>