<svg id="Capa_1" enable-background="new 0 0 501 501" height="512" viewBox="0 0 501 501" width="512" xmlns="http://www.w3.org/2000/svg"><path d="m495.5 245c0 135.31-109.69 245-245 245-43.341 0-84.054-11.254-119.375-30.999-12.776-7.142-23.846-16.395-35.08-25.628-16.662-13.694-32.486-28.544-45.043-46.124-28.647-40.103-45.502-89.208-45.502-142.249 0-135.31 109.69-245 245-245s245 109.69 245 245z" fill="#63bcfa"/><path d="m426.5 409h-352v-349h352z" fill="#a64b30"/><path d="m127.5 409h-53v-349h53z" fill="#6d4336"/><path d="m440 20h-379c-5.523 0-10 4.477-10 10v357.246c21.024 29.434 48.399 54.019 80.124 71.754h264.876c2.761 0 5 2.239 5 5v37h49v-471c0-5.523-4.477-10-10-10zm-340 404v-355h301v355c0 2.761-2.239 5-5 5h-291c-2.761 0-5-2.239-5-5z" fill="#f4aa39"/><path d="m451.5 501h-52c-2.761 0-5-2.239-5-5v-12c0-2.761 2.239-5 5-5h52c2.761 0 5 2.239 5 5v12c0 2.761-2.239 5-5 5z" fill="#c98001"/><path d="m451.5 501h-32c-2.761 0-5-2.239-5-5v-12c0-2.761 2.239-5 5-5h32c2.761 0 5 2.239 5 5v12c0 2.761-2.239 5-5 5zm-351.5-481h-39c-5.523 0-10 4.477-10 10v39h49zm350 10c0-5.523-4.477-10-10-10h-39v49h49z" fill="#d98800"/><path d="m85.5 20c-5.523 0-10 4.477-10 10v386.464c-8.897-9.079-17.093-18.848-24.5-29.218v-357.246c0-5.523 4.477-10 10-10z" fill="#d98800"/><path d="m85.5 20c-5.523 0-10 4.477-10 10v39h-24.5v-39c0-5.523 4.477-10 10-10z" fill="#c98001"/><path d="m200.685 193.447-5.251 88.794c-.225 3.796-3.368 6.76-7.171 6.76h-.001c-3.803 0-6.947-2.964-7.171-6.76l-5.251-88.794c-13.895-5.216-23.815-19.45-23.815-40.32 0-26.69 16.224-54.126 36.237-54.126s36.237 27.436 36.237 54.126c.001 20.87-9.919 35.104-23.814 40.32zm146.29-40.866c0-16.932-6.529-41.276-16.412-52.195-.465-.513-1.32-.194-1.344.498l-1.893 54.881c-.079 2.285-1.766 4.29-4.04 4.524-2.634.271-4.885-1.732-4.987-4.311l-1.631-41.322c-.218-5.523-2.063-10.859-5.304-15.336-.309-.427-.944-.427-1.253 0-3.24 4.478-5.086 9.813-5.304 15.336l-1.624 41.13c-.09 2.283-1.785 4.28-4.059 4.505-2.635.26-4.88-1.753-4.969-4.335l-1.899-55.071c-.024-.692-.879-1.012-1.344-.498-9.883 10.919-16.412 35.263-16.412 52.195 0 20.856 9.907 35.086 23.787 40.31l5.279 89.349c.224 3.796 3.368 6.76 7.171 6.76 3.803 0 6.947-2.964 7.171-6.76l5.279-89.349c13.881-5.225 23.788-19.455 23.788-40.311z" fill="#fdd194"/><path d="m224.5 153.126c0 7.641-1.33 14.393-3.698 20.138-5.913 4.518-13.139 6.925-20.941 6.925-20.013 0-36.237-15.838-36.237-42.528 0-11.073 2.792-22.274 7.489-31.591 5.105-4.434 10.945-7.071 17.15-7.071 20.013.001 36.237 27.437 36.237 54.127zm106.068-52.734c-.468-.517-1.326-.205-1.35.492l-1.899 55.071c-.084 2.431-2.079 4.358-4.511 4.358-2.423 0-4.414-1.914-4.51-4.335l-1.631-41.322c-.218-5.523-2.063-10.859-5.304-15.336-.309-.427-.944-.427-1.253 0-3.24 4.478-5.086 9.813-5.304 15.336l-1.631 41.322c-.096 2.422-2.086 4.335-4.51 4.335-2.432 0-4.427-1.927-4.511-4.358l-1.896-54.98c-6.212 10.08-10.027 23.198-10.027 36.14 0 26.69 16.224 42.528 36.237 42.528 10.558 0 20.061-4.408 26.684-12.491 1.181-4.404 1.821-9.274 1.821-14.572.002-16.927-6.525-41.266-16.405-52.188zm14.932 216.108c0-4.142-3.358-7.5-7.5-7.5h-55c-4.142 0-7.5 3.358-7.5 7.5 0 4.142 3.358 7.5 7.5 7.5h55c4.142 0 7.5-3.358 7.5-7.5zm11 30c0-4.142-3.358-7.5-7.5-7.5h-77c-4.142 0-7.5 3.358-7.5 7.5 0 4.142 3.358 7.5 7.5 7.5h77c4.142 0 7.5-3.358 7.5-7.5zm-20 30c0-4.142-3.358-7.5-7.5-7.5h-37c-4.142 0-7.5 3.358-7.5 7.5 0 4.142 3.358 7.5 7.5 7.5h37c4.142 0 7.5-3.358 7.5-7.5zm-111-60c0-4.142-3.358-7.5-7.5-7.5h-55c-4.142 0-7.5 3.358-7.5 7.5 0 4.142 3.358 7.5 7.5 7.5h55c4.142 0 7.5-3.358 7.5-7.5zm11 30c0-4.142-3.358-7.5-7.5-7.5h-77c-4.142 0-7.5 3.358-7.5 7.5 0 4.142 3.358 7.5 7.5 7.5h77c4.142 0 7.5-3.358 7.5-7.5zm-20 30c0-4.142-3.358-7.5-7.5-7.5h-37c-4.142 0-7.5 3.358-7.5 7.5 0 4.142 3.358 7.5 7.5 7.5h37c4.142 0 7.5-3.358 7.5-7.5z" fill="#fff2b4"/></svg>