<svg id="Capa_1" enable-background="new 0 0 501 501" height="512" viewBox="0 0 501 501" width="512" xmlns="http://www.w3.org/2000/svg"><path d="m66.141 407.357c-4.096 1.213-8.532-.224-11.11-3.63-31.089-41.071-49.531-92.245-49.531-147.727 0-133.795 107.248-242.541 240.466-244.959 136.338-2.474 247.907 105.648 249.517 241.999.667 56.519-17.806 108.698-49.342 150.46-2.678 3.546-7.293 5.036-11.554 3.776-55.429-16.39-117.942-25.61-184.087-25.61-66.253.001-128.863 9.25-184.359 25.691z" fill="#63bcfa"/><path d="m49.5 264.5h-43.854c-.097-2.821-.146-5.655-.146-8.5 0-7.245.315-14.416.931-21.5h43.069c8.284 0 15 6.716 15 15s-6.716 15-15 15zm405-75c0-8.284-6.716-15-15-15h-70c-8.284 0-15 6.716-15 15 0 8.284 6.716 15 15 15h70c8.284 0 15-6.716 15-15zm-300 0c0-8.284-6.716-15-15-15h-120.118c-3.432 9.733-6.267 19.748-8.46 30h128.578c8.284 0 15-6.716 15-15zm290 60c0 8.284 6.716 15 15 15h35.855c.13-3.799.173-7.619.128-11.46-.074-6.242-.378-12.424-.904-18.54h-35.079c-8.284 0-15 6.716-15 15zm-145-195c-8.284 0-15 6.716-15 15 0 8.284 6.716 15 15 15h70c8.284 0 15-6.716 15-15 0-8.284-6.716-15-15-15zm-5 155c0-8.284-6.716-15-15-15h-100c-8.284 0-15 6.716-15 15s6.716 15 15 15h100c8.284 0 15-6.716 15-15z" fill="#91cefb"/><path d="m414.5 280h-60v-30l47.768-19.107c1.161-.464 2.459.239 2.704 1.465zm-212.5-40h-95c-5.523 0-10 4.477-10 10s4.477 10 10 10h1.5l14.743 36.857c.759 1.898 2.598 3.143 4.642 3.143h53.229c2.045 0 3.883-1.245 4.642-3.143l14.744-36.857h1.5c5.523 0 10-4.477 10-10s-4.477-10-10-10z" fill="#fff5f5"/><path d="m161.41 259h-13.82c-1.894 0-3.625-1.07-4.472-2.764l-7.894-15.789c-.332-.665.151-1.447.894-1.447h36.764c.743 0 1.227.782.894 1.447l-7.894 15.789c-.847 1.694-2.578 2.764-4.472 2.764z" fill="#fd7a7a"/><path d="m424.5 259v20c0 2.761-2.239 5-5 5h-60c-2.761 0-5-2.239-5-5v-20c0-2.761 2.239-5 5-5h60c2.761 0 5 2.239 5 5z" fill="#f52c2c"/><path d="m324.5 225v60c0 2.761-2.239 5-5 5h-30c-2.761 0-5-2.239-5-5v-60c0-2.761 2.239-5 5-5h1.91c-1.188-1.327-1.91-3.079-1.91-5 0-4.142 3.358-7.5 7.5-7.5h.069l1.675-23.31c.17-2.361 2.135-4.19 4.502-4.19h2.506c2.367 0 4.333 1.829 4.502 4.19l1.675 23.31h.071c4.142 0 7.5 3.358 7.5 7.5 0 1.921-.723 3.673-1.91 5h1.91c2.761 0 5 2.239 5 5z" fill="#ab2538"/><path d="m374.5 225v60c0 2.761-2.239 5-5 5h-30c-2.761 0-5-2.239-5-5v-60c0-2.761 2.239-5 5-5h1.91c-1.188-1.327-1.91-3.079-1.91-5 0-4.142 3.358-7.5 7.5-7.5h.069l1.675-23.31c.17-2.361 2.135-4.19 4.502-4.19h2.506c2.367 0 4.333 1.829 4.502 4.19l1.675 23.31h.071c4.142 0 7.5 3.358 7.5 7.5 0 1.921-.723 3.673-1.91 5h1.91c2.761 0 5 2.239 5 5z" fill="#fd9d01"/><path d="m255.5 380h-10c-5.523 0-10-4.477-10-10v-360c0-5.523 4.477-10 10-10h10c5.523 0 10 4.477 10 10v360c0 5.523-4.477 10-10 10z" fill="#d98800"/><path d="m446.5 403.023c-44.699 59.495-115.855 97.977-196 97.977s-151.301-38.482-196-97.977v-108.023c0-8.284 6.716-15 15-15h362c8.284 0 15 6.716 15 15z" fill="#d98800"/><path d="m446.5 295v108.023c-44.699 59.495-115.855 97.977-196 97.977-43.341 0-84.053-11.255-119.375-31h213.375c5.743 0 10.355-4.841 9.978-10.665-.344-5.315-4.995-9.335-10.321-9.335h-229.657c-5.523 0-10-4.477-10-10v-20c0-5.523 4.477-10 10-10h300c5.743 0 10.355-4.841 9.978-10.665-.344-5.315-4.995-9.335-10.321-9.335h-299.657c-5.523 0-10-4.477-10-10v-20c0-5.523 4.477-10 10-10h300c5.743 0 10.355-4.841 9.978-10.665-.344-5.315-4.995-16.501-10.321-16.501h-299.657c-5.523 0-10-4.477-10-10v-17.834c0-8.284 6.716-15 15-15h312c8.284 0 15 6.716 15 15z" fill="#f4aa39"/><path d="m410.5 370c0-5.523 4.477-10 10-10s10 4.477 10 10-4.477 10-10 10-10-4.477-10-10zm10 50c-5.523 0-10 4.477-10 10 0 3.276 1.575 6.184 4.009 8.008 4.895-4.414 9.61-9.021 14.135-13.812-1.813-2.54-4.785-4.196-8.144-4.196zm-340-60c-5.523 0-10 4.477-10 10s4.477 10 10 10 10-4.477 10-10-4.477-10-10-10zm0 60c-3.359 0-6.331 1.656-8.144 4.196 4.524 4.791 9.24 9.398 14.135 13.812 2.434-1.824 4.009-4.732 4.009-8.008 0-5.523-4.477-10-10-10z" fill="#c64b1a"/><path d="m23.307 139.991 206.192-116.145c13.038-7.344 28.965-7.344 42.003 0l206.192 116.145c4.794 2.701 2.877 10.009-2.625 10.009h-449.137c-5.503 0-7.42-7.309-2.625-10.009z" fill="#ab2538"/><path d="m475.068 150h-284.182c-31.812 0-42.894-42.254-15.177-57.866l108.512-61.123 193.472 108.98c4.795 2.7 2.878 10.009-2.625 10.009z" fill="#f52c2c"/><path d="m470.5 299v26c0 8.284-6.716 15-15 15h-10c-8.284 0-15-6.716-15-15 0 8.284-6.716 15-15 15h-10c-8.284 0-15-6.716-15-15 0 8.284-6.716 15-15 15h-10c-8.284 0-15-6.716-15-15 0 8.284-6.716 15-15 15h-10c-8.284 0-15-6.716-15-15 0 8.284-6.716 15-15 15h-10c-8.284 0-15-6.716-15-15 0 8.284-6.716 15-15 15h-10c-8.284 0-15-6.716-15-15 0 8.284-6.716 15-15 15h-10c-8.284 0-15-6.716-15-15 0 8.284-6.716 15-15 15h-10c-8.284 0-15-6.716-15-15 0 8.284-6.716 15-15 15h-10c-8.284 0-15-6.716-15-15 0 8.284-6.716 15-15 15h-10c-8.284 0-15-6.716-15-15 0 8.284-6.716 15-15 15h-10c-8.284 0-15-6.716-15-15v-26c0-5.523 4.477-10 10-10h420c5.523 0 10 4.477 10 10z" fill="#f52c2c"/><path d="m430.5 289v36c0 8.284-6.716 15-15 15h-10c-8.284 0-15-6.716-15-15v-36zm-120 36c0 8.284 6.716 15 15 15h10c8.284 0 15-6.716 15-15v-36h-40zm-80 0c0 8.284 6.716 15 15 15h10c8.284 0 15-6.716 15-15v-36h-40zm-80 0c0 8.284 6.716 15 15 15h10c8.284 0 15-6.716 15-15v-36h-40zm-80 0c0 8.284 6.716 15 15 15h10c8.284 0 15-6.716 15-15v-36h-40z" fill="#fded32"/><path d="m465.5 300h-430c-5.523 0-10-4.477-10-10 0-5.523 4.477-10 10-10h430c5.523 0 10 4.477 10 10 0 5.523-4.477 10-10 10z" fill="#dca050"/><path d="m465.5 300h-371c-5.523 0-10-4.477-10-10 0-5.523 4.477-10 10-10h371c5.523 0 10 4.477 10 10 0 5.523-4.477 10-10 10z" fill="#f8bb5e"/></svg>