<svg id="Capa_1" enable-background="new 0 0 501 501" height="512" viewBox="0 0 501 501" width="512" xmlns="http://www.w3.org/2000/svg"><path d="m490 256c0 135.31-109.69 245-245 245-51.326 0-98.966-15.783-138.331-42.76-1.494-1.024-90.357-114.134-90.979-115.784-10.141-26.885-15.69-56.022-15.69-86.456 0-135.31 109.69-245 245-245s245 109.69 245 245z" fill="#f52c2c"/><path d="m448.845 15.001-46.247 64.727-19.177-13.702 1.121-4.184 43.889-61.427c.982-1.375 6.349.776 11.986 4.803 5.636 4.028 9.41 8.408 8.428 9.783zm-61.104-13.566c-6.692-1.793-12.472-1.924-12.909-.291l-20.589 76.841 24.234 6.494 20.589-76.841c.437-1.633-4.633-4.41-11.325-6.203z" fill="#012d4e"/><path d="m430.657 40.456-28.059 39.272-11.327-8.093 28.059-39.272c2.235-3.128 6.582-3.852 9.71-1.617 3.128 2.235 3.852 6.582 1.617 9.71zm-44.61-11.125c-3.713-.995-7.53 1.209-8.525 4.922l-12.492 46.621 13.447 3.603 12.492-46.622c.995-3.712-1.209-7.529-4.922-8.524z" fill="#6354b0"/><path d="m429 110c0 38.66-31.34 70-70 70-25.06 0-47.044-13.168-59.41-32.963-11.449 8.162-25.459 12.963-40.59 12.963-38.66 0-70-31.34-70-70s31.34-70 70-70c25.06 0 47.044 13.168 59.41 32.963 11.449-8.162 25.459-12.963 40.59-12.963 38.66 0 70 31.34 70 70z" fill="#fdf061"/><path d="m418.994 110.893c-.465 31.959-26.408 58.236-58.359 59.085-22.641.602-42.544-11.343-53.259-29.384 2.794-2.672 5.367-5.573 7.688-8.673 8.053 16.108 24.702 27.169 43.936 27.17 27.431 0 49.896-23.181 49.068-50.599-.797-26.414-22.46-47.583-49.068-47.583-9.701 0-18.745 2.814-26.36 7.67-2.901 1.85-6.74.471-7.928-2.757-.013-.036-.027-.072-.04-.109-.877-2.372.056-5.033 2.191-6.389 9.29-5.904 20.314-9.324 32.137-9.324 33.434 0 60.481 27.347 59.994 60.893zm-96.808 9.269c4.368-9.134 4.455-30.582 4.397-31.745 7.083-10.833 20.197-16.599 32.417-16.599 21.087 0 38.182 17.094 38.182 38.182s-17.095 38.182-38.182 38.182c-17.568 0-32.365-11.866-36.814-28.02zm9.541-10.162c0 15.062 12.21 27.273 27.273 27.273s27.273-12.21 27.273-27.273-12.211-27.273-27.273-27.273-27.273 12.211-27.273 27.273zm-12.727-20c0 33.137-26.863 60-60 60s-60-26.863-60-60 26.863-60 60-60 60 26.863 60 60zm-10.909 0c0-27.112-21.979-49.091-49.091-49.091s-49.091 21.979-49.091 49.091 21.979 49.091 49.091 49.091 49.091-21.979 49.091-49.091zm-10.909 0c0 21.087-17.095 38.182-38.182 38.182s-38.182-17.095-38.182-38.182 17.095-38.182 38.182-38.182 38.182 17.095 38.182 38.182zm-10.909 0c0-15.062-12.21-27.273-27.273-27.273s-27.273 12.211-27.273 27.273 12.21 27.273 27.273 27.273 27.273-12.211 27.273-27.273zm-27.273-16.364c-9.037 0-16.364 7.326-16.364 16.364 0 9.037 7.326 16.364 16.364 16.364s16.364-7.327 16.364-16.364c0-9.038-7.327-16.364-16.364-16.364z" fill="#f5c02c"/><path d="m500.832 29.725-66.087 238.111c-29.622-26.536-48.262-65.082-48.262-107.982 0-54.708 30.313-102.336 75.058-127.004 10.683-5.889 22.728-8.866 34.927-8.866 2.995.001 5.165 2.855 4.364 5.741zm-355.757 3.125c-10.683-5.889-22.728-8.866-34.927-8.866-2.995 0-5.165 2.854-4.364 5.74l66.087 238.111c29.622-26.536 48.262-65.082 48.262-107.982 0-54.706-30.312-102.334-75.058-127.003z" fill="#f19b0b"/><path d="m383.583 370h-160.547c-13.479 0-25.303-8.989-28.907-21.977l-72.17-260.027h79.13l113.578 7 90.861-7h79.132l-72.17 260.027c-3.604 12.988-15.428 21.977-28.907 21.977z" fill="#f4aa39"/><path d="m155.802 87.996 78.27 282.004h-11.036c-13.479 0-25.303-8.989-28.907-21.977l-72.17-260.027z" fill="#f19b0b"/><path d="m181.023 160.686-59.064-72.69h362.701l-60.884 72.964c-5.163 6.187-12.806 9.764-20.864 9.764h-200.8c-8.182 0-15.929-3.687-21.089-10.038z" fill="#fbc56d"/><path d="m181.023 160.686-59.064-72.69h30.988l67.22 82.728h-18.054c-8.183 0-15.93-3.687-21.09-10.038z" fill="#f8bb5e"/><path d="m297.122 198.92v-111.026c0-.552.448-1 1-1h8.93c.552 0 1 .448 1 1v111.026c0 2.99-2.424 5.413-5.413 5.413h-.103c-2.991 0-5.414-2.423-5.414-5.413zm-16.467-61.647h.133c2.99 0 5.413-2.424 5.413-5.413v-43.833c0-.552-.448-1-1-1h-8.96c-.552 0-1 .448-1 1v43.832c.001 2.99 2.425 5.414 5.414 5.414z" fill="#fdf061"/><path d="m344.539 379.904h-189.815l-65.338 65.338c-26.939-22.177-49.06-49.995-64.557-81.646l107.093-107.093c11.252-11.252 26.513-17.574 42.426-17.574h155.603c10.381 0 18.796 8.415 18.796 18.796 0 10.381-8.415 18.796-18.796 18.796h-129.759c-7.064 0-12.629 6.021-12.073 13.063.497 6.299 5.754 11.158 12.073 11.158h186.726c9.315 0 18.502-2.169 26.833-6.334l16.173-8.087c5.524-2.762 12.011-2.829 17.591-.183 10.482 4.971 14.586 17.763 8.952 27.905-22.583 40.651-65.428 65.861-111.928 65.861z" fill="#efcfc8"/><path d="m344.539 379.904h-185.673c-2.652 0-5.196 1.054-7.071 2.929l-62.409 62.409c-9.814-8.079-18.988-16.907-27.436-26.396l71.192-71.192c3.751-3.751 8.838-5.858 14.142-5.858h197.255c42.048 0 81.107-20.614 104.898-54.615 9.043 5.547 12.306 17.368 7.03 26.864-22.583 40.649-65.428 65.859-111.928 65.859z" fill="#eac0b5"/><path d="m147.921 402.845c3.905 3.905 3.905 10.237 0 14.142l-41.252 41.252c-41.07-28.146-73.134-68.478-90.978-115.783l28.85-28.85c3.905-3.905 10.237-3.905 14.142 0z" fill="#49b4fa"/><path d="m147.921 416.987-41.252 41.252c-16.475-11.291-31.5-24.542-44.74-39.418l51.01-50.959 34.983 34.983c3.904 3.905 3.904 10.237-.001 14.142z" fill="#05a2f9"/><path d="m349 253.93c0 8.284-6.716 15-15 15h-10c-8.284 0-15-6.716-15-15s6.716-15 15-15h10c8.284 0 15 6.716 15 15z" fill="#faf1ee"/></svg>