<svg id="Capa_1" enable-background="new 0 0 501 501" height="512" viewBox="0 0 501 501" width="512" xmlns="http://www.w3.org/2000/svg"><path d="m5.5 256c0-135.25 109.594-244.904 244.822-245 135.008-.096 245.178 109.993 245.178 245.001 0 89.761-48.271 168.248-120.271 210.917-3.801 2.253-8.497 2.31-12.422.281-33.643-17.382-71.828-27.199-112.307-27.199-40.401 0-78.518 9.779-112.113 27.099-4.053 2.089-8.898 2.027-12.818-.301-71.888-42.697-120.069-121.121-120.069-210.798z" fill="#05a2f9"/><path d="m156.5 80c-12.979 0-23.5-10.521-23.5-23.5v-33c0-12.979 10.521-23.5 23.5-23.5 12.979 0 23.5 10.521 23.5 23.5v33c0 12.979-10.521 23.5-23.5 23.5z" fill="#f52c2c"/><path d="m73.317 86.792h354.366c1.607 1.683 3.191 3.388 4.75 5.116l-56.669 374.692c-36.654 21.849-79.493 34.4-125.264 34.4s-88.61-12.551-125.264-34.4l-56.67-374.691c1.56-1.728 3.143-3.434 4.751-5.117z" fill="#6d4336"/><path d="m286.045 458.25c-52.311 0-96.765-38.237-104.588-89.959l-42.575-281.499h294.326l-42.575 281.499c-7.823 51.722-52.278 89.959-104.588 89.959z" fill="#a64b30"/><path d="m399.5 88h-300c-8.284 0-15-6.716-15-15v-5c0-16.569 13.431-30 30-30h270c16.569 0 30 13.431 30 30v5c0 8.284-6.716 15-15 15z" fill="#fdc273"/><path d="m400.5 88h-241c-8.284 0-15-6.716-15-15v-5c0-16.569 13.431-30 30-30h211c16.569 0 30 13.431 30 30v5c0 8.284-6.716 15-15 15z" fill="#ffdf8e"/><path d="m439.5 124.792h-380c-8.284 0-15-6.716-15-15v-20c0-8.284 6.716-15 15-15h380c8.284 0 15 6.716 15 15v20c0 8.285-6.716 15-15 15z" fill="#fdd194"/><path d="m440.5 124.792h-311c-8.284 0-15-6.716-15-15v-20c0-8.284 6.716-15 15-15h311c8.284 0 15 6.716 15 15v20c0 8.285-6.716 15-15 15z" fill="#fff2b4"/><path d="m425.631 190.953-27.162 179.589c-.37 2.445-2.471 4.252-4.944 4.252h-286.05c-2.473 0-4.574-1.807-4.944-4.252l-27.162-179.589c-.458-3.025 1.885-5.748 4.944-5.748h340.374c3.059 0 5.401 2.723 4.944 5.748z" fill="#f4aa39"/><path d="m425.631 190.953-27.162 179.589c-.37 2.445-2.471 4.252-4.944 4.252h-210.878l-28.881-189.589h266.921c3.059 0 5.401 2.723 4.944 5.748z" fill="#f5b65d"/><path d="m152.5 215v130c0 8.284-6.716 15-15 15s-15-6.716-15-15v-130c0-8.284 6.716-15 15-15s15 6.716 15 15z" fill="#c98001"/><path d="m262.5 215v130c0 8.284-6.716 15-15 15s-15-6.716-15-15v-130c0-8.284 6.716-15 15-15s15 6.716 15 15zm-70-15c-8.284 0-15 6.716-15 15v130c0 8.284 6.716 15 15 15s15-6.716 15-15v-130c0-8.284-6.716-15-15-15zm110 0c-8.284 0-15 6.716-15 15v130c0 8.284 6.716 15 15 15s15-6.716 15-15v-130c0-8.284-6.716-15-15-15zm55 0c-8.284 0-15 6.716-15 15v130c0 8.284 6.716 15 15 15s15-6.716 15-15v-130c0-8.284-6.716-15-15-15z" fill="#d98800"/></svg>