<svg id="Capa_1" enable-background="new 0 0 501 501" height="512" viewBox="0 0 501 501" width="512" xmlns="http://www.w3.org/2000/svg"><path d="m55.844 404.796c-32.681-42.689-51.637-96.441-50.275-154.664 3.102-132.705 112.407-239.247 245.148-239.132 135.21.117 244.783 109.763 244.783 245 0 55.891-18.715 107.411-50.221 148.634-5.139 6.725-13.092 10.706-21.555 10.706h-346.603c-8.349 0-16.202-3.915-21.277-10.544z" fill="#04d481"/><path d="m445.5 404.346c-44.756 58.742-115.451 96.654-195 96.654s-150.244-37.912-195-96.654v-104.346c0-5.523 4.477-10 10-10h370c5.523 0 10 4.477 10 10z" fill="#e3f0fb"/><path d="m65.5 290h39c-5.523 0-10 4.477-10 10v144.924c-14.497-11.984-27.591-25.604-39-40.578v-104.346c0-5.523 4.477-10 10-10z" fill="#a7dde2"/><path d="m194.5 405v89.571c-41.799-9.773-79.481-30.248-110-58.378v-31.193c0-2.761 2.239-5 5-5h100c2.761 0 5 2.239 5 5zm135 15h-100c-2.761 0-5 2.239-5 5v74.636c8.543.901 17.218 1.364 26 1.364 29.509 0 57.8-5.217 84-14.779v-61.221c0-2.761-2.239-5-5-5zm-140-100h-100c-2.761 0-5 2.239-5 5v40c0 2.761 2.239 5 5 5h100c2.761 0 5-2.239 5-5v-40c0-2.761-2.239-5-5-5zm222 0h-182c-2.761 0-5 2.239-5 5v60c0 2.761 2.239 5 5 5h182c2.761 0 5-2.239 5-5v-60c0-2.761-2.239-5-5-5zm-2 100h-40c-2.761 0-5 2.239-5 5v47.917c18.128-9.547 34.914-21.3 50-34.901v-13.016c0-2.761-2.239-5-5-5z" fill="#00f1a5"/><path d="m242.619 471.266-136.66-174.984c-57.016-73.005-50.641-177.066 14.859-242.566 71.621-71.621 187.742-71.621 259.364 0 65.5 65.5 71.875 169.561 14.859 242.566l-136.66 174.984c-4.003 5.127-11.759 5.127-15.762 0z" fill="#ab2538"/><path d="m273.035 452.503-115.581-147.994c-66.019-84.533-62.126-203.313 7.193-283.22 69.296-36.729 157.183-25.925 215.535 32.427 65.5 65.5 71.875 169.561 14.859 242.566zm-22.535-402.503c-69.036 0-125 55.964-125 125s55.964 125 125 125 125-55.964 125-125-55.964-125-125-125z" fill="#f52c2c"/><path d="m325.754 179.126c-2.74 11.031-12.709 19.207-24.588 19.207-6.49 0-12.407-2.443-16.889-6.456-4.482 4.013-10.399 6.456-16.889 6.456s-12.407-2.443-16.889-6.456c-4.482 4.013-10.399 6.456-16.889 6.456s-12.407-2.443-16.889-6.456c-4.482 4.013-10.399 6.456-16.889 6.456-11.879 0-21.848-8.176-24.588-19.207-.775-3.121 1.661-6.126 4.876-6.126h28.156 16.889 16.889 16.889 16.889 16.889 28.156c3.217 0 5.652 3.005 4.877 6.126z" fill="#0cc33c"/><path d="m325.754 179.126c-2.74 11.031-12.709 19.207-24.588 19.207-6.49 0-12.407-2.443-16.889-6.456-3.181 2.847-7.083 4.904-11.401 5.859-13.399-5.275-25.135-13.855-34.203-24.736h82.205c3.216 0 5.651 3.005 4.876 6.126z" fill="#49cb5c"/><path d="m325.5 211.767v8.233c0 11.046-8.954 20-20 20h-110c-11.046 0-20-8.954-20-20v-8.233c0-3.096 1.408-5.863 3.619-7.697.795-.66 1.966-.595 2.691.141 4.592 4.659 10.965 7.556 18.023 7.556 5.92 0 11.363-2.033 15.675-5.436.71-.561 1.717-.561 2.427 0 4.312 3.403 9.756 5.436 15.675 5.436s11.363-2.033 15.675-5.436c.71-.561 1.717-.561 2.427 0 4.312 3.403 9.756 5.436 15.675 5.436 5.92 0 11.363-2.033 15.675-5.436.71-.561 1.717-.561 2.427 0 4.312 3.403 9.756 5.436 15.675 5.436 7.058 0 13.431-2.897 18.023-7.556.725-.736 1.896-.801 2.691-.141 2.214 1.834 3.622 4.6 3.622 7.697zm-140-51.767h130c5.523 0 10-4.477 10-10 0-20.156-11.931-37.515-29.113-45.426-3.331-1.534-7.137.859-7.137 4.527v13.084c0 4.107-3.164 7.688-7.269 7.811-4.247.128-7.731-3.278-7.731-7.497v-17.499c0-2.761-2.239-5-5-5h-6.25c-2.761 0-5 2.239-5 5v17.186c0 4.107-3.164 7.688-7.269 7.811-4.247.128-7.731-3.278-7.731-7.497v-17.5c0-2.761-2.239-5-5-5h-6.25c-2.761 0-5 2.239-5 5v17.186c0 4.107-3.164 7.688-7.269 7.811-4.247.128-7.731-3.278-7.731-7.497v-13.399c0-3.667-3.805-6.06-7.137-4.527-17.182 7.911-29.113 25.27-29.113 45.426 0 5.523 4.477 10 10 10z" fill="#fde803"/><path d="m315.5 160h-85.762c-5.085-9.105-8.544-19.242-9.984-30.018 3.971-.27 6.996-3.782 6.996-7.797v-17.185c0-2.761 2.239-5 5-5h6.25c2.761 0 5 2.239 5 5v17.5c0 4.219 3.483 7.624 7.731 7.497 4.105-.123 7.269-3.704 7.269-7.811v-17.186c0-2.761 2.239-5 5-5h6.25c2.761 0 5 2.239 5 5v17.5c0 4.219 3.483 7.624 7.731 7.497 4.105-.123 7.269-3.704 7.269-7.811v-13.084c0-3.667 3.805-6.06 7.137-4.527 17.182 7.91 29.113 25.269 29.113 45.426 0 5.522-4.477 9.999-10 9.999z" fill="#fdf061"/></svg>