<svg id="Capa_1" enable-background="new 0 0 512 512" height="512" viewBox="0 0 512 512" width="512" xmlns="http://www.w3.org/2000/svg"><path d="m62.642 411.976c-33.476-42.954-52.953-97.354-51.574-156.344 3.103-132.705 112.408-239.247 245.149-239.132 135.21.117 244.783 109.763 244.783 245 0 45.927-12.637 88.902-34.624 125.639-12.563 20.99-35.363 33.702-59.826 33.702h-325.64c-7.125-.001-13.888-3.245-18.268-8.865z" fill="#63bcfa"/><path d="m283.708 345.5-8.295 71.843c-6.447 55.833-64.478 90.714-116.4 69.198-.492-.204-.973-.409-1.444-.616-38.112-16.74-71.148-42.904-96.158-75.542l-7.492-64.883-34.831-301.654h270.912z" fill="#ab2538"/><path d="m309.678 120.587-23.434 202.947c-.885 7.666-2.69 15.023-5.297 21.966-13.28 35.369-47.369 60-86.678 60-12.867 0-25.176-2.64-36.378-7.431-15.982 18.462-36.079 35.029-62.238 48.676-12.606-10.921-24.086-23.108-34.243-36.363l-13.195-114.281c18.324-6.503 34.244-14.354 48.234-23.192l-26.449-229.063h201.916z" fill="#f52c2c"/><path d="m317.211 55.349-7.533 65.238c-92.143 64.773-77.461 191.623-151.785 277.483-29.737-12.719-51.68-40.603-55.598-74.536l-5.845-50.624c115.889-73.202 99.426-214.101 220.761-217.561z" fill="#fc6930"/><path d="m290.917 46.474h-245.845c-6.789 0-12.292-5.503-12.292-12.292v-4.097c-.001-13.578 11.006-24.585 24.584-24.585h221.261c13.578 0 24.585 11.007 24.585 24.585v4.097c-.001 6.789-5.505 12.292-12.293 12.292z" fill="#fdc273"/><path d="m291.736 46.474h-197.495c-6.789 0-12.292-5.503-12.292-12.292v-4.097c0-13.578 11.007-24.585 24.585-24.585h172.911c13.578 0 24.585 11.007 24.585 24.585v4.097c-.002 6.789-5.505 12.292-12.294 12.292z" fill="#ffdf8e"/><path d="m323.696 76.625h-311.404c-6.789 0-12.292-5.503-12.292-12.292v-16.39c0-6.789 5.503-12.292 12.292-12.292h311.404c6.789 0 12.292 5.503 12.292 12.292v16.39c0 6.789-5.503 12.292-12.292 12.292z" fill="#fdd194"/><path d="m324.515 76.625h-254.859c-6.789 0-12.292-5.503-12.292-12.292v-16.39c0-6.789 5.503-12.292 12.292-12.292h254.859c6.789 0 12.292 5.503 12.292 12.292v16.39c.001 6.789-5.503 12.292-12.292 12.292z" fill="#fff2b4"/><path d="m511.694 379.825c1.914 10.879-5.354 21.249-16.233 23.163l-87.108 15.323-9.486 10.386c-3.725 4.078-10.05 4.365-14.128.64l-6.31-5.763-40.549 7.133c-5.439.957-10.624-2.677-11.581-8.116l-1.733-9.849c-.957-5.439 2.677-10.624 8.116-11.581l60.409-10.627 15.735-17.228c-3.426-2.368-5.133-6.734-3.931-10.963l46.489-163.52c1.51-5.312 7.041-8.394 12.354-6.884 10.625 3.021 16.789 14.082 13.768 24.707l-33.626 118.28 47.479-51.987c3.724-4.078 10.05-4.365 14.128-.64 8.156 7.449 8.729 20.099 1.281 28.255l-65.269 71.465 58.615-10.311c5.438-.956 10.623 2.677 11.58 8.117z" fill="#f5c02c"/><path d="m410.333 400.5h-190.666c-19.33 0-35-15.67-35-35 0-19.33 15.67-35 35-35h190.667c19.33 0 35 15.67 35 35-.001 19.33-15.671 35-35.001 35z" fill="#6d4336"/><path d="m410.333 400.5h-140.666c-19.33 0-35-15.67-35-35 0-19.33 15.67-35 35-35h140.667c19.33 0 35 15.67 35 35-.001 19.33-15.671 35-35.001 35z" fill="#a64b30"/><path d="m255 465.5h-40c-19.33 0-35-15.67-35-35v-15c0-11.046 8.954-20 20-20h70c11.046 0 20 8.954 20 20v15c0 19.33-15.67 35-35 35z" fill="#d98800"/><path d="m345.364 465.5h-90.364c-19.33 0-35-15.67-35-35v-15c0-11.046 8.954-20 20-20h190.667c9.483 0 17.424 6.6 19.482 15.457-2.804 3.638-5.709 7.194-8.709 10.665-24.111 27.898-59.204 43.878-96.076 43.878z" fill="#fd9d01"/><path d="m353.103 425.5c30.498 0 40.364 41.115 13.138 54.856-33.137 16.724-70.589 26.144-110.241 26.144-35.012 0-68.309-7.345-98.434-20.576-.059-.026-.105-.075-.127-.136l-16.73-46.596c-2.394-6.667 2.547-13.691 9.631-13.691h202.763z" fill="#8279c0"/><path d="m207.349 501.67c-17.36-3.498-34.055-8.83-49.875-15.787l-16.877-47.004c-2.339-6.515 2.489-13.379 9.412-13.379h29.991z" fill="#6354b0"/><path d="m177.08 464.188-55.232-37.874c-2.431-1.667-1.251-5.474 1.697-5.474h204.913c3.483 0 4.169 4.938.817 5.887l-139.626 39.523c-4.288 1.214-8.894.459-12.569-2.062z" fill="#fdc273"/><path d="m225.687 420.84h216.426c-21.052 24.566-46.882 44.915-76.052 59.606z" fill="#fff2b4"/><path d="m365.707 433.369-54.761-37.551c-1.758-1.205-.905-3.958 1.227-3.958h124.035c2.131 0 2.984 2.752 1.227 3.958l-54.761 37.551c-5.113 3.506-11.855 3.506-16.967 0z" fill="#fde803"/><path d="m340 335.5v15c0 8.284-6.716 15-15 15-.018 0-.035 0-.053 0-2.706-.009-4.947 2.073-4.947 4.78v20.22c0 8.284-6.716 15-15 15-8.284 0-15-6.716-15-15v-55z" fill="#fff2b4"/><path d="m330.333 320.5c0 19.33-15.67 35-35 35-8.963 0-17.139-3.37-23.331-8.911-8.158 11.446-21.542 18.911-36.669 18.911-24.853 0-45-20.147-45-45s20.147-45 45-45c15.127 0 28.511 7.464 36.669 18.911 6.192-5.541 14.368-8.911 23.331-8.911 19.33 0 35 15.67 35 35z" fill="#0cc33c"/><path d="m238.954 365.356c-1.194.095-2.401.144-3.62.144-24.853 0-45-20.147-45-45s20.147-45 45-45c1.219 0 2.426.049 3.62.144-11.471 9.968-18.954 26.344-18.954 44.856s7.483 34.888 18.954 44.856z" fill="#0ca12d"/><path d="m440.333 320.5c0 24.853-20.147 45-45 45-12.066 0-23.023-4.749-31.104-12.48-4.328 1.604-9.01 2.48-13.896 2.48-22.091 0-40-17.909-40-40s17.909-40 40-40c8.034 0 15.514 2.369 21.781 6.446 6.779-4.091 14.724-6.446 23.219-6.446 24.853 0 45 20.147 45 45z" fill="#04d481"/><path d="m354.659 355.268c-1.421.153-2.864.232-4.326.232-22.091 0-40-17.909-40-40s17.909-40 40-40c5.11 0 9.996.959 14.489 2.706-16.256 6.749-27.689 22.776-27.689 41.475 0 14.492 6.868 27.38 17.526 35.587z" fill="#08b772"/><path d="m440 315.5h-250c-5.523 0-10-4.477-10-10 0-49.706 40.294-90 90-90h90c49.706 0 90 40.294 90 90 0 5.523-4.477 10-10 10z" fill="#f19b0b"/><path d="m440 315.5h-220v-10c0-49.706 40.294-90 90-90h50c49.706 0 90 40.294 90 90 0 5.523-4.477 10-10 10z" fill="#f4aa39"/><path d="m270 215.5h16.689l-12.93 48.254c-1.072 4.001-5.185 6.375-9.186 5.303l-1.87-.501c-4.001-1.072-6.375-5.185-5.303-9.186l11.754-43.867c.283-.001.564-.003.846-.003zm25.257 43.871c-1.072 4.001 1.302 8.114 5.303 9.186l1.87.501c4.001 1.072 8.114-1.302 9.186-5.303l12.93-48.254h-17.533zm64.743-43.871h-12.988l-11.755 43.871c-1.072 4.001 1.302 8.114 5.303 9.186l1.87.501c4.001 1.072 8.114-1.302 9.186-5.303l12.9-48.143c-1.496-.074-3.002-.112-4.516-.112z" fill="#e55920"/></svg>