<svg id="Capa_1" enable-background="new 0 0 501 501" height="512" viewBox="0 0 501 501" width="512" xmlns="http://www.w3.org/2000/svg"><path d="m495.5 256c0 135.31-109.69 245-245 245s-245-109.69-245-245 109.69-245 245-245 245 109.69 245 245z" fill="#63bcfa"/><path d="m49.5 150h-19.945c5.013-10.431 10.744-20.452 17.127-30h2.818c8.284 0 15 6.716 15 15s-6.716 15-15 15zm50-30h80c8.284 0 15-6.716 15-15 0-8.284-6.716-15-15-15h-80c-8.284 0-15 6.716-15 15 0 8.284 6.716 15 15 15zm170-40h80c8.284 0 15-6.716 15-15s-6.716-15-15-15h-80c-8.284 0-15 6.716-15 15s6.716 15 15 15zm170 70h31.945c-5.013-10.431-10.744-20.452-17.127-30h-14.818c-8.284 0-15 6.716-15 15s6.716 15 15 15zm-335 185c0-8.284-6.716-15-15-15h-75.556c2.776 10.284 6.203 20.299 10.237 30h65.319c8.284 0 15-6.716 15-15zm150 50c0-8.284-6.716-15-15-15h-140c-8.284 0-15 6.716-15 15 0 8.284 6.716 15 15 15h140c8.284 0 15-6.716 15-15zm165-65c-8.284 0-15 6.716-15 15s6.716 15 15 15h57.319c4.034-9.701 7.462-19.716 10.237-30zm-145 85c0 8.284-6.716 15-15 15h-60c-8.284 0-15 6.716-15 15 0 8.284 6.716 15 15 15h140c8.284 0 15-6.716 15-15 0-8.284 6.716-15 15-15h63.016c8.45-9.373 16.187-19.401 23.124-30h-166.14c-8.284 0-15 6.716-15 15z" fill="#91cefb"/><path d="m229.161 230h42.678v270.083c-7.032.607-14.149.917-21.339.917s-14.307-.31-21.339-.917z" fill="#5b3374"/><path d="m258.169 480c-7.549 0-13.669-6.12-13.669-13.669v-222.662c0-7.549 6.12-13.669 13.669-13.669 7.549 0 13.669 6.12 13.669 13.669v222.661c.001 7.55-6.119 13.67-13.669 13.67z" fill="#6354b0"/><path d="m229.287 435.96-192.374-192.373c-11.716-11.716-11.716-30.711 0-42.426l192.374-192.374c11.716-11.716 30.711-11.716 42.426 0l192.374 192.373c11.716 11.716 11.716 30.711 0 42.426l-192.374 192.374c-11.716 11.716-30.71 11.716-42.426 0z" fill="#f52c2c"/><path d="m271.839 435.835-.126.126c-11.716 11.716-30.711 11.716-42.426 0l-192.374-192.374c-11.716-11.716-11.716-30.711 0-42.426l192.374-192.374c11.716-11.716 30.711-11.716 42.426 0l.126.126-192.248 192.247c-11.716 11.716-11.716 30.711 0 42.426z" fill="#ab2538"/><path d="m434.751 204.696-166.573-166.574c-9.748-9.748-25.607-9.748-35.355 0l-166.574 166.574c-9.748 9.748-9.748 25.608 0 35.356l166.573 166.573c4.875 4.875 11.275 7.312 17.678 7.311 6.401-.001 12.804-2.438 17.678-7.311l166.573-166.573c9.748-9.748 9.748-25.609 0-35.356zm-14.142 21.213-166.574 166.574c-1.274 1.274-2.762 1.464-3.535 1.464s-2.261-.19-3.535-1.464l-166.574-166.574c-1.274-1.274-1.464-2.762-1.464-3.536 0-.773.19-2.261 1.464-3.535l166.574-166.574c1.274-1.274 2.762-1.464 3.535-1.464s2.261.19 3.535 1.464l166.574 166.574c1.274 1.274 1.464 2.762 1.464 3.535.001.774-.19 2.262-1.464 3.536z" fill="#ecb700"/><path d="m434.751 240.052-105.291 105.29c-4.481 4.481-11.947 3.717-15.428-1.579-2.605-3.963-2.068-9.21 1.286-12.564l105.291-105.291c1.274-1.274 1.464-2.762 1.464-3.536 0-.773-.19-2.261-1.464-3.535l-166.574-166.573c-1.274-1.274-2.762-1.464-3.535-1.464s-2.261.19-3.535 1.464l-66.455 66.455c-4.481 4.481-11.947 3.717-15.428-1.579-2.605-3.963-2.068-9.21 1.286-12.563l66.454-66.454c9.763-9.763 25.592-9.763 35.355 0l166.573 166.573c9.749 9.747 9.749 25.608.001 35.356zm-124.064 45.995c-.03 0-.059 0-.088 0-5.522-.047-9.961-4.563-9.913-10.086.058-6.775.118-14.355.175-22.234h-44.697c-3.538 0-6.812-1.87-8.611-4.916-1.798-3.046-1.854-6.817-.145-9.915 6.153-11.152 37.163-67.176 43.423-74.857 7.361-9.031 15.294-7.795 18.364-6.844 6.478 2.006 11.082 8.326 11.73 16.102.33 3.957.234 33.567.072 60.43h3.935c5.523 0 10 4.477 10 10s-4.477 10-10 10h-4.069c-.074 10.11-.143 18.336-.178 22.407-.048 5.492-4.516 9.912-9.998 9.913zm-9.551-101.257c-6.327 10.513-17.095 29.403-27.99 48.937h27.846c.114-19.287.185-37.91.144-48.937zm-64.904 83.148c-.042 0-.085 0-.128.001-13.009.163-26.899.263-37.385.25 6.176-8.179 15.479-20.742 28.877-39.886 6.82-9.744 11.258-18.912 13.191-27.249.076-.327.135-.658.178-.991l.542-4.236c.054-.42.081-.844.081-1.268 0-20.965-17.057-38.022-38.022-38.022-18.128 0-33.818 12.896-37.308 30.663-1.064 5.419 2.466 10.675 7.885 11.74 5.417 1.063 10.675-2.466 11.74-7.885 1.652-8.412 9.089-14.518 17.683-14.518 9.748 0 17.712 7.778 18.013 17.454l-.384 3.001c-1.42 5.73-4.777 12.403-9.984 19.843-17.375 24.827-27.747 38.406-33.318 45.701-6.722 8.801-9.237 12.094-7.485 17.789 1.011 3.288 3.509 5.813 6.855 6.928 1.32.44 2.873.958 24.047.958 8.288 0 19.583-.08 35.045-.274 5.522-.069 9.943-4.602 9.874-10.125-.069-5.48-4.532-9.874-9.997-9.874z" fill="#fded32"/><path d="m241.738 194.655c-.001.391-.031.784-.08 1.172l-.542 4.236c-.04.314-.093.622-.164.93-1.926 8.353-6.369 17.542-13.205 27.309-3.56 5.087-7.005 9.705-10.003 13.9-3.592 5.028-10.658 5.62-15.027 1.251-3.458-3.458-4.015-8.966-1.172-12.945 2.962-4.145 6.204-8.729 9.723-13.757 5.207-7.439 8.514-14.093 9.935-19.824l.376-2.937c-.301-9.676-8.139-17.09-17.86-17.366-8.59-.244-16.033 6.017-17.685 14.429-1.092 5.56-6.657 9.345-12.221 8.008-5.269-1.266-8.839-6.583-7.744-11.891 3.628-17.584 18.797-30.637 36.804-30.635 23.71.004 38.918 17.11 38.865 38.12zm69.395 55.932c5.531 0 9.825-4.446 9.825-9.93l.038-6.93c.162-26.863.257-56.474-.072-60.43-.095-1.145-.277-2.257-.537-3.33-1.505-3.598-5.081-6.13-9.254-6.13-5.531 0-10.014 4.446-10.014 9.93 0 0 .011 11.031.016 11.022.022 5.721.013 13.488-.016 22.33l-.161 33.537c0 5.485 4.644 9.931 10.175 9.931zm82.16-87.349-94.551-94.551c-3.905-3.905-10.273-3.881-14.178.024s-3.905 10.237 0 14.142l94.628 94.567c3.905 3.905 10.168 3.896 14.073-.009s3.934-10.268.028-14.173z" fill="#fcf498"/></svg>