<svg id="Capa_1" enable-background="new 0 0 501 501" height="512" viewBox="0 0 501 501" width="512" xmlns="http://www.w3.org/2000/svg"><path d="m490 256c0 135.31-109.69 245-245 245s-245-109.69-245-245 109.69-245 245-245 245 109.69 245 245z" fill="#fde803"/><path d="m445.35 324.35c-66.981 66.981-171.531 73.497-245.822 19.548l-63.315 63.315-42.426-42.426 63.315-63.315c-53.949-74.291-47.434-178.84 19.548-245.822 74.2-74.2 194.501-74.2 268.701 0 74.199 74.199 74.199 194.501-.001 268.7z" fill="#54469b"/><path d="m419.653 81.347c60.007 60.007 60.007 157.299 0 217.306s-157.299 60.007-217.306 0-60.007-157.299 0-217.306 157.299-60.007 217.306 0z" fill="#0cabb9"/><path d="m419.653 81.347c54.275 54.275 59.455 139.048 15.55 199.15-60.102 43.905-144.876 38.725-199.151-15.55s-59.455-139.048-15.55-199.151c60.103-43.904 144.876-38.724 199.151 15.551z" fill="#49b4fa"/><path d="m95.107 426.107c-6.134-6.134-6.134-16.079 0-22.213l63.186-63.186c6.134-6.134 16.079-6.134 22.213 0 6.134 6.134 6.134 16.079 0 22.213l-63.186 63.186c-6.134 6.134-16.079 6.134-22.213 0z" fill="#6354b0"/><path d="m102.574 356 42.426 42.426-50.732 50.732c-15.813-12.357-30.069-26.614-42.427-42.426z" fill="#ab2538"/><path d="m122.787 376.213 22.213 22.213-50.732 50.732c-8.279-6.469-16.13-13.459-23.506-20.92z" fill="#f52c2c"/><path d="m418.454 148.581c0 20.857-9.907 35.086-23.787 40.31l-5.279 89.349c-.224 3.796-3.368 6.76-7.171 6.76s-6.947-2.964-7.171-6.76l-5.279-89.349c-13.88-5.224-23.787-19.453-23.787-40.31 0-16.931 6.529-41.276 16.413-52.195.465-.513 1.32-.194 1.344.498l1.899 55.071c.089 2.582 2.334 4.595 4.969 4.335 2.274-.225 3.969-2.221 4.059-4.505l1.624-41.13c.218-5.523 2.063-10.859 5.304-15.336.309-.427.944-.427 1.253 0 3.24 4.478 5.086 9.813 5.304 15.336l1.631 41.322c.102 2.579 2.353 4.582 4.987 4.311 2.274-.234 3.961-2.239 4.04-4.524l1.893-54.881c.024-.692.879-1.012 1.344-.498 9.881 10.92 16.41 35.264 16.41 52.196zm-91.116-24.811h-5.657c.086-.411.133-.837.133-1.274 0-6.78-5.497-12.276-12.277-12.276h-8.682v-6.565c0-4.78-3.875-8.655-8.655-8.655s-8.655 3.875-8.655 8.655v6.565h-52.992c-6.78 0-12.277 5.496-12.277 12.276 0 .437.046.863.133 1.274h-5.657c-5.085 0-9.208 4.122-9.208 9.207s4.122 9.207 9.208 9.207h114.585c5.085 0 9.208-4.122 9.208-9.207s-4.121-9.207-9.207-9.207zm-8.916 31.23h-96.015c-3.06 0-5.401 2.723-4.944 5.748l17.506 115.748c.74 4.89 4.942 8.505 9.888 8.505h51.116c4.945 0 9.148-3.615 9.888-8.505l17.506-115.748c.456-3.025-1.886-5.748-4.945-5.748z" fill="#e3f0fb"/><path d="m323.366 160.748-11.541 76.306c-2.222 14.692-14.849 25.553-29.708 25.553-14.859 0-27.486-10.861-29.708-25.553l-12.411-82.054h78.423c3.06 0 5.402 2.723 4.945 5.748zm3.972-36.978h-5.657c.086-.411.133-.837.133-1.274 0-6.78-5.497-12.276-12.277-12.276h-52.983c-6.78 0-12.277 5.496-12.277 12.276 0 .437.046.863.133 1.274h-5.657c-5.085 0-9.208 4.122-9.208 9.207s4.122 9.207 9.208 9.207h88.585c5.085 0 9.208-4.122 9.208-9.207s-4.122-9.207-9.208-9.207zm74.71-27.378c-.468-.517-1.326-.205-1.35.492l-1.899 55.071c-.084 2.431-2.079 4.358-4.51 4.358-2.423 0-4.414-1.914-4.51-4.335l-1.631-41.322c-.218-5.523-2.063-10.859-5.304-15.336-.309-.427-.944-.427-1.253 0-3.24 4.478-5.085 9.813-5.304 15.336l-1.631 41.322c-.096 2.421-2.086 4.335-4.51 4.335-2.432 0-4.427-1.927-4.511-4.358l-1.896-54.98c-6.212 10.08-10.027 23.198-10.027 36.14 0 26.69 16.224 42.528 36.237 42.528 10.558 0 20.061-4.408 26.684-12.491 1.181-4.404 1.821-9.274 1.821-14.572 0-16.927-6.526-41.266-16.406-52.188z" fill="#fff5f5"/></svg>