<svg id="Capa_1" enable-background="new 0 0 501 501" height="512" viewBox="0 0 501 501" width="512" xmlns="http://www.w3.org/2000/svg"><path d="m67.151 416.347c-.912.279-1.902-.003-2.523-.726-36.854-42.877-59.128-98.648-59.128-159.621 0-135.225 109.552-244.862 244.744-245 133.129-.136 242.617 107.012 245.208 240.116 1.224 62.874-21.242 120.48-59.075 164.498-.625.727-1.621 1.011-2.537.73-55.073-16.849-117.369-26.344-183.34-26.344-65.974 0-128.273 9.496-183.349 26.347z" fill="#54469b"/><path d="m418.258 250h13.242c2.761 0 5 2.239 5 5v105c0 22.091-17.909 40-40 40h-292c-22.091 0-40-17.909-40-40v-105c0-2.761 2.239-5 5-5h13.242c1.326 0 2.598.527 3.536 1.464l22.087 22.087c1.953 1.953 5.118 1.953 7.071 0l22.087-22.087c.938-.938 2.209-1.464 3.536-1.464h10.983c1.326 0 2.598.527 3.536 1.464l22.088 22.087c1.953 1.953 5.118 1.953 7.071 0l22.088-22.087c.938-.938 2.209-1.464 3.536-1.464h10.983c1.326 0 2.598.527 3.536 1.464l22.087 22.087c1.953 1.953 5.118 1.953 7.071 0l22.088-22.087c.938-.938 2.209-1.464 3.536-1.464h10.983c1.326 0 2.598.527 3.536 1.464l22.087 22.087c1.953 1.953 5.118 1.953 7.071 0l22.088-22.087c.938-.938 2.209-1.464 3.536-1.464h10.983c1.326 0 2.598.527 3.536 1.464l22.087 22.087c1.953 1.953 5.118 1.953 7.071 0l22.087-22.087c.933-.937 2.205-1.464 3.531-1.464z" fill="#8279c0"/><path d="m122.312 394.975c15.093 8.935 31.228 16.297 48.178 21.86l8.587-172.545c35.939-13.49 61.597-50.308 61.597-104.29 0-69.036-41.964-140-93.729-140s-93.729 70.964-93.729 140c0 53.982 25.658 90.8 61.597 104.29zm325.472-256.386c0 53.946-25.624 90.751-61.526 104.263l-7.511 150.941c-2.407 1.482-4.842 2.924-7.303 4.323-6.666 3.791-33.97 16.112-40.943 18.525l-8.648-173.789c-35.902-13.512-61.526-50.317-61.526-104.263 0-43.785 16.881-106.737 42.436-134.987 1.209-1.337 3.429-.53 3.492 1.272l4.913 142.444c.217 6.287 5.376 11.271 11.667 11.271 6.268 0 11.417-4.95 11.665-11.213l4.219-106.88c.564-14.286 5.336-28.086 13.718-39.668.799-1.103 2.442-1.103 3.241 0 8.382 11.582 13.154 25.383 13.718 39.668l4.219 106.88c.247 6.263 5.396 11.213 11.665 11.213 6.291 0 11.45-4.984 11.667-11.271l4.913-142.444c.062-1.801 2.282-2.608 3.492-1.272 25.552 28.249 42.432 91.201 42.432 134.987z" fill="#fdc273"/><path d="m176.945 210c-51.765 0-93.729-40.964-93.729-110 0-28.64 7.223-57.612 19.371-81.711 13.205-11.469 28.31-18.289 44.358-18.289 51.765 0 93.729 70.964 93.729 140 0 19.764-3.44 37.227-9.564 52.088-15.295 11.686-33.985 17.912-54.165 17.912zm228.403-206.398c-1.209-1.337-3.429-.53-3.492 1.272l-4.913 142.444c-.217 6.287-5.376 11.271-11.667 11.271-6.268 0-11.417-4.95-11.665-11.213l-4.219-106.88c-.564-14.286-5.336-28.086-13.718-39.668-.799-1.103-2.442-1.103-3.241 0-8.382 11.582-13.154 25.383-13.718 39.668l-4.219 106.88c-.247 6.263-5.396 11.213-11.665 11.213-6.291 0-11.45-4.984-11.667-11.271l-4.902-142.208c-16.068 26.072-25.936 60.002-25.936 93.479 0 69.036 41.964 110 93.729 110 27.308 0 51.889-11.401 69.02-32.309 3.055-11.391 4.709-23.988 4.709-37.691 0-43.786-16.88-106.738-42.436-134.987z" fill="#ffdf8e"/><path d="m64.5 415.471v-97.267c0-2.761 2.239-5 5-5h13.242c1.326 0 2.598.527 3.536 1.464l22.087 22.087c1.953 1.953 5.118 1.953 7.071 0l22.087-22.087c.938-.938 2.209-1.464 3.535-1.464h10.983c1.326 0 2.598.527 3.535 1.464l22.088 22.087c1.953 1.953 5.118 1.953 7.071 0l22.088-22.087c.938-.938 2.209-1.464 3.536-1.464h10.983c1.326 0 2.598.527 3.536 1.464l22.088 22.087c1.953 1.953 5.118 1.953 7.071 0l22.088-22.087c.938-.938 2.209-1.464 3.536-1.464h10.982c1.326 0 2.598.527 3.536 1.464l22.087 22.087c1.953 1.953 5.118 1.953 7.071 0l22.088-22.087c.938-.938 2.209-1.464 3.535-1.464h10.983c1.326 0 2.598.527 3.535 1.464l22.087 22.087c1.953 1.953 5.118 1.953 7.071 0l22.087-22.087c.938-.938 2.209-1.464 3.536-1.464h13.241c2.761 0 5 2.239 5 5v97.267c-44.933 52.359-111.593 85.529-186 85.529s-141.067-33.17-186-85.529z" fill="#5affb7"/><path d="m64.5 415.471v-97.267c0-2.761 2.239-5 5-5h13.242c1.326 0 2.598.527 3.536 1.464l18.222 18.222v119.874c-14.683-10.912-28.103-23.43-40-37.293z" fill="#08e092"/><path d="m152.042 313.204c1.326 0 2.598.527 3.535 1.464l22.088 22.087c1.953 1.953 5.118 1.953 7.071 0l2.764-2.764v158.832c-13.853-3.676-27.225-8.535-40-14.462v-165.157zm279.458 0h-13.242c-1.326 0-2.598.527-3.536 1.464l-18.222 18.223v119.873c14.683-10.913 28.104-23.43 40-37.293v-97.267c0-2.762-2.239-5-5-5zm-201 186.991c6.596.533 13.266.805 20 .805s13.404-.272 20-.805v-179.904l-16.464 16.464c-1.953 1.953-5.118 1.953-7.071 0l-16.465-16.464zm83-166.203v158.832c5.745-1.524 11.408-3.252 16.979-5.175 3.8-1.312 13.725-5.608 23.021-9.849v-164.596h-4.542c-1.326 0-2.598.527-3.535 1.464l-22.088 22.087c-1.953 1.953-5.118 1.953-7.071 0z" fill="#00f1a5"/></svg>