<svg id="Capa_1" enable-background="new 0 0 501 501" height="512" viewBox="0 0 501 501" width="512" xmlns="http://www.w3.org/2000/svg"><path d="m29.83 373.259c-19.582-35.857-30.462-77.147-29.802-121.032 2.03-134.851 111.614-242.033 246.478-241.221 92.709.558 173.21 52.608 214.347 128.995h-152.085c-120.086 0-217.434 97.349-217.434 217.434-.001 33.892-45.261 45.568-61.504 15.824z" fill="#05a2f9"/><path d="m182.151 140.001c-4.672-18.897-7.151-38.659-7.151-59 0-21.445 2.755-42.246 7.931-62.069 19.823-5.176 40.624-7.931 62.069-7.931 93.342 0 174.493 52.2 215.852 129z" fill="#49b4fa"/><path d="m204 10.001h155c22.091 0 40 17.909 40 40v70h-30v-80h-175v80h-30v-70c0-22.091 17.909-40 40-40z" fill="#fc6930"/><path d="m197.76 40.001h-3.76v80h-30v-70c0-22.091 17.909-40 40-40h32.5c-18.638 0-34.299 12.748-38.74 30z" fill="#fc5426"/><path d="m490 254.094c0 140.408-108.375 246.905-246.106 246.905-35.469 0-69.158-7.851-99.548-21.562-20.904-9.432-34.346-30.235-34.346-53.168v-286.268c0-16.569 13.431-30 30-30h320c16.569 0 30 13.431 30 30zm-118.5-219.093v-20c0-8.284-6.716-15-15-15h-150c-8.284 0-15 6.716-15 15v20c0 8.284 6.716 15 15 15h150c8.284 0 15-6.716 15-15z" fill="#fde803"/><path d="m99 110.001h50c-16.569 0-30 13.431-30 30v173.104c0 21.774-25.991 32.862-41.85 17.942-.155-.146-.31-.292-.465-.439-4.926-4.659-7.685-11.164-7.685-17.944v-172.663c0-16.568 13.431-30 30-30zm141.188-60h-33.688c-8.284 0-15-6.716-15-15v-20c0-8.284 6.716-15 15-15h33.688c-5.13 2.383-8.688 7.582-8.688 13.611v22.778c0 6.03 3.558 11.228 8.688 13.611z" fill="#f5c02c"/><path d="m490.167 181.668h-420.334c-5.983 0-10.833-4.85-10.833-10.833 0-5.983 4.85-10.833 10.833-10.833h420.333c5.983 0 10.833 4.85 10.833 10.833.001 5.983-4.849 10.833-10.832 10.833z" fill="#f19b0b"/><path d="m118.167 181.668h-48.334c-5.983 0-10.833-4.85-10.833-10.833 0-5.983 4.85-10.833 10.833-10.833h48.333c5.983 0 10.833 4.85 10.833 10.833.001 5.983-4.849 10.833-10.832 10.833z" fill="#f57e00"/><path d="m449 325.001c0 19.33-15.67 35-35 35s-35-15.67-35-35c0-11.894 5.933-22.401 15-28.726v-71.274c0-11.046 8.954-20 20-20s20 8.954 20 20v71.274c9.067 6.325 15 16.833 15 28.726z" fill="#f5c02c"/><path d="m421.5 227.501v85c0 4.142-3.358 7.5-7.5 7.5-4.142 0-7.5-3.358-7.5-7.5v-85c0-4.142 3.358-7.5 7.5-7.5 4.142 0 7.5 3.358 7.5 7.5z" fill="#fd8f01"/><path d="m434 325.001c0 11.046-8.954 20-20 20s-20-8.954-20-20c0-8.393 5.17-15.579 12.5-18.546v-56.954c0-4.142 3.358-7.5 7.5-7.5s7.5 3.358 7.5 7.5v56.954c7.33 2.967 12.5 10.153 12.5 18.546zm-325-125c0 5.523 4.477 10 10 10s10-4.477 10-10v-40h-20z" fill="#f52c2c"/><path d="m483.636 461.398c0 10.274-8.329 18.603-18.603 18.603h-319.426c-49.812-22.135-90.87-60.398-116.545-108.16-.041-1.753-.062-3.51-.062-5.272 0-.146 0-.292 0-.438.068-35.167 14.929-68.881 41.054-92.422 25.827-23.272 59.558-37.941 96.679-39.492-4.208-2.315-7.06-6.791-7.06-11.934 0-7.518 6.094-13.612 13.612-13.612h36.298c7.518 0 13.612 6.094 13.612 13.612 0 5.143-2.852 9.619-7.061 11.934 82.161 3.432 147.717 71.125 147.717 154.13v54.448h101.182c10.274 0 18.603 8.329 18.603 18.603z" fill="#f52c2c"/><path d="m132.45 442.795c-7.518 0-13.612-6.094-13.612-13.612v-49.91c0-66.506 38.306-123.387 97.298-145.056 88.05 4.174 147.716 72.403 147.716 154.131v54.448h-231.402z" fill="#fc6930"/><path d="m282.363 283.707c-23.955-23.955-62.792-23.955-86.747 0-21.907 21.907-24.039 56.711-4.97 81.129l45.707 58.525c1.339 1.715 3.933 1.715 5.272 0l45.707-58.525c19.071-24.418 16.939-59.222-4.969-81.129zm-43.373 73.114c-17.977 0-32.55-14.573-32.55-32.55s14.573-32.55 32.55-32.55 32.55 14.573 32.55 32.55-14.573 32.55-32.55 32.55z" fill="#fdd194"/><path d="m282.363 283.707c-23.954-23.955-62.792-23.955-86.747 0-2.021 2.021-3.873 4.152-5.556 6.373-.645 3.891-.98 7.886-.98 11.959 0 40.094 32.503 72.597 72.597 72.597 7.022 0 13.812-.997 20.235-2.858l5.422-6.943c19.069-24.417 16.937-59.221-4.971-81.128zm-43.373 73.114c-17.977 0-32.55-14.573-32.55-32.55s14.573-32.55 32.55-32.55 32.55 14.573 32.55 32.55-14.573 32.55-32.55 32.55z" fill="#fff2b4"/><path d="m99.912 424.646c0 8.599-5.981 15.802-14.01 17.675-12.582-10.754-24.061-22.759-34.245-35.824h30.106c10.024 0 18.149 8.126 18.149 18.149zm195.404-147.173c-3.544-3.544-9.29-3.544-12.834 0l-43.493 43.494-16.269-16.27c-3.544-3.544-9.29-3.544-12.834 0s-3.544 9.29 0 12.834l22.686 22.686c1.772 1.772 4.095 2.658 6.417 2.658s4.645-.886 6.417-2.658l49.91-49.91c3.544-3.544 3.544-9.29 0-12.834z" fill="#962437"/></svg>