<svg id="Capa_1" enable-background="new 0 0 501 501" height="512" viewBox="0 0 501 501" width="512" xmlns="http://www.w3.org/2000/svg"><path d="m490 256c0 135.31-109.69 245-245 245s-245-109.69-245-245 109.69-245 245-245 245 109.69 245 245z" fill="#91cefb"/><path d="m319 140h141.852c3.499 6.496 6.712 13.168 9.625 20h-151.477c-5.523 0-10-4.477-10-10s4.477-10 10-10zm-70-20h199.817c-4.629-6.924-9.602-13.599-14.894-20h-184.923c-5.523 0-10 4.477-10 10s4.477 10 10 10zm232.007 70h-463.014c-5.86 20.998-8.993 43.133-8.993 66 0 25.792 3.986 50.652 11.374 74h458.252c7.388-23.348 11.374-48.208 11.374-74 0-22.867-3.133-45.002-8.993-66z" fill="#49b4fa"/><path d="m483.571 200h-94.571c-5.523 0-10-4.477-10-10s4.477-10 10-10h88.983c2.136 6.55 4.002 13.221 5.588 20zm-179.142 20h94.571c5.523 0 10 4.477 10 10s-4.477 10-10 10h-88.983c-2.136-6.55-4.002-13.221-5.588-20z" fill="#bbe0fb"/><path d="m435.56 410c-44.915 55.509-113.593 91-190.56 91-55.973 0-107.562-18.77-148.816-50.36-17.204-13.173-7.973-40.64 13.695-40.64z" fill="#8279c0"/><path d="m249 460h131.727c-11.467 7.645-23.615 14.348-36.334 20h-95.393c-5.523 0-10-4.477-10-10s4.477-10 10-10zm-58.616 0h-43.009c-10.661 0-13.804 14.514-4.107 18.946.126.058.253.116.38.173 1.288.586 2.692.881 4.108.881h42.972c5.743 0 10.355-4.841 9.978-10.665-.345-5.316-4.995-9.335-10.322-9.335z" fill="#6e61b5"/><path d="m144.651 40h-13.837l-6.531-32c-.95-4.656-5.046-8-9.798-8h-39.669c-4.752 0-8.848 3.344-9.798 8l-6.531 32h-13.836c-5.523 0-10 4.477-10 10v70c0 5.523 4.477 10 10 10h100c5.523 0 10-4.477 10-10v-70c0-5.523-4.478-10-10-10zm-62.5-27.5h25c4.142 0 7.5 3.358 7.5 7.5s-3.358 7.5-7.5 7.5h-25c-4.142 0-7.5-3.358-7.5-7.5s3.357-7.5 7.5-7.5z" fill="#d98800"/><path d="m154.651 50v70c0 5.523-4.477 10-10 10h-75.634c-5.523 0-10-4.477-10-10v-70c0-5.523 4.477-10 10-10h75.633c5.523 0 10.001 4.477 10.001 10z" fill="#f4aa39"/><path d="m479.151 320c5.432 0 9.836 4.402 9.838 9.834.007 20.649.011 66.621.011 66.621 0 16.569-13.431 30-30 30h-374.998s-80.061-104.206-80.061-170.455c0-34.547 3.21-67.424 16.111-97.231 4.861-11.232 10.54-22.028 16.959-32.314h145.806c52.697 0 102.016 25.948 131.863 69.379l38.071 55.397 76.432 16.739c5.732 1.255 9.817 6.332 9.817 12.199v19.831c0 11.046 8.952 20 22.147 20z" fill="#fc6930"/><path d="m461.917 370c-10.931 20.757-24.755 39.754-40.934 56.455h-336.981s-54.042-48.771-65.97-78.033c-10.435-25.598-16.664-53.358-17.831-82.421 1.374-34.223 9.768-66.639 23.781-95.847-3.266 15.954-4.982 32.472-4.982 49.391 0 56.717 19.273 108.932 51.626 150.455z" fill="#f52c2c"/><path d="m501 370v50c0 5.523-4.477 10-10 10h-162c-5.523 0-10-4.477-10-10v-50c0-5.523 4.477-10 10-10h162c5.523 0 10 4.477 10 10z" fill="#f89575"/><path d="m501 370v15c0 5.523-4.477 10-10 10h-45.44c-5.523 0-10-4.477-10-10v-15c0-5.523 4.477-10 10-10h45.44c5.523 0 10 4.477 10 10z" fill="#faab90"/><path d="m489 321.305v8.695h-40c-11.046 0-20-8.954-20-20v-42.07l20.697 4.533c22.948 5.026 39.303 25.35 39.303 48.842z" fill="#fdc273"/><path d="m488.913 318.348-11.067-2.424c-21.98-4.814-37.91-23.662-39.216-45.885l11.067 2.424c21.98 4.814 37.91 23.662 39.216 45.885z" fill="#ffdf8e"/><path d="m308.235 244.336c4.56 6.635-.19 15.664-8.241 15.664h-299.962c-.021-1.331-.032-2.664-.032-4 0-34.547 7.151-67.423 20.052-97.231h173.312c34.695 0 67.404 16.761 87.177 45.271.13.187.259.375.388.562z" fill="#6354b0"/><path d="m22.521 260h-22.489c-.021-1.331-.032-2.664-.032-4 0-34.547 7.151-67.423 20.052-97.231 0 0-4.958 54.991 2.469 101.231z" fill="#5b3374"/><path d="m299.994 260h-22.004l-38.072-55.397c-.129-.188-.258-.375-.388-.562-19.772-28.51-52.481-45.271-87.177-45.271h41.011c34.695 0 67.404 16.761 87.177 45.271.13.187.259.375.388.562l27.307 39.733c4.559 6.635-.191 15.664-8.242 15.664zm-180.994 0h30l-30-101.231h-30zm-40 0h20l-30-101.231h-20z" fill="#915cb3"/><path d="m139 126.455h20v300h-20zm210 103.545h-45c-8.284 0-15 6.716-15 15s6.716 15 15 15h5v166.455h20v-166.455h20c5.523 0 10-4.477 10-10v-10c0-5.523-4.477-10-10-10z" fill="#f52c2c"/><path d="m122.171 403.415c0 19.851-8.687 37.673-22.466 49.872-8.228-6.07-16.063-12.643-23.459-19.673-.342-.325-44.568-57.034-44.892-57.609-4.991-8.867-9.447-18.076-13.322-27.583 10.69-7.315 23.623-11.593 37.554-11.593 36.773 0 66.585 29.812 66.585 66.586zm300 0c0 36.774-29.811 66.585-66.585 66.585s-66.586-29.811-66.586-66.585 29.811-66.585 66.585-66.585 66.586 29.811 66.586 66.585z" fill="#012d4e"/><path d="m392.171 403.415c0 20.206-16.38 36.585-36.585 36.585-20.206 0-36.586-16.38-36.586-36.585 0-20.206 16.38-36.585 36.585-36.585 20.206-.001 36.586 16.379 36.586 36.585zm-336.586-36.586c-9.294 0-17.779 3.466-24.232 9.176 2.985 5.302 6.161 10.482 9.519 15.53.22.331 21.62 27.918 21.806 28.125 4.337 4.828 8.862 9.483 13.565 13.954 9.617-6.592 15.927-17.658 15.927-30.198.001-20.207-16.379-36.587-36.585-36.587z" fill="#2abbc7"/><path d="m379 400c0 11.046-8.954 20-20 20s-20-8.954-20-20 8.954-20 20-20 20 8.954 20 20zm-320-20c-8.021 0-14.939 4.722-18.126 11.537 6.59 9.905 13.883 19.304 21.806 28.125 9.288-1.727 16.32-9.873 16.32-19.662 0-11.046-8.954-20-20-20z" fill="#5affb7"/><path d="m109 280h-107.839c-.641-6.594-1.021-13.264-1.129-20h108.968c5.523 0 10 4.477 10 10s-4.477 10-10 10zm120 20h-225.06c1.227 6.768 2.732 13.438 4.503 20h220.557c5.523 0 10-4.477 10-10s-4.477-10-10-10z" fill="#f89575"/></svg>