<svg id="Capa_1" enable-background="new 0 0 501 501" height="512" viewBox="0 0 501 501" width="512" xmlns="http://www.w3.org/2000/svg"><path d="m495.5 256c0 135.31-109.69 245-245 245s-245-109.69-245-245 109.69-245 245-245 245 109.69 245 245z" fill="#fde803"/><path d="m383.178 110-30.506-96.054c-2.637-8.304-10.348-13.946-19.061-13.946h-166.222c-8.714 0-16.424 5.642-19.062 13.946l-30.505 96.054-34.211 51.331h333.778zm-57.678-45c0 13.807-11.193 25-25 25h-100c-13.807 0-25-11.193-25-25 0-13.807 11.193-25 25-25h100c13.807 0 25 11.193 25 25z" fill="#fc6930"/><path d="m450.4 163.05v234.635c-.096.135-.192.27-.288.405-16.585 23.258-43.566 36.861-72.132 36.861h-294.819c-12.059-11.281-22.977-23.767-32.561-37.266v-234.635c0-11.046 8.954-20 20-20h25.195l22.027-33.05 30.506-96.054c2.637-8.305 10.348-13.946 19.061-13.946h30.889c-8.714 0-16.424 5.642-19.062 13.946l-30.505 106.054-11.037 15.099c-2.415 3.304-.055 7.951 4.037 7.951h288.689c11.046 0 20 8.954 20 20z" fill="#f52c2c"/><path d="m106.102 434.95h-22.941c-12.059-11.281-22.977-23.767-32.561-37.266v-234.634c0-11.046 8.954-20 20-20h25.225c-.792 2.365-1.225 4.921-1.225 7.588v249.855c0 12.36 3.925 24.441 11.382 34.298z" fill="#ab2538"/><path d="m175.405 143.05v291.9h-38.705v-297.242h.013c-.179 2.71 1.919 5.341 4.998 5.341h33.694zm38.706 0v291.9h38.705v-291.9zm152.378 0v291.9h38.705v-291.9zm-75.084 0v291.9h38.705v-291.9z" fill="#c92e43"/><path d="m295.381 408.654h-60.333c-19.33 0-35-15.67-35-35 0-19.33 15.67-35 35-35h60.333c19.33 0 35 15.67 35 35 0 19.33-15.67 35-35 35z" fill="#6d4336"/><path d="m425.699 408.655h-140.667c-19.33 0-35-15.67-35-35 0-19.33 15.67-35 35-35h140.667c19.33 0 35 15.67 35 35 0 19.33-15.67 35-35 35z" fill="#a64b30"/><path d="m270.381 473.655h-40c-19.33 0-35-15.67-35-35v-15c0-11.046 8.954-20 20-20h70c11.046 0 20 8.954 20 20v15c0 19.33-15.67 35-35 35z" fill="#f19b0b"/><path d="m363.089 473.654h-92.708c-19.33 0-35-15.67-35-35v-15c0-11.046 8.954-20 20-20h176.972c5.587 0 8.625 6.546 5.01 10.805-20.58 24.246-45.794 44.433-74.274 59.195z" fill="#f4aa39"/><path d="m327.554 400.015h121.17c-3.676 5.051-7.541 9.957-11.584 14.706l-39.086 26.803c-5.112 3.505-11.854 3.505-16.966 0l-54.761-37.551c-1.757-1.205-.904-3.958 1.227-3.958z" fill="#fde803"/><path d="m355.381 343.654v15c0 8.284-6.716 15-15 15-.018 0-.035 0-.053 0-2.706-.009-4.947 2.073-4.947 4.78v20.22c0 8.284-6.716 15-15 15-8.284 0-15-6.716-15-15v-55z" fill="#fff2b4"/><path d="m345.715 328.654c0 19.33-15.67 35-35 35-8.963 0-17.139-3.369-23.331-8.91-8.158 11.446-21.542 18.91-36.669 18.91-24.853 0-45-20.147-45-45s20.147-45 45-45c15.127 0 28.511 7.464 36.669 18.911 6.192-5.541 14.368-8.911 23.331-8.911 19.33 0 35 15.671 35 35z" fill="#0cc33c"/><path d="m254.335 373.51c-1.194.095-2.401.144-3.62.144-24.853 0-45-20.147-45-45s20.147-45 45-45c1.219 0 2.426.049 3.62.144-11.471 9.968-18.954 26.344-18.954 44.856s7.483 34.889 18.954 44.856z" fill="#0ca12d"/><path d="m455.715 328.654c0 24.853-20.147 45-45 45-12.066 0-23.023-4.749-31.104-12.48-4.328 1.604-9.01 2.48-13.896 2.48-22.091 0-40-17.908-40-40 0-22.091 17.909-40 40-40 8.034 0 15.514 2.369 21.781 6.446 6.779-4.091 14.724-6.446 23.219-6.446 24.852 0 45 20.148 45 45z" fill="#04d481"/><path d="m378.402 361.6c-3.987 1.333-8.253 2.055-12.687 2.055-22.091 0-40-17.908-40-40 0-22.091 17.909-40 40-40 4.435 0 8.701.722 12.687 2.055-15.872 5.305-27.312 20.289-27.312 37.945s11.44 32.64 27.312 37.945z" fill="#08b772"/><path d="m455.381 323.655h-250c-5.523 0-10-4.477-10-10 0-49.706 40.294-90 90-90h90c49.706 0 90 40.294 90 90 0 5.522-4.477 10-10 10z" fill="#f19b0b"/><path d="m455.381 323.655h-220v-10c0-49.706 40.294-90 90-90h50c49.706 0 90 40.294 90 90 0 5.522-4.477 10-10 10z" fill="#f4aa39"/><path d="m285.381 223.654h16.689l-12.93 48.255c-1.072 4.001-5.185 6.375-9.186 5.303l-1.87-.501c-4.001-1.072-6.375-5.185-5.303-9.186l11.754-43.866c.283-.003.564-.005.846-.005zm90.001 0h-12.987l-11.755 43.871c-1.072 4.001 1.302 8.114 5.303 9.186l1.87.501c4.001 1.072 8.114-1.302 9.186-5.303l12.9-48.143c-1.498-.074-3.003-.112-4.517-.112zm-64.743 43.871c-1.072 4.001 1.302 8.114 5.303 9.186l1.87.501c4.001 1.072 8.114-1.302 9.186-5.303l12.93-48.255h-17.533z" fill="#e55920"/></svg>