<svg id="Capa_1" enable-background="new 0 0 501 501" height="512" viewBox="0 0 501 501" width="512" xmlns="http://www.w3.org/2000/svg"><path d="m490 256c0 135.31-109.69 245-245 245s-245-109.69-245-245 109.69-245 245-245 245 109.69 245 245z" fill="#fde803"/><path d="m74.5 130v243.611c0 20.879-27.334 28.744-38.426 11.055-18.968-30.248-31.308-64.787-34.991-102.666-.211-2.174-1.083-12.104-1.083-17.437 0-32.5 0-134.563 0-134.563 0-5.523 4.477-10 10-10h54.5c5.523 0 10 4.477 10 10z" fill="#d98800"/><path d="m421 130v198.891c0 89.839-69.079 165.256-158.7 171.508-5.715.398-11.484.601-17.3.601-89.469 0-167.737-47.267-210.5-118.878v-262.122h376.5c5.523 0 10 4.477 10 10z" fill="#f4aa39"/><path d="m294.5 84v66c0 5.523-4.478 10-10 10s-10-4.477-10-10v-66c0-35.29-28.71-64-64-64s-64 28.71-64 64v66c0 5.523-4.477 10-10 10s-10-4.477-10-10v-66c0-46.318 37.682-84 84-84 46.317 0 84 37.682 84 84z" fill="#d63d24"/><path d="m115.5 120h40v65c0 2.761-2.239 5-5 5h-30c-2.761 0-5-2.239-5-5zm150 0v65c0 2.761 2.239 5 5 5h30c2.761 0 5-2.239 5-5v-65z" fill="#d98800"/><path d="m309 190v283.134c0 11.688-8.304 21.795-19.803 23.89-9.872 1.799-19.95 3.006-30.197 3.583v-160.607c-5.523 0-10-4.477-10-10v-40c0-5.523 4.477-10 10-10v-20c-5.523 0-10-4.477-10-10v-40c0-5.523 4.477-10 10-10v-10c0-11.046 8.954-20 20-20h50c-11.046 0-20 8.954-20 20zm182 20h-52c-5.523 0-10 4.477-10 10v40c0 5.523 4.477 10 10 10h52c5.523 0 10-4.477 10-10v-40c0-5.523-4.477-10-10-10z" fill="#5b3374"/><path d="m490 190v68.25c0 .3-.007.598-.02.895-.522 41.477-11.35 80.472-30.043 114.539-45.305 82.569-170.937 50.154-170.937-44.028v-139.656c0-11.046 8.954-20 20-20h161c11.046 0 20 8.954 20 20z" fill="#6354b0"/><path d="m394.5 195h-40c-2.761 0-5-2.239-5-5 0-2.761 2.239-5 5-5h40c2.761 0 5 2.239 5 5 0 2.761-2.239 5-5 5z" fill="#5b3374"/><path d="m289 497.06v-277.06c0-5.523 4.477-10 10-10h151c5.523 0 10 4.477 10 10v153.569c-34.873 63.637-97.176 110.104-171 123.491z" fill="#e3f0fb"/><path d="m429 405c0 5.523-4.477 10-10 10h-90c-5.523 0-10-4.477-10-10s4.477-10 10-10h90c5.523 0 10 4.477 10 10zm-30 25h-50c-5.523 0-10 4.477-10 10s4.477 10 10 10h45.649c4.877-3.768 9.608-7.715 14.183-11.832-.861-4.648-4.935-8.168-9.832-8.168z" fill="#2abbc7"/><path d="m439.5 305c0 35.898-29.102 65-65 65s-65-29.102-65-65 29.102-65 65-65 65 29.102 65 65z" fill="#2abbc7"/><path d="m439.5 305c0 11.526-3 22.351-8.262 31.738-9.387 5.262-20.212 8.262-31.738 8.262-35.898 0-65-29.102-65-65 0-11.526 3-22.351 8.262-31.738 9.387-5.262 20.212-8.262 31.738-8.262 35.898 0 65 29.102 65 65z" fill="#00f1a5"/><path d="m441.071 275.196-61.875 61.875c-1.953 1.953-4.512 2.929-7.071 2.929s-5.119-.976-7.071-2.929l-28.125-28.125c-3.905-3.905-3.905-10.237 0-14.143 3.905-3.905 10.237-3.905 14.143 0l21.053 21.054 54.804-54.804c3.905-3.905 10.237-3.905 14.143 0s3.905 10.238-.001 14.143z" fill="#fff5f5"/></svg>