<svg id="Capa_1" enable-background="new 0 0 501 501" height="512" viewBox="0 0 501 501" width="512" xmlns="http://www.w3.org/2000/svg"><path d="m70.431 422.134c-39.904-43.23-64.438-100.86-64.924-164.216-1.035-135.002 109.988-246.918 244.994-246.918 135.309 0 244.999 109.691 244.999 245 0 64.398-24.846 122.992-65.475 166.722-2.675 2.879-6.719 4.076-10.529 3.113-51.761-13.08-108.916-20.335-168.996-20.335-59.79 0-116.683 7.185-168.245 20.146-4.285 1.077-8.828-.266-11.824-3.512z" fill="#49b4fa"/><path d="m357.439 360.014c6.464-51.878 37.765-96.044 81.628-120.227 11.794-6.502 25.092-9.788 38.559-9.788 3.306 0 5.702 3.151 4.818 6.337l-34.326 123.677h-90.679zm-304.854 0h90.679c-6.465-51.877-37.765-96.043-81.628-120.225-11.794-6.502-25.092-9.788-38.559-9.788-3.306 0-5.702 3.151-4.818 6.337z" fill="#c92e43"/><path d="m450.711 350.67-19.702 70.987c-44.784 48.772-109.076 79.343-180.509 79.343s-135.725-30.571-180.508-79.343l-19.703-70.987h8.404c-3.368 0-5.228-3.909-3.104-6.522l59.907-73.728c5.697-7.011 14.249-11.082 23.283-11.082h221.682c8.897 0 17.334 3.949 23.034 10.779z" fill="#f52c2c"/><path d="m394.5 345.667c0 7.917-6.418 14.334-14.334 14.334h-287.219c-3.306 0-5.702 3.151-4.818 6.337l25.848 93.128c-16.3-10.958-31.211-23.823-44.413-38.276l-51.305-184.851c-.878-3.163 1.481-6.335 4.764-6.337 9.882-.006 19.674 1.757 28.849 5.261.02.355.077.715.177 1.076l20.615 74.275c1.086 3.913 6.137 4.968 8.698 1.816l34.134-42.009c5.697-7.011 14.249-11.082 23.283-11.082h19.932l-51.874 63.841c-2.655 3.268-.33 8.153 3.88 8.153h269.448c7.917 0 14.335 6.417 14.335 14.334z" fill="#ab2538"/><path d="m406.5 210h-312c-16.569 0-30-13.431-30-30v-150c0-16.569 13.431-30 30-30h312c16.569 0 30 13.431 30 30v150c0 16.569-13.432 30-30 30z" fill="#f1ca50"/><path d="m436.5 30v150c0 16.568-13.431 30-30 30h-127.654l-56.544 56.544c-2.213 2.213-5.214 3.456-8.344 3.456-7.676 0-13.309-7.214-11.447-14.661l11.335-45.339h-67.346c-16.569 0-30-13.432-30-30v-150c0-16.568 13.431-30 30-30h260c16.568 0 30 13.432 30 30z" fill="#fded32"/><path d="m190.197 117.795-6.225 6.067c-.943.919-1.373 2.243-1.15 3.541l1.469 8.568c.56 3.268-2.869 5.759-5.804 4.217l-7.694-4.045c-1.165-.612-2.557-.612-3.723 0l-7.694 4.045c-2.935 1.542-6.364-.949-5.804-4.217l1.469-8.568c.223-1.297-.208-2.622-1.15-3.541l-6.225-6.067c-2.374-2.314-1.064-6.346 2.217-6.823l8.602-1.25c1.303-.189 2.429-1.008 3.012-2.188l3.847-7.795c1.467-2.973 5.707-2.973 7.174 0l3.847 7.795c.583 1.181 1.709 1.999 3.012 2.188l8.602 1.25c3.282.477 4.592 4.509 2.218 6.823zm-59.126-6.822-8.602-1.25c-1.303-.189-2.429-1.008-3.012-2.188l-3.847-7.795c-1.467-2.973-5.707-2.973-7.174 0l-3.847 7.795c-.583 1.181-1.709 1.999-3.012 2.188l-8.602 1.25c-3.281.477-4.591 4.508-2.217 6.823l6.225 6.067c.943.919 1.373 2.243 1.15 3.541l-1.469 8.568c-.56 3.268 2.869 5.759 5.804 4.217l7.694-4.045c1.165-.612 2.557-.612 3.723 0l7.694 4.045c2.935 1.542 6.364-.949 5.804-4.217l-1.469-8.568c-.223-1.297.208-2.622 1.15-3.541l6.225-6.067c2.373-2.315 1.063-6.347-2.218-6.823zm274.081 6.822c2.374-2.314 1.064-6.346-2.217-6.823l-8.602-1.25c-1.303-.189-2.429-1.008-3.012-2.188l-3.847-7.795c-1.467-2.973-5.707-2.973-7.174 0l-3.847 7.795c-.583 1.181-1.709 1.999-3.012 2.188l-8.602 1.25c-3.281.477-4.591 4.508-2.217 6.823l6.225 6.067c.943.919 1.373 2.243 1.15 3.541l-1.469 8.568c-.56 3.268 2.869 5.759 5.804 4.217l7.694-4.045c1.165-.612 2.557-.612 3.723 0l7.694 4.045c2.935 1.542 6.364-.949 5.804-4.217l-1.469-8.568c-.223-1.297.208-2.622 1.15-3.541zm-59.126-6.822-8.602-1.25c-1.303-.189-2.429-1.008-3.012-2.188l-3.847-7.795c-1.467-2.973-5.707-2.973-7.174 0l-3.847 7.795c-.583 1.181-1.709 1.999-3.012 2.188l-8.602 1.25c-3.281.477-4.591 4.508-2.217 6.823l6.225 6.067c.943.919 1.373 2.243 1.15 3.541l-1.469 8.568c-.56 3.268 2.869 5.759 5.804 4.217l7.694-4.045c1.165-.612 2.557-.612 3.723 0l7.694 4.045c2.935 1.542 6.364-.949 5.804-4.217l-1.469-8.568c-.223-1.297.208-2.622 1.15-3.541l6.225-6.067c2.372-2.315 1.062-6.347-2.218-6.823z" fill="#ecb700"/><path d="m253.965 22.154 20.358 41.251c.563 1.14 1.651 1.931 2.909 2.114l45.523 6.615c3.169.461 4.435 4.355 2.141 6.591l-32.941 32.109c-.911.888-1.326 2.167-1.111 3.42l7.776 45.339c.541 3.157-2.772 5.564-5.607 4.073l-40.717-21.406c-1.126-.592-2.471-.592-3.596 0l-40.717 21.406c-2.835 1.49-6.148-.917-5.607-4.073l7.776-45.339c.215-1.253-.201-2.532-1.111-3.42l-32.941-32.109c-2.293-2.235-1.028-6.13 2.141-6.591l45.523-6.615c1.259-.183 2.347-.973 2.909-2.114l20.358-41.251c1.421-2.872 5.517-2.872 6.934 0z" fill="#fc5426"/><path d="m324.897 78.724-32.941 32.109c-.911.888-1.326 2.167-1.111 3.42l.139.809c-29.21-5.326-53.742-24.056-66.991-49.584 1.162-.24 2.154-1.003 2.683-2.074l20.358-41.251c1.417-2.872 5.513-2.872 6.93 0l20.358 41.251c.563 1.141 1.651 1.931 2.909 2.114l45.523 6.615c3.171.461 4.436 4.356 2.143 6.591z" fill="#fd8f01"/></svg>