<svg id="Capa_1" enable-background="new 0 0 501 501" height="512" viewBox="0 0 501 501" width="512" xmlns="http://www.w3.org/2000/svg"><path d="m490 255.817c.099 134.518-108.213 243.761-242.375 245.17-.009 0-.018 0-.028 0-5.208.045-9.463-4.155-9.506-9.363-.021-2.459-.054-4.75-.099-5.96-4.676-124.818-102.727-225.75-226.329-234.976-6.569-.49-11.485-6.183-11.007-12.753 9.182-125.98 113.621-225.522 241.612-226.92 137.223-1.499 247.631 107.57 247.732 244.802z" fill="#f52c2c"/><path d="m200.617 433.789c-23.837-23.837-23.837-62.484 0-86.321l196.185-196.185c23.837-23.837 62.484-23.837 86.321 0 23.837 23.837 23.837 62.484 0 86.321l-196.185 196.185c-23.837 23.837-62.485 23.837-86.321 0z" fill="#f4aa39"/><path d="m492.489 158.261c-4.676 10.784-12.701 19.082-22.33 24.205 4.31 10.474 4.675 22.09.083 32.678-9.754 22.493-38.174 31.832-63.479 20.859-2.7-1.171-5.255-2.526-7.655-4.04-.317 5.74-1.638 11.522-4.059 17.105-10.973 25.305-40.382 36.923-65.686 25.95-25.305-10.973-36.923-40.381-25.95-65.686s40.382-36.923 65.686-25.95c2.269.983 4.426 2.116 6.468 3.38.439-3.848 1.438-7.664 3.038-11.354 4.13-9.524 11.607-16.69 20.778-20.954-3.854-11.333-3.668-24.081 1.469-35.929 10.973-25.305 40.381-36.923 65.686-25.95 25.305 10.972 36.924 40.381 25.951 65.686z" fill="#08b772"/><path d="m168.022 338.415c-28.171-28.171-28.171-73.845 0-102.016l204.032-204.031c28.171-28.171 73.845-28.171 102.016 0 28.171 28.171 28.171 73.845 0 102.016l-204.032 204.031c-28.171 28.171-73.845 28.171-102.016 0z" fill="#c3573a"/><path d="m232.24 312.65c-17.553-17.553-17.553-46.011 0-63.564l179.705-179.705c17.553-17.553 46.011-17.553 63.564 0 17.553 17.553 17.553 46.011 0 63.564l-179.705 179.705c-17.553 17.553-46.012 17.553-63.564 0z" fill="#d5694b"/><path d="m464.974 109.684c-3.065 5.308-9.852 7.127-15.16 4.062l-67.277-38.842c-5.308-3.064-7.126-9.852-4.062-15.16 3.065-5.308 9.852-7.126 15.16-4.062l67.277 38.843c5.308 3.063 7.126 9.851 4.062 15.159zm-43.759 24.536-67.277-38.843c-5.308-3.064-12.095-1.246-15.16 4.062-3.064 5.308-1.246 12.096 4.062 15.16l67.277 38.842c5.308 3.065 12.095 1.246 15.16-4.062 3.065-5.307 1.246-12.094-4.062-15.159zm-39.696 39.697-67.277-38.843c-5.308-3.064-12.095-1.246-15.16 4.062s-1.246 12.096 4.062 15.16l67.277 38.842c5.308 3.065 12.095 1.246 15.16-4.062s1.246-12.095-4.062-15.159zm-39.696 39.696-67.277-38.843c-5.308-3.064-12.095-1.246-15.16 4.062-3.065 5.308-1.246 12.096 4.062 15.16l67.277 38.843c5.308 3.064 12.095 1.246 15.16-4.063 3.064-5.308 1.245-12.095-4.062-15.159zm-37.546 37.546-67.277-38.843c-5.308-3.064-12.095-1.246-15.16 4.062-3.065 5.308-1.246 12.095 4.062 15.16l67.277 38.843c5.308 3.064 12.095 1.246 15.16-4.062 3.064-5.308 1.246-12.096-4.062-15.16z" fill="#8b3d27"/><path d="m304.746 205.81c6.68 11.772 8.14 25.657 2.736 38.119-9.754 22.493-38.174 31.832-63.479 20.859-7.476-3.242-13.844-7.894-18.854-13.42 1.172 8.708.062 17.836-3.689 26.486-10.973 25.305-40.382 36.923-65.686 25.95-25.305-10.973-36.923-40.381-25.95-65.686s40.382-36.923 65.686-25.95c6.805 2.951 12.62 7.236 17.272 12.416-.728-6.847.212-13.816 3.063-20.39 2.73-6.296 6.924-11.562 12.102-15.64-5.938-12.552-6.642-27.503-.684-41.243 10.973-25.305 40.382-36.923 65.686-25.95 25.305 10.973 36.923 40.381 25.95 65.686-3.274 7.552-8.192 13.885-14.153 18.763z" fill="#49cb5c"/><path d="m67.211 300.383c-23.837-23.837-23.837-62.484 0-86.321l196.185-196.184c23.837-23.837 62.484-23.837 86.321 0 23.837 23.837 23.837 62.484 0 86.321l-196.185 196.184c-23.837 23.837-62.484 23.837-86.321 0z" fill="#f4aa39"/><path d="m65.313 298.4c-21.921-23.951-21.289-61.151 1.898-84.337l196.185-196.185c23.187-23.187 60.386-23.819 84.337-1.898-13.598 1.314-26.839 7.178-37.253 17.593l-227.574 227.574c-10.414 10.414-16.278 23.655-17.593 37.253z" fill="#d98800"/><path d="m351.781 357.561 12.563 12.563c3.905 3.905 3.905 10.237 0 14.142l-116.72 116.719c-.873.01-1.748.015-2.624.015-135.31 0-245-109.69-245-245 0-6.15.227-12.248.672-18.285l108.56-108.56c3.905-3.905 10.237-3.905 14.142 0l14.601 14.601c.75.75 1.172 1.768 1.172 2.828v38.152h38.152c1.061 0 2.078.421 2.828 1.172l15.066 15.066c.75.75 1.172 1.768 1.172 2.828v38.152h38.152c1.061 0 2.078.421 2.828 1.172l15.066 15.066c.75.75 1.172 1.768 1.172 2.828v38.152h38.152c1.061 0 2.078.421 2.828 1.172l15.066 15.066c.75.75 1.172 1.768 1.172 2.828v38.152h38.152c1.061 0 2.078.421 2.828 1.171z" fill="#bbe0fb"/><path d="m137.797 143.578-136.617 136.617c-.781-7.959-1.18-16.03-1.18-24.195 0-6.15.227-12.248.672-18.285l108.56-108.56c3.905-3.905 10.237-3.905 14.142 0z" fill="#63bcfa"/><path d="m253.583 284.543-162.27 162.27c-7.906-6.376-15.408-13.233-22.461-20.527l175.826-175.826 7.732 7.732c.75.75 1.172 1.768 1.172 2.829zm40.98 15.8c-.75-.75-1.768-1.171-2.829-1.171h-9.742l-165.475 165.475c8.992 5.549 18.371 10.533 28.085 14.903l164.584-164.584zm-98.198-58.389v-29.207l-164.378 164.378c5.141 9.021 10.838 17.684 17.045 25.942l161.113-161.113zm155.416 115.608c-.75-.75-1.768-1.172-2.829-1.172h-38.152l-134.768 134.769c11.481 3.362 23.311 5.906 35.424 7.564l140.743-140.743zm-171.653-171.655c-.75-.75-1.768-1.171-2.828-1.171h-38.152l-131.811 131.013c2.787 11.122 6.335 21.943 10.584 32.403l162.225-162.225z" fill="#75ccd4"/><path d="m310.801 299.172v24.661c0 9.691-7.856 17.548-17.548 17.548-1.582 0-3.115-.209-4.573-.602v33.054c0 9.691-7.857 17.548-17.548 17.548-9.692 0-17.548-7.857-17.548-17.548v-74.661-13.886c4.07-.402 8.387-.619 12.859-.619 24.498 0 44.358 6.494 44.358 14.505z" fill="#ab2538"/></svg>