<svg id="Capa_1" enable-background="new 0 0 501 501" height="512" viewBox="0 0 501 501" width="512" xmlns="http://www.w3.org/2000/svg"><path d="m501 256c0 135.31-109.69 245-245 245s-245-109.69-245-245 109.69-245 245-245 245 109.69 245 245z" fill="#fded32"/><path d="m498.374 220c1.73 11.75 2.626 23.77 2.626 36 0 135.31-109.69 245-245 245s-245-109.69-245-245c0-12.23.896-24.25 2.626-36z" fill="#f4aa39"/><path d="m164.496 10v250c0 5.523-4.477 10-10 10h-10c-5.523 0-10-4.477-10-10v-250c0-5.523 4.477-10 10-10h10c5.523 0 10 4.477 10 10zm-84.496 184.333h-70c-5.523 0-10 4.477-10 10v10c0 5.522 4.477 10 10 10h50v85.667c0 5.523 4.477 10 10 10h10c5.523 0 10-4.477 10-10v-105.667c0-5.522-4.477-10-10-10z" fill="#b188c8"/><path d="m5 120c-3.722 0-6.119-3.912-4.47-7.248 30.109-60.907 85.553-101.752 148.966-101.752s118.857 40.845 148.966 101.752c1.649 3.336-.748 7.248-4.47 7.248z" fill="#f52c2c"/><path d="m47.11 120h-42.11c-3.722 0-6.119-3.912-4.47-7.248 30.109-60.907 85.553-101.752 148.966-101.752 4.583 0 9.123.214 13.616.632-50.25 5.604-93.291 47.988-116.002 108.368z" fill="#ab2538"/><path d="m250 220 50-20 10 50h-60z" fill="#fff5f5"/><path d="m320 225v24c0 2.761-2.239 5-5 5h-60c-2.761 0-5-2.239-5-5v-24c0-2.761 2.239-5 5-5h60c2.761 0 5 2.239 5 5z" fill="#f52c2c"/><path d="m220 195v60c0 2.761-2.239 5-5 5h-30c-2.761 0-5-2.239-5-5v-60c0-2.761 2.239-5 5-5h1.91c-1.188-1.327-1.91-3.079-1.91-5 0-4.142 3.358-7.5 7.5-7.5h.069l1.675-23.31c.17-2.361 2.135-4.19 4.502-4.19h2.506c2.367 0 4.333 1.829 4.502 4.19l1.675 23.31h.069c4.142 0 7.5 3.358 7.5 7.5 0 1.921-.723 3.673-1.91 5h1.912c2.761 0 5 2.239 5 5z" fill="#ab2538"/><path d="m270 195v60c0 2.761-2.239 5-5 5h-30c-2.761 0-5-2.239-5-5v-60c0-2.761 2.239-5 5-5h1.91c-1.188-1.327-1.91-3.079-1.91-5 0-4.142 3.358-7.5 7.5-7.5h.069l1.675-23.31c.17-2.361 2.135-4.19 4.502-4.19h2.506c2.367 0 4.333 1.829 4.502 4.19l1.675 23.31h.069c4.142 0 7.5 3.358 7.5 7.5 0 1.921-.723 3.673-1.91 5h1.912c2.761 0 5 2.239 5 5z" fill="#fd9d01"/><path d="m140 262v180c0 5.523-4.477 10-10 10h-59c-5.523 0-10-4.477-10-10v-180c0-5.523 4.477-10 10-10h59c5.523 0 10 4.477 10 10z" fill="#6354b0"/><path d="m451 404.346c-8.146 10.691-17.151 20.693-26.913 29.901-12.091 11.406-28.091 17.753-44.713 17.753h-269.374c-.374 0-.742-.021-1.105-.061-2.813-2.115-5.578-4.29-8.296-6.521-.388-1.066-.6-2.218-.6-3.418v-180c0-5.523 4.477-10 10-10h331c5.523 0 10 4.477 10 10v142.346z" fill="#8279c0"/><path d="m196 445c0 30.375-24.624 55-55 55s-55-24.625-55-55 24.624-55 55-55 55 24.625 55 55zm175-55c-30.376 0-55 24.625-55 55 0 17.164 7.863 32.492 20.182 42.578 14.038-4.86 27.496-10.96 40.244-18.169 2.464-1.394 2.372-6.725 4.782-8.201 2.178-1.333 6.863 1.197 8.995-.201 12.358-8.106 23.938-17.299 34.606-27.444-5.263-24.887-27.355-43.563-53.809-43.563z" fill="#012d4e"/><path d="m166 445c0 13.807-11.193 25-25 25s-25-11.193-25-25 11.193-25 25-25 25 11.193 25 25zm205-25c-13.807 0-25 11.193-25 25s11.193 25 25 25c1.864 0 3.679-.204 5.427-.591 4.691-2.653 9.285-5.456 13.777-8.402 3.619-4.337 5.796-9.918 5.796-16.007 0-13.807-11.193-25-25-25z" fill="#b188c8"/><path d="m330.195 349.832c-41.176 40.224-107.214 40.223-148.389 0-11.375-11.112-12.038-29.522-.666-40.638 8.746-8.548 21.71-10.209 32.095-4.981 1.693.852 2.766 2.586 2.766 4.481v28.132c0 4.107 3.164 7.688 7.269 7.811 4.247.128 7.731-3.278 7.731-7.497v-14.745c0-2.18 2.248-3.622 4.235-2.724 3.057 1.381 6.225 2.441 9.452 3.181 2.246.515 3.813 2.55 3.813 4.854v19.12c0 4.107 3.164 7.688 7.269 7.811 4.247.128 7.731-3.278 7.731-7.497v-19.434c0-2.304 1.567-4.339 3.813-4.854 3.227-.739 6.395-1.799 9.452-3.181 1.987-.898 4.235.544 4.235 2.724v14.43c0 4.107 3.164 7.688 7.269 7.811 4.247.128 7.731-3.278 7.731-7.497v-28.447c0-1.896 1.072-3.629 2.766-4.481 10.384-5.228 23.348-3.568 32.094 4.98 11.371 11.118 10.709 29.529-.666 40.641z" fill="#fff5f5"/><path d="m420 300c0 5.523-4.477 10-10 10s-10-4.477-10-10 4.477-10 10-10 10 4.477 10 10zm-320-10c-5.523 0-10 4.477-10 10s4.477 10 10 10 10-4.477 10-10-4.477-10-10-10z" fill="#54469b"/><path d="m450 270h-390c-5.523 0-10-4.477-10-10 0-5.523 4.477-10 10-10h390c5.523 0 10 4.477 10 10 0 5.523-4.477 10-10 10z" fill="#5b3374"/><path d="m450 270h-351.25c-5.523 0-10-4.477-10-10 0-5.523 4.477-10 10-10h351.25c5.523 0 10 4.477 10 10 0 5.523-4.477 10-10 10z" fill="#463b83"/></svg>