<svg id="Capa_1" enable-background="new 0 0 501 501" height="512" viewBox="0 0 501 501" width="512" xmlns="http://www.w3.org/2000/svg"><path d="m5.5 256c0-135.133 109.404-244.714 244.47-244.999 134.75-.285 243.846 107.161 245.511 241.902.957 77.421-34.003 146.711-89.263 192.255-2.009 1.656-4.66 2.292-7.197 1.704-46.058-10.673-96.144-16.527-148.521-16.527s-102.464 5.855-148.522 16.528c-2.535.587-5.185-.047-7.193-1.702-54.524-44.937-89.285-112.99-89.285-189.161z" fill="#08b772"/><path d="m45.945 241.423-6.749-28.22c-1.61-6.734 3.495-13.203 10.419-13.203h401.77c6.924 0 12.028 6.47 10.418 13.203l-3.73 15.597c-38.663 161.673-238.816 221.773-358.489 106.398-.968-.932-45.468-59.608-53.639-93.775z" fill="#ab2538"/><path d="m69.931 150.994c-3.553-4.229-3.005-10.536 1.223-14.089l28.16-23.661-4.626-23.642c-1.061-5.42 2.474-10.674 7.894-11.734l39.256-7.68c1.59-.311 3.166-.226 4.625.185l-2.394-12.283c-1.057-5.42 2.481-10.671 7.902-11.728l39.261-7.653c5.421-1.057 10.672 2.481 11.729 7.902l17.54 89.987v-126.598c0-5.523 4.477-10 10-10h40c5.523 0 10 4.477 10 10v173.535l18.327-117.079c.854-5.457 5.97-9.187 11.426-8.333l39.519 6.186c5.456.854 9.187 5.97 8.333 11.426l-17.373 110.986 46.574-133.022c1.825-5.212 7.53-7.958 12.743-6.134l37.753 13.218c5.213 1.825 7.959 7.53 6.134 12.743l-99.579 284.41h-197.17l-29.328-149.898z" fill="#f1ca50"/><path d="m335.361 353.368-10.382-3.635c-5.213-1.825-7.959-7.53-6.134-12.743l95.832-273.708c1.825-5.213 7.53-7.959 12.743-6.134l10.382 3.635c5.213 1.825 7.959 7.53 6.134 12.743l-95.832 273.708c-1.826 5.213-7.531 7.959-12.743 6.134zm22.744-277.634-17.373 110.986-46.831 133.755c-.583 1.666-.245 3.517.891 4.869l7.631 9.082c3.553 4.228 3.005 10.536-1.223 14.089l-8.422 7.076c-4.228 3.553-10.536 3.005-14.089-1.223l-186.555-222.029c-3.553-4.229-3.005-10.537 1.223-14.089l8.422-7.076c4.228-3.553 10.536-3.005 14.089 1.223l12.163 14.476c1.217 1.448 3.563.326 3.199-1.53l-8.082-41.309c-1.061-5.42 2.474-10.674 7.894-11.734l10.795-2.112c5.42-1.061 10.674 2.474 11.734 7.894l20.105 102.761c.06.305.196.589.395.826l26.213 31.197c1.216 1.447 3.561.327 3.2-1.528l-30.951-158.796c-1.057-5.421 2.481-10.672 7.902-11.729l10.797-2.104c5.421-1.057 10.672 2.481 11.728 7.902l42.911 220.153c.059.305.196.59.395.828 1.1 1.309 3.234.531 3.234-1.178v-256.414c0-5.523 4.477-10 10-10h11c5.523 0 10 4.477 10 10v173.535l-16.116 102.954c-.224 1.428.182 2.883 1.112 3.99l20.691 24.625c1.011 1.203 2.968.658 3.212-.895l38.079-243.268c.854-5.456 5.97-9.187 11.426-8.333l10.868 1.701c5.456.854 9.187 5.969 8.333 11.425zm-160.854 226.792-36.311-43.216c-1.217-1.448-3.563-.326-3.199 1.53l21.091 107.798c1.06 5.42 6.314 8.954 11.734 7.894l10.795-2.112c5.42-1.06 8.954-6.314 7.894-11.734l-11.609-59.334c-.059-.304-.195-.588-.395-.826z" fill="#fded32"/><path d="m251.624 500.997c-.374.001-.749.003-1.124.003s-.749-.001-1.124-.003c-.134 0-.268-.001-.402-.002-.179-.001-.358-.002-.537-.004-58.405-.481-111.938-21.399-153.799-55.953l-55.441-231.835c-1.61-6.733 3.494-13.203 10.418-13.203h15.454c35.299 82.852 105.096 139.252 185.431 139.252s150.132-56.4 185.431-139.252h15.454c6.923 0 12.028 6.47 10.418 13.203l-55.442 231.835c-41.861 34.553-95.394 55.471-153.799 55.953-.179.001-.358.003-.537.004-.133.001-.267.002-.401.002z" fill="#fc6930"/><path d="m461.803 213.203-55.442 231.835c-17.208 14.204-36.389 26.104-57.07 35.228-8.499-25.828-13.098-53.427-13.098-82.1 0-32.423 5.88-63.472 16.631-92.141 35.189-24.598 64.132-61.491 83.106-106.026h15.454c6.925.001 12.029 6.47 10.419 13.204zm-396.734-13.203h-15.454c-6.923 0-12.028 6.469-10.418 13.203l55.442 231.835c17.208 14.204 36.389 26.104 57.07 35.228 8.499-25.828 13.098-53.427 13.098-82.1 0-32.423-5.88-63.472-16.631-92.141-35.19-24.597-64.133-61.489-83.107-106.025zm201.431 138.501c-5.281.498-10.617.751-16 .751-4.704 0-9.373-.193-14-.574v161.928c3.955.223 7.934.352 11.937.385.179.001.358.003.537.004.134.001.268.001.402.002.374.001.749.003 1.124.003s.749-.001 1.124-.003c.134 0 .268-.001.402-.002.179-.001.358-.002.537-.004 4.678-.039 9.325-.209 13.937-.506zm-81 153.782c9.77 2.682 19.783 4.773 30 6.234v-162.895c-10.272-2.155-20.291-5.242-30-9.19zm130-165.851c-9.709 3.948-19.728 7.035-30 9.19v162.896c10.217-1.461 20.23-3.553 30-6.234z" fill="#f52c2c"/><path d="m384.5 295c0 8.284-6.716 15-15 15s-15-6.716-15-15 6.716-15 15-15 15 6.716 15 15z" fill="#f1ca50"/><path d="m354.5 340c0 5.523-4.477 10-10 10s-10-4.477-10-10 4.477-10 10-10 10 4.477 10 10zm20 40c-5.523 0-10 4.477-10 10s4.477 10 10 10 10-4.477 10-10-4.477-10-10-10z" fill="#fded32"/><path d="m157 97.5h-5c-2.761 0-5-2.239-5-5v-5c0-2.761 2.239-5 5-5h5c2.761 0 5 2.239 5 5v5c0 2.761-2.239 5-5 5zm145-5v-5c0-2.761-2.239-5-5-5h-5c-2.761 0-5 2.239-5 5v5c0 2.761 2.239 5 5 5h5c2.761 0 5-2.239 5-5zm-113.964 34.571 3.536-3.536c1.953-1.953 1.953-5.118 0-7.071l-3.536-3.536c-1.953-1.953-5.118-1.953-7.071 0l-3.536 3.536c-1.953 1.953-1.953 5.118 0 7.071l3.536 3.536c1.952 1.953 5.118 1.953 7.071 0zm0 130 3.536-3.536c1.953-1.953 1.953-5.118 0-7.071l-3.536-3.536c-1.953-1.953-5.118-1.953-7.071 0l-3.536 3.536c-1.953 1.953-1.953 5.118 0 7.071l3.536 3.536c1.952 1.953 5.118 1.953 7.071 0zm-71.465-98.535 3.536-3.536c1.953-1.953 1.953-5.118 0-7.071l-3.536-3.536c-1.953-1.953-5.118-1.953-7.071 0l-3.536 3.536c-1.953 1.953-1.953 5.118 0 7.071l3.536 3.536c1.953 1.952 5.118 1.952 7.071 0zm302.929 0 3.536-3.536c1.953-1.953 1.953-5.118 0-7.071l-3.536-3.536c-1.953-1.953-5.118-1.953-7.071 0l-3.536 3.536c-1.953 1.953-1.953 5.118 0 7.071l3.536 3.536c1.953 1.952 5.118 1.952 7.071 0zm-62.929-32.929 3.536-3.536c1.953-1.953 1.953-5.118 0-7.071l-3.536-3.536c-1.953-1.953-5.118-1.953-7.071 0l-3.536 3.536c-1.953 1.953-1.953 5.118 0 7.071l3.536 3.536c1.953 1.952 5.118 1.952 7.071 0zm-125-75.607 3.536-3.536c1.953-1.953 1.953-5.118 0-7.071l-3.536-3.536c-1.953-1.953-5.118-1.953-7.071 0l-3.536 3.536c-1.953 1.953-1.953 5.118 0 7.071l3.536 3.536c1.953 1.953 5.118 1.953 7.071 0zm25 115.607 3.536-3.536c1.953-1.953 1.953-5.118 0-7.071l-3.536-3.536c-1.953-1.953-5.118-1.953-7.071 0l-3.536 3.536c-1.953 1.953-1.953 5.118 0 7.071l3.536 3.536c1.953 1.952 5.118 1.952 7.071 0z" fill="#fff5f5"/></svg>