<svg id="Capa_1" enable-background="new 0 0 512 512" height="512" viewBox="0 0 512 512" width="512" xmlns="http://www.w3.org/2000/svg"><path d="m501 256c0 128.406-98.783 233.74-224.5 244.155-6.759.56-34.241.56-41 0-125.717-10.415-224.5-115.749-224.5-244.155 0-135.31 109.69-245 245-245s245 109.69 245 245z" fill="#49b4fa"/><path d="m175 70h-78.471c13.403-11.502 28.063-21.58 43.746-30h34.725c8.284 0 15 6.716 15 15s-6.716 15-15 15zm70 340h-80c-8.284 0-15 6.716-15 15s6.716 15 15 15h80c8.284 0 15-6.716 15-15s-6.716-15-15-15zm230-180h-120c-8.284 0-15 6.716-15 15s6.716 15 15 15h120c8.284 0 15-6.716 15-15s-6.716-15-15-15zm-295 105v-15h34.576c8.077 0 15.027-6.207 15.407-14.274.406-8.615-6.458-15.726-14.983-15.726h-120c-8.284 0-15 6.716-15 15s-6.716 15-15 15h-19.576c-8.077 0-15.027 6.207-15.407 14.274-.406 8.615 6.458 15.726 14.983 15.726h120c8.284 0 15-6.716 15-15zm120 120c0 8.284 6.716 15 15 15h60.376c15.205-8.5 29.41-18.573 42.397-30h-102.773c-8.284 0-15 6.716-15 15zm15-275h120c8.284 0 15-6.716 15-15s6.716-15 15-15h11.945c-5.013-10.431-10.744-20.452-17.127-30h-94.818c-8.284 0-15 6.716-15 15v15h-34.576c-8.077 0-15.027 6.207-15.407 14.274-.406 8.615 6.458 15.726 14.983 15.726zm40-110h60.471c-13.403-11.502-28.063-21.58-43.746-30h-16.725c-8.284 0-15 6.716-15 15s6.716 15 15 15z" fill="#91cefb"/><path d="m276.5 55v445.154c-6.759.56-13.596.846-20.5.846s-13.741-.286-20.5-.846v-445.154c0-8.284 6.716-15 15-15h11c8.284 0 15 6.716 15 15z" fill="#d98800"/><path d="m276.5 55v389.624c-2.752 3.284-6.88 5.376-11.5 5.376-8.284 0-15-6.716-15-15v-380c0-7.691 5.792-14.021 13.25-14.89 7.458.869 13.25 7.199 13.25 14.89z" fill="#f4aa39"/><path d="m116.102 241.98h329.76c2.505 0 4.864 1.178 6.368 3.181l56.763 75.581c4.008 5.337 4.008 12.679 0 18.016l-56.763 75.581c-1.504 2.003-3.863 3.181-6.368 3.181h-329.76c-4.398 0-7.964-3.566-7.964-7.964v-159.612c0-4.398 3.566-7.964 7.964-7.964z" fill="#f52c2c"/><path d="m508.994 338.758-56.763 75.581c-1.504 2.003-3.863 3.181-6.368 3.181h-28.021l59.153-78.762c4.008-5.337 4.008-12.679 0-18.016l-59.153-78.762h28.021c2.505 0 4.864 1.179 6.368 3.181l56.763 75.581c4.008 5.337 4.008 12.679 0 18.016z" fill="#c92e43"/><path d="m179.398 295.203c-.026-.069-.054-.138-.082-.207-1.438-3.492-4.804-5.746-8.58-5.746h-.01c-3.78.004-7.147 2.267-8.579 5.766-.023.057-.046.113-.067.171l-29.477 77.395c-1.474 3.87.468 8.203 4.339 9.678 3.872 1.474 8.204-.469 9.678-4.34l5.501-14.444h37.008l5.443 14.424c1.134 3.003 3.987 4.854 7.019 4.854.879 0 1.775-.156 2.646-.485 3.875-1.462 5.832-5.789 4.369-9.665zm-21.563 53.272 12.876-33.807 12.758 33.807zm207.584-53.272c-.026-.069-.054-.138-.082-.207-1.438-3.492-4.804-5.746-8.58-5.746h-.01c-3.78.004-7.147 2.267-8.579 5.766-.023.057-.046.113-.067.171l-29.477 77.395c-1.474 3.87.468 8.203 4.339 9.678.879.335 1.781.493 2.668.493 3.022 0 5.871-1.84 7.01-4.833l5.501-14.444h37.007l5.443 14.424c1.462 3.874 5.788 5.831 9.665 4.368 3.875-1.462 5.832-5.789 4.369-9.665zm-21.563 53.272 12.876-33.807 12.758 33.807zm118.818-47.435-23.66 36.346-.093 37.883c-.01 4.136-3.366 7.481-7.5 7.481h-.019c-4.142-.01-7.492-3.376-7.481-7.519l.093-37.856-23.849-36.524c-2.265-3.469-1.289-8.116 2.179-10.381 3.468-2.262 8.115-1.289 10.38 2.18l18.785 28.77 18.593-28.563c2.259-3.471 6.906-4.453 10.377-2.193s4.455 6.904 2.195 10.376zm-149.399-2.683-15.355 77.155c-.064.321-.149.639-.255.949-1.269 3.733-4.771 6.261-8.714 6.288h-.064c-3.918 0-7.424-2.472-8.737-6.168-.036-.1-.069-.201-.101-.303l-16.648-54.038-16.722 54.025c-.02.065-.042.13-.063.195-1.269 3.733-4.771 6.261-8.714 6.288h-.064c-3.918 0-7.424-2.472-8.737-6.168-.123-.344-.22-.697-.291-1.056l-15.294-77.321c-.804-4.063 1.839-8.009 5.902-8.813 4.066-.802 8.01 1.838 8.813 5.902l10.843 54.815 16.96-54.794c.514-2.625 2.419-4.891 5.155-5.734 3.958-1.221 8.156 1.001 9.375 4.96l17.118 55.564 10.882-54.677c.809-4.063 4.755-6.7 8.82-5.892 4.061.813 6.699 4.761 5.891 8.823z" fill="#fff5f5"/><path d="m395.898 270.02h-329.761c-2.505 0-4.864-1.178-6.368-3.181l-56.763-75.581c-4.008-5.337-4.008-12.679 0-18.016l56.763-75.581c1.504-2.003 3.863-3.181 6.368-3.181h329.76c4.398 0 7.964 3.566 7.964 7.964v159.612c.001 4.398-3.565 7.964-7.963 7.964z" fill="#fded32"/><path d="m39.144 191.258 59.153 78.762h-32.16c-2.505 0-4.864-1.178-6.368-3.181l-56.763-75.581c-4.008-5.336-4.008-12.679 0-18.016l56.763-75.581c1.504-2.003 3.863-3.181 6.368-3.181h32.16l-59.153 78.762c-4.008 5.337-4.008 12.679 0 18.016z" fill="#f1ca50"/><path d="m190.138 141.453c-.026-.068-.053-.137-.081-.205-1.437-3.493-4.804-5.748-8.581-5.748h-.01c-3.781.004-7.148 2.268-8.579 5.768-.023.056-.045.112-.066.168l-29.477 77.396c-1.474 3.87.468 8.203 4.339 9.678 3.871 1.477 8.204-.469 9.678-4.339l5.502-14.445h37.007l5.443 14.424c1.134 3.003 3.987 4.854 7.019 4.854.879 0 1.775-.156 2.646-.485 3.875-1.462 5.832-5.789 4.369-9.665zm-21.562 53.272 12.876-33.807 12.758 33.807zm127.645 31.982c-1.472 1.525-3.434 2.293-5.398 2.293-1.875 0-3.751-.698-5.207-2.103l-32.307-31.168v25.771c0 4.143-3.358 7.5-7.5 7.5s-7.5-3.357-7.5-7.5v-78.5c0-4.143 3.358-7.5 7.5-7.5s7.5 3.357 7.5 7.5v22.725l29.652-27.256c3.051-2.802 7.795-2.604 10.597.446 2.803 3.049 2.604 7.794-.446 10.597l-33.852 31.116 36.771 35.475c2.981 2.876 3.066 7.624.19 10.604zm64.08-5.924c0 4.143-3.358 7.5-7.5 7.5h-32.775c-4.142 0-7.5-3.357-7.5-7.5v-77.783c0-4.143 3.358-7.5 7.5-7.5h32.775c4.142 0 7.5 3.357 7.5 7.5s-3.358 7.5-7.5 7.5h-25.275v23.892h22.858c4.142 0 7.5 3.357 7.5 7.5s-3.358 7.5-7.5 7.5h-22.858v23.892h25.275c4.142-.001 7.5 3.357 7.5 7.499zm-219.448-77.783c0 4.143-3.358 7.5-7.5 7.5h-14.264v71c0 4.143-3.358 7.5-7.5 7.5s-7.5-3.357-7.5-7.5v-71h-14.089c-4.142 0-7.5-3.357-7.5-7.5s3.358-7.5 7.5-7.5h43.353c4.142 0 7.5 3.357 7.5 7.5z" fill="#463b83"/></svg>